<svg xmlns="http://www.w3.org/2000/svg" viewBox="0 0 639.74 347.24"><defs><style>.cls-1{fill:#d4d7ff;}.cls-2{fill:#aeb8ff;}.cls-3{fill:#401cc6;}.cls-4{fill:#9fa8ff;}.cls-5{fill:#95a1f9;}.cls-6,.cls-9{fill:#fff;}.cls-6{opacity:0.63;}.cls-7{fill:#5523e2;}.cls-8{fill:#e3e6ff;}.cls-10{fill:#ffb600;}.cls-11,.cls-17{fill:#ff2951;}.cls-12{fill:#e6e6fc;}.cls-13{fill:#8050ff;}.cls-14{fill:#ffc154;}.cls-15{fill:none;stroke:#5523e2;stroke-miterlimit:10;stroke-width:2px;stroke-dasharray:4;}.cls-16{fill:#ededfc;}.cls-17{font-size:43.87px;font-family:Montserrat-Black, Montserrat;font-weight:800;}.cls-18{fill:#421dcc;}.cls-19{fill:#5f7aff;}</style></defs><g id="Layer_2" data-name="Layer 2"><g id="OBJECTS"><path class="cls-1" d="M393.83,26.68c-16.66-10.72-40.47-9.2-58-1.56a71.87,71.87,0,0,0-27.08,20.69c-8.1,10-10.87,22.85-17.57,33.8-9.81,16-26.64,28.58-45.59,30.66-18.15,2-35.37-5.27-52.09-11.22-18-6.42-35.69-10-54.93-8.82-27.91,1.66-54.88,14.84-68.43,40.15A75.89,75.89,0,0,0,62,173.86C64.12,195,84.17,211.5,78.06,233.75c-4.77,17.4-21.72,28.68-29.5,45-7.51,15.72-5.55,35.17,5.72,48.59a45.53,45.53,0,0,0,43.88,14.8H583.09c12.17,0,18.49-13.83,22.53-23.29,9.32-21.86,14.17-45.92,11.4-69.68-2-17.44-8.22-36.87-21.81-48.68-11.77-10.22-25.87-12.72-40.77-15-28.42-4.32-36.13-24.54-35-51.2,1.11-25,8.86-59.51-18.24-74-6.85-3.65-15-4.38-22.66-3.46-14.36,1.7-27.62,9.42-42.43,6.23C421,59.84,412.81,45.88,403.41,35A44.69,44.69,0,0,0,393.83,26.68Z"/><rect class="cls-2" x="256.62" y="335.45" width="121.01" height="5.66"/><path class="cls-3" d="M182.88,114.21H453.3A12.68,12.68,0,0,1,466,126.9v153a0,0,0,0,1,0,0H170.19a0,0,0,0,1,0,0v-153A12.68,12.68,0,0,1,182.88,114.21Z"/><path class="cls-4" d="M170.19,279.86H466a0,0,0,0,1,0,0v15.72a12.63,12.63,0,0,1-12.63,12.63H182.83a12.63,12.63,0,0,1-12.63-12.63V279.86A0,0,0,0,1,170.19,279.86Z"/><polygon class="cls-1" points="455.07 123.77 181.11 123.77 181.11 269.6 181.11 269.6 455.07 269.6 455.07 123.77"/><rect class="cls-3" x="291.02" y="290.58" width="54.71" height="6.85"/><polygon class="cls-5" points="354.82 335.45 281.36 335.45 285.22 308.21 350.95 308.21 354.82 335.45"/><polygon class="cls-6" points="343.28 269.69 310.91 269.69 222.81 123.17 255.18 123.17 343.28 269.69"/><polygon class="cls-6" points="413.39 269.69 381.02 269.69 292.92 123.17 325.28 123.17 413.39 269.69"/><rect class="cls-7" x="51.82" y="341.11" width="539.18" height="6.13"/><rect class="cls-7" x="279.96" y="168.72" width="140.09" height="77.92" rx="7.46"/><rect class="cls-8" x="284.73" y="181.57" width="130.56" height="60.1"/><rect class="cls-9" x="290.12" y="190.69" width="52.94" height="2.07"/><rect class="cls-9" x="290.12" y="195.66" width="52.94" height="2.07"/><rect class="cls-9" x="290.12" y="200.64" width="52.94" height="2.07"/><rect class="cls-9" x="290.12" y="205.61" width="52.94" height="2.07"/><rect class="cls-9" x="290.12" y="210.58" width="52.94" height="2.07"/><rect class="cls-9" x="290.12" y="219.49" width="25.84" height="2.07"/><rect class="cls-9" x="290.12" y="222.95" width="25.84" height="2.07"/><rect class="cls-9" x="290.12" y="226.41" width="25.84" height="2.07"/><rect class="cls-9" x="290.12" y="229.87" width="25.84" height="2.07"/><rect class="cls-9" x="317.21" y="219.49" width="25.84" height="2.07"/><rect class="cls-9" x="317.21" y="222.95" width="25.84" height="2.07"/><rect class="cls-9" x="317.21" y="226.41" width="25.84" height="2.07"/><rect class="cls-9" x="317.21" y="229.87" width="25.84" height="2.07"/><circle class="cls-10" cx="290.12" cy="175.87" r="1.97"/><path class="cls-10" d="M300.48,175.87a2,2,0,1,1-2-2A2,2,0,0,1,300.48,175.87Z"/><circle class="cls-10" cx="306.9" cy="175.87" r="1.97"/><rect class="cls-10" x="354.36" y="187.79" width="19.07" height="46.42"/><rect class="cls-11" x="382.13" y="189.03" width="19.07" height="23.21"/><rect class="cls-11" x="382.13" y="215.56" width="19.07" height="16.87"/><rect class="cls-7" x="508.48" y="201.86" width="57.3" height="112.14" rx="9.61"/><rect class="cls-12" x="510.83" y="211.26" width="52.6" height="91.94"/><rect class="cls-13" x="530.64" y="206.56" width="12.98" height="1.12"/><circle class="cls-10" cx="537.13" cy="308.23" r="3.53"/><rect class="cls-11" x="518.3" y="229.21" width="12.34" height="56.04"/><rect class="cls-9" x="539" y="233.98" width="17.75" height="17.75"/><rect class="cls-9" x="539" y="261.67" width="17.75" height="17.75"/><rect class="cls-7" x="428.56" y="238.94" width="57.93" height="57.93" rx="7.64"/><rect class="cls-11" x="433.13" y="250.44" width="48.79" height="40.27"/><path class="cls-9" d="M463.86,261.91a6.51,6.51,0,1,1-6.5-6.51A6.5,6.5,0,0,1,463.86,261.91Z"/><path class="cls-9" d="M456.11,269.6h2.83a10.89,10.89,0,0,1,10.89,10.89v5.92a0,0,0,0,1,0,0H445.22a0,0,0,0,1,0,0v-5.92A10.89,10.89,0,0,1,456.11,269.6Z"/><path class="cls-14" d="M436,245a1.45,1.45,0,1,1-1.45-1.45A1.45,1.45,0,0,1,436,245Z"/><path class="cls-14" d="M441.42,245a1.46,1.46,0,1,1-1.46-1.45A1.45,1.45,0,0,1,441.42,245Z"/><path class="cls-14" d="M446.8,245a1.45,1.45,0,1,1-1.45-1.45A1.45,1.45,0,0,1,446.8,245Z"/><path class="cls-4" d="M53.2,236.85l7.36-1.95L57.94,225l-7.36,2a18.74,18.74,0,0,0-2.75-3.6l3.82-6.59-8.81-5.11L39,218.28a19.2,19.2,0,0,0-4.49-.6l-2-7.36-9.85,2.62,2,7.36a19.06,19.06,0,0,0-3.6,2.75l-6.59-3.82L9.37,228,16,231.87a18.61,18.61,0,0,0-.61,4.48l-7.36,2,2.62,9.85L18,246.21a19.06,19.06,0,0,0,2.75,3.6l-3.82,6.58,8.81,5.12,3.83-6.59a18.62,18.62,0,0,0,4.49.6L36,262.89l9.85-2.62-1.95-7.36a19.06,19.06,0,0,0,3.6-2.75L54.07,254l5.11-8.82-6.59-3.82A18.69,18.69,0,0,0,53.2,236.85Zm-16.78,7.83a8.36,8.36,0,1,1,5.93-10.22A8.36,8.36,0,0,1,36.42,244.68Z"/><path class="cls-4" d="M624.3,108.93l15.44-4.1-5.49-20.67-15.44,4.1A39.3,39.3,0,0,0,613,80.71l8-13.82L602.57,56.16l-8,13.82a39.52,39.52,0,0,0-9.42-1.26L581,53.28l-20.67,5.48,4.1,15.45A40,40,0,0,0,556.91,80L543.1,72l-10.74,18.5,13.82,8a39.45,39.45,0,0,0-1.26,9.42L529.48,112,535,132.65l15.44-4.1a39.3,39.3,0,0,0,5.77,7.55l-8,13.82,18.49,10.74,8-13.82a39.52,39.52,0,0,0,9.42,1.26l4.1,15.44,20.67-5.49-4.1-15.44a39.61,39.61,0,0,0,7.55-5.77l13.82,8,10.73-18.5-13.82-8A39.52,39.52,0,0,0,624.3,108.93Zm-35.19,16.41a17.52,17.52,0,1,1,12.44-21.43A17.52,17.52,0,0,1,589.11,125.34Z"/><path class="cls-10" d="M536.38,168.82l9.1-2.42-3.24-12.18-9.1,2.42a23.2,23.2,0,0,0-3.4-4.45l4.73-8.14-10.9-6.33-4.72,8.15a23.42,23.42,0,0,0-5.55-.75l-2.42-9.1-12.18,3.24,2.42,9.1a23.2,23.2,0,0,0-4.45,3.4L488.53,147l-6.33,10.9,8.14,4.72a23.41,23.41,0,0,0-.74,5.55l-9.1,2.42,3.24,12.18,9.1-2.42a23.56,23.56,0,0,0,3.39,4.45L491.51,193l10.9,6.33,4.72-8.14a23.41,23.41,0,0,0,5.55.74l2.42,9.1,12.18-3.24-2.42-9.09a24,24,0,0,0,4.45-3.4l8.14,4.72,6.33-10.9-8.15-4.72A23.42,23.42,0,0,0,536.38,168.82Zm-20.74,9.67A10.33,10.33,0,1,1,523,165.86,10.33,10.33,0,0,1,515.64,178.49Z"/><path class="cls-4" d="M556.36,32.87,561,31.64l-1.65-6.22-4.65,1.23A12.1,12.1,0,0,0,553,24.38l2.42-4.16L549.82,17l-2.42,4.16a11.56,11.56,0,0,0-2.83-.38l-1.24-4.65-6.22,1.65,1.24,4.65a11.46,11.46,0,0,0-2.28,1.74l-4.16-2.42-3.23,5.57,4.16,2.41a11.71,11.71,0,0,0-.38,2.84l-4.65,1.23L529.47,40l4.64-1.24a11.88,11.88,0,0,0,1.74,2.27l-2.41,4.16L539,48.45l2.41-4.17a12.22,12.22,0,0,0,2.83.39l1.24,4.64,6.22-1.65L550.48,43a12,12,0,0,0,2.27-1.73l4.16,2.41,3.23-5.57L556,35.71A11.71,11.71,0,0,0,556.36,32.87Zm-10.59,4.94a5.27,5.27,0,1,1,3.74-6.45A5.27,5.27,0,0,1,545.77,37.81Z"/><path class="cls-9" d="M580.09,70.51a11.61,11.61,0,0,0-21.08-1,10.85,10.85,0,0,0-14.73-5,17.84,17.84,0,0,0-23.44-9.36,26.11,26.11,0,0,0-52.15,1.55,21.15,21.15,0,0,0-34.91,6.61,13.73,13.73,0,0,0-22.28,7.18,13.4,13.4,0,0,0-.41,3.25,13.58,13.58,0,0,0,1.83,6.82H579.46a11.53,11.53,0,0,0,1.5-5.69A11.41,11.41,0,0,0,580.09,70.51Z"/><path class="cls-4" d="M266.76,38a11.15,11.15,0,0,0-20.24-.91,10.43,10.43,0,0,0-14.15-4.84,17.12,17.12,0,0,0-15.74-10.37,16.93,16.93,0,0,0-6.76,1.4,25.06,25.06,0,0,0-50.06,1.48,20.32,20.32,0,0,0-33.53,6.35A13.18,13.18,0,0,0,104.89,38a13.33,13.33,0,0,0-.38,3.12,13.08,13.08,0,0,0,1.75,6.55H266.15a11.11,11.11,0,0,0,1.43-5.46A11.32,11.32,0,0,0,266.76,38Z"/><path class="cls-9" d="M222.81,67.71a11.15,11.15,0,0,0-20.24-.92A10.44,10.44,0,0,0,188.42,62a17.13,17.13,0,0,0-22.5-9,25.06,25.06,0,0,0-50.06,1.49,20.32,20.32,0,0,0-33.53,6.34,13.17,13.17,0,0,0-21.39,6.9,13.33,13.33,0,0,0-.38,3.12,13.11,13.11,0,0,0,1.75,6.55H222.2a11.17,11.17,0,0,0,.61-9.67Z"/><path class="cls-9" d="M150.13,187.08a10.32,10.32,0,0,0-18.73-.84,9.66,9.66,0,0,0-8.73-5.52,9.54,9.54,0,0,0-4.36,1.05,15.84,15.84,0,0,0-20.82-8.31,23.19,23.19,0,0,0-46.32,1.38,18.79,18.79,0,0,0-31,5.86A12.19,12.19,0,0,0,.36,187.08,12,12,0,0,0,1.62,196h148a10.26,10.26,0,0,0,.56-8.95Z"/><path class="cls-10" d="M293.89,42.78l5.76-1.53-2-7.71-5.76,1.53a14.43,14.43,0,0,0-2.15-2.81l3-5.15-6.89-4-3,5.16a14.29,14.29,0,0,0-3.52-.47L277.76,22l-7.71,2,1.53,5.76A14.91,14.91,0,0,0,268.76,32l-5.15-3-4,6.9,5.15,3a15.22,15.22,0,0,0-.47,3.51l-5.76,1.53,2.05,7.71,5.76-1.53a14.43,14.43,0,0,0,2.15,2.81l-3,5.16,6.89,4,3-5.16a14.79,14.79,0,0,0,3.52.48l1.52,5.75,7.71-2-1.53-5.76a14.91,14.91,0,0,0,2.82-2.15l5.15,3,4-6.9-5.15-3A15.15,15.15,0,0,0,293.89,42.78ZM280.77,48.9a6.53,6.53,0,1,1,4.64-8A6.54,6.54,0,0,1,280.77,48.9Z"/><path class="cls-10" d="M126,286.89l9.83-2.62-3.5-13.16-9.83,2.61a25.49,25.49,0,0,0-3.67-4.81l5.1-8.8-11.78-6.83-5.1,8.8a25.07,25.07,0,0,0-6-.8l-2.61-9.84-13.17,3.5,2.62,9.83a25.27,25.27,0,0,0-4.81,3.67l-8.8-5.1-6.84,11.78,8.8,5.11a24.92,24.92,0,0,0-.8,6l-9.84,2.61L69.1,302l9.83-2.61a25.16,25.16,0,0,0,3.68,4.8L77.5,313l11.78,6.83,5.11-8.8a25,25,0,0,0,6,.8l2.62,9.84,13.16-3.5-2.61-9.83a25.54,25.54,0,0,0,4.81-3.68l8.8,5.11L134,298l-8.8-5.11A25,25,0,0,0,126,286.89Zm-22.42,10.45a11.16,11.16,0,1,1,7.92-13.65A11.16,11.16,0,0,1,103.58,297.34Z"/><polyline class="cls-15" points="147.17 111.16 124.13 111.16 124.13 284.24 170.19 284.24"/><polyline class="cls-15" points="110.97 168.51 75.45 168.51 75.45 212.83 110.97 212.83"/><rect class="cls-11" x="107.75" y="193.87" width="140.37" height="37.91" transform="translate(355.87 425.66) rotate(180)"/><rect class="cls-9" x="149.44" y="201.9" width="88.12" height="4.17" transform="translate(387.01 407.97) rotate(180)"/><rect class="cls-9" x="149.44" y="210.24" width="88.12" height="4.17" transform="translate(387.01 424.64) rotate(180)"/><rect class="cls-9" x="149.52" y="218.4" width="45.93" height="4.34" transform="translate(344.97 441.14) rotate(180)"/><rect class="cls-9" x="116.2" y="200.69" width="23.23" height="23.23" transform="translate(255.62 424.6) rotate(180)"/><rect class="cls-10" x="107.75" y="150.08" width="140.37" height="37.91" transform="translate(355.87 338.08) rotate(180)"/><rect class="cls-9" x="149.44" y="158.11" width="88.12" height="4.17" transform="translate(387.01 320.39) rotate(180)"/><rect class="cls-9" x="149.44" y="166.44" width="88.12" height="4.17" transform="translate(387.01 337.06) rotate(180)"/><rect class="cls-9" x="149.52" y="174.61" width="45.93" height="4.34" transform="translate(344.97 353.55) rotate(180)"/><rect class="cls-9" x="116.2" y="156.9" width="23.23" height="23.23" transform="translate(255.62 337.02) rotate(180)"/><polyline class="cls-15" points="170.19 90.08 170.19 74.62 300.42 74.62 300.42 102.73"/><rect class="cls-7" x="271.62" y="102.73" width="57.93" height="57.93" rx="7.64"/><rect class="cls-10" x="276.19" y="114.24" width="48.79" height="40.27"/><path class="cls-9" d="M306.92,125.7a6.51,6.51,0,1,1-6.5-6.51A6.5,6.5,0,0,1,306.92,125.7Z"/><path class="cls-9" d="M299.16,133.39H302a10.89,10.89,0,0,1,10.89,10.89v5.92a0,0,0,0,1,0,0H288.28a0,0,0,0,1,0,0v-5.92A10.89,10.89,0,0,1,299.16,133.39Z"/><path class="cls-14" d="M279.09,108.76a1.45,1.45,0,1,1-1.45-1.45A1.45,1.45,0,0,1,279.09,108.76Z"/><path class="cls-14" d="M284.47,108.76a1.45,1.45,0,1,1-1.45-1.45A1.45,1.45,0,0,1,284.47,108.76Z"/><circle class="cls-14" cx="288.41" cy="108.76" r="1.45"/><rect class="cls-7" x="147.17" y="88.07" width="49.58" height="49.58" rx="6.53"/><rect class="cls-16" x="151.09" y="97.92" width="41.75" height="34.46"/><circle class="cls-14" cx="152.33" cy="93.23" r="1.24"/><path class="cls-14" d="M158.18,93.23A1.25,1.25,0,1,1,156.93,92,1.25,1.25,0,0,1,158.18,93.23Z"/><circle class="cls-14" cx="161.54" cy="93.23" r="1.24"/><polygon class="cls-7" points="164.38 124.76 155.61 116 164.5 107.11 165.99 108.6 158.59 116 165.87 123.27 164.38 124.76"/><polygon class="cls-7" points="179.42 124.76 177.94 123.27 185.33 115.88 178.06 108.6 179.54 107.11 188.31 115.88 179.42 124.76"/><rect class="cls-7" x="163.58" y="115.22" width="16.76" height="2.11" transform="translate(-1.29 230.62) rotate(-67.49)"/><line class="cls-15" x1="196.75" y1="94.61" x2="359.44" y2="94.61"/><rect class="cls-7" x="358.51" y="72.2" width="140.09" height="77.92" rx="7.46"/><rect class="cls-8" x="363.28" y="85.04" width="130.56" height="60.1"/><circle class="cls-10" cx="368.67" cy="79.35" r="1.97"/><path class="cls-10" d="M379,79.35a2,2,0,1,1-2-2A2,2,0,0,1,379,79.35Z"/><circle class="cls-10" cx="385.45" cy="79.35" r="1.97"/><text class="cls-17" transform="translate(374.93 129.94)">CMS</text><path class="cls-15" d="M394.94,148.22c-.2.6,0,26.74,0,26.74"/><polyline class="cls-15" points="418 211.62 443.9 211.62 443.9 238.94"/><polyline class="cls-15" points="458.71 294.04 458.71 325.94 598.9 325.94 598.9 262.88 565.78 262.88"/><polyline class="cls-15" points="509.45 226.41 472.95 226.41 472.95 149.03"/><path class="cls-7" d="M244.94,249.29l-14.86-12L242,218.57c-7.25-.58-16.84,1.59-21.51,7.36-6.65,8.21-6.07,20,.67,28.66L159.2,327.74a8,8,0,1,0,12.48,10.11l58.67-75.77c9.82,4.81,21.54,2.89,28.19-5.32,4.66-5.77,4.31-15.58,2.23-22.55Zm-78.18,87.15a4,4,0,1,1,2.69-5A4,4,0,0,1,166.76,336.44Z"/><path class="cls-18" d="M163.32,338.16a8,8,0,0,1-1.19-11.29l61.94-73.16c-6.74-8.6-7.32-20.45-.67-28.66,2.44-3,6.66-4.69,10.13-6-4.63,1-9.95,3-13.07,6.86-6.65,8.21-6.07,20.06.67,28.67L159.2,327.74a8,8,0,0,0,10,12.17A8,8,0,0,1,163.32,338.16Z"/><polygon class="cls-19" points="285.22 308.21 350.95 308.21 353.15 323.72 283.05 323.72 285.22 308.21"/></g></g></svg>