<svg xmlns="http://www.w3.org/2000/svg" viewBox="0 0 2266.32 1610.44"><defs><style>.cls-1{fill:#cfddf9;}.cls-2{fill:#d4e8ff;}.cls-3{fill:#dce6ff;}.cls-4{fill:#eef7ff;}.cls-5{fill:#9358e0;}.cls-6{fill:#fcb4b4;}.cls-7{fill:#8a9edd;}.cls-8{fill:#255084;}.cls-9{fill:#1d3f70;}.cls-10{fill:#fff;}.cls-11{fill:#b0c7f5;}.cls-12{fill:#677cc1;}.cls-13{fill:#bfd2f9;}.cls-14{fill:#eb5648;}.cls-15{fill:#ce3932;}.cls-16{fill:#f99370;}.cls-17{fill:#e57d61;}.cls-18{fill:#7640cc;}.cls-19{fill:#8c4225;}.cls-20{fill:#c16256;}.cls-21{fill:#163356;}.cls-22{fill:#306599;}.cls-23{fill:#647dbc;}</style></defs><g id="Layer_2" data-name="Layer 2"><g id="Ñëîé_1" data-name="Ñëîé 1"><g id="_12" data-name="12"><path id="_13" data-name="13" class="cls-1" d="M37.54,1418.18s-15.28,44.61,48,55.78c86.56,15.28,576,56.27,452.56,86.77-69.69,17.22,54.26,39.75,393.66,48.36s921.8-25.12,726-75,602.09-12,553.49-115.87Z"/><path class="cls-2" d="M420.2,1417.6s-246-652.45-61.56-791.26C481.94,533.55,602.33,767.15,758.33,659,897.22,562.61,803.56,332.3,943.53,229,1161.21,68.4,1387.64,758.19,1582.81,655.4c307-161.7,494.69,93.38,281.5,763.39Z"/><path class="cls-3" d="M219.62,1366.23c-4.31-11.92-8.57-24.28-12.66-36.72l10.09-2.71c4.07,12.36,8.3,24.63,12.57,36.47Zm1804.89-15.4-10.44-1.16c1.73-12.69,3.38-25.47,4.89-38l10.46,1C2027.91,1325.28,2026.25,1338.1,2024.51,1350.83Zm-1829.17-58.3c-3.68-12.29-7.26-24.81-10.62-37.22l10.22-2.26c3.35,12.33,6.9,24.78,10.56,37Zm1838.39-18-10.47-.9c1.33-12.74,2.56-25.55,3.66-38.09l10.49.75C2036.31,1248.89,2035.07,1261.75,2033.73,1274.54ZM175.1,1217.88c-3-12.53-5.93-25.19-8.59-37.65l10.33-1.8c2.65,12.37,5.52,25,8.54,37.41ZM2040.43,1198l-10.5-.6c.89-12.74,1.67-25.58,2.32-38.17l10.52.44C2042.11,1172.34,2041.33,1185.23,2040.43,1198ZM159,1142.4c-2.34-12.68-4.5-25.46-6.44-38l10.43-1.31c1.92,12.45,4.07,25.15,6.39,37.75Zm1885.41-21.07-10.52-.28c.41-12.79.69-25.64.84-38.21l10.53.1C2045.07,1095.56,2044.79,1108.48,2044.37,1121.33ZM147.24,1066.25c-1.57-12.81-2.93-25.69-4.06-38.28l10.49-.77c1.12,12.5,2.47,25.29,4,38Zm1887.5-21.63c-.13-12.79-.4-25.65-.8-38.2l10.52-.28c.41,12.62.68,25.54.8,38.4Zm-1894.32-55c-.7-12.88-1.16-25.81-1.38-38.44l10.53-.14c.21,12.52.67,25.34,1.36,38.12Zm1891.82-21.32c-.72-12.78-1.61-25.61-2.64-38.12l10.5-.71c1,12.59,1.93,25.49,2.66,38.34ZM149.67,912.86l-10.52-.19c.29-12.92.85-25.86,1.68-38.45l10.5.56C150.52,887.25,150,900.07,149.67,912.86ZM2026,892.1c-1.4-12.78-3-25.54-4.73-37.93l10.44-1.2c1.75,12.48,3.35,25.33,4.77,38.19ZM154.67,836.79l-10.47-.95c1.43-12.87,3.17-25.73,5.18-38.22L159.79,799C157.81,811.34,156.08,824.06,154.67,836.79Zm1860.66-20.41c-2.19-12.7-4.6-25.35-7.15-37.6l10.35-1.76c2.57,12.34,5,25.09,7.2,37.89ZM770.48,815c-14.63-2.08-25.21-8.1-39.86-18.49l6.65-7.38c12.84,9.08,22.11,14.53,34.33,16.41ZM807,792.39l-9.38-4.32c4.82-8.53,9.08-20.37,12.66-35.18l10.29,2C816.74,770.75,812.3,783,807,792.39ZM699.73,769.25c-8.39-8.44-17.35-18.16-27.4-29.7l8.28-5.89c9.9,11.38,18.72,20.94,26.95,29.23Zm-532.9-7.81-10.34-1.81c2.73-12.7,5.81-25.36,9.17-37.64l10.22,2.29C172.56,736.4,169.52,748.9,166.83,761.44Zm1832.84-20c-3.11-12.57-6.47-25-10-37l10.18-2.44c3.55,12.12,6.94,24.7,10.08,37.38Zm-1172-24.8-10.44-1.22c1.62-11.36,3.06-23.79,4.43-38l10.48.82C830.75,692.57,829.28,705.14,827.65,716.63Zm-181.1-7.74c-8.55-10.44-17.43-21.49-25.07-31l8.52-5.59c7.63,9.51,16.49,20.53,25,30.94Zm770.61-.78a47.85,47.85,0,0,1-23.9-6.58l5.61-8c11.51,6.57,22.84,6.58,35.07,1.34l4.53,8.59A53.8,53.8,0,0,1,1417.16,708.11ZM187.08,687.61,177,684.83c4.18-12.37,8.77-24.66,13.64-36.55l9.87,3.3C195.72,663.3,191.2,675.42,187.08,687.61Zm1285.81-9.07-7.74-6.46a329.31,329.31,0,0,0,26.16-29.46l8.53,5.57A340.41,340.41,0,0,1,1472.89,678.54ZM1363.33,672a287.18,287.18,0,0,1-20.64-34.2l9.52-4.07a277.82,277.82,0,0,0,20,33.1Zm614.72-4.21c-4.24-12.33-8.76-24.46-13.45-36.07l9.89-3.26c4.74,11.75,9.32,24,13.61,36.51ZM596.53,646.86c-9.63-11.9-17.65-21.67-25.25-30.74l8.39-5.75c7.63,9.12,15.69,18.93,25.36,30.87Zm238.76-7.08-10.5-.61c.8-11.15,1.61-23.68,2.48-38.31l10.51.52C836.91,616,836.09,628.6,835.29,639.78Zm-619-23.42-9.63-3.84q8.67-17.74,18.48-34.81l9.33,4.4Q224.82,598.88,216.3,616.36Zm1307.65,0-8.8-5.23c7.48-10.28,15.21-21.17,23-32.17l8.86,5.14C1539.2,595.13,1531.46,606,1524,616.36Zm-198.2-14.07c-4.77-10.81-9.69-22.61-15.06-36.06l9.9-3.23c5.33,13.35,10.21,25,14.94,35.76Zm623.37-5.94c-5.66-11.91-11.64-23.49-17.79-34.4l9.38-4.32c6.25,11.1,12.33,22.86,18.08,35ZM545.29,586c-9.55-10.72-18.44-20.26-27.18-29.16l7.87-6.32c8.85,9,17.85,18.67,27.5,29.51ZM840,563l-10.51-.48c.71-12.71,1.41-25.43,2.16-38.37l10.51.5C841.38,537.58,840.68,550.29,840,563Zm730.14-11-8.78-5.24c8.8-12,16.66-22.44,24.05-31.81l8.57,5.51C1586.64,529.71,1578.84,540,1570.11,552ZM255.35,549.28l-8.87-5.12a298,298,0,0,1,25.35-31.44l8,6.14A288,288,0,0,0,255.35,549.28Zm1041.28-19.36c-4.82-12.79-9.56-25.58-13.55-36.41l10-3c4,10.81,8.72,23.59,13.54,36.35Zm-807.46-.67a355.68,355.68,0,0,0-31.44-24.86l6.42-7.54a364.76,364.76,0,0,1,32.36,25.59Zm1421.72-.4a390,390,0,0,0-23.5-31.28l8.39-5.74c8.26,9.88,16.37,20.66,24.09,32ZM309.39,493,303,485.41a129.62,129.62,0,0,1,38.88-18.58l3.08,9.1A118.73,118.73,0,0,0,309.39,493Zm1309.95-2.92-8.18-6a388,388,0,0,1,28.6-29l7.44,6.72A379.93,379.93,0,0,0,1619.34,490.06Zm-774.85-3.74-10.5-.56c.91-13.83,1.81-26.39,2.76-38.4l10.5.68C846.3,460,845.4,472.53,844.49,486.32Zm-421.56-2a134.48,134.48,0,0,0-38.4-11.21L386,463.7a145.76,145.76,0,0,1,41.66,12.11ZM1860.31,469a242.34,242.34,0,0,0-31.18-24.62l6.19-7.69a252,252,0,0,1,32.52,25.66ZM1269.65,457.1c-5.24-14.16-9.55-25.7-13.58-36.33l10-3.08c4,10.65,8.36,22.21,13.6,36.39Zm409-19.55-6-7.8a154.87,154.87,0,0,1,38.86-18l3.25,9A144,144,0,0,0,1678.7,437.55Zm114.85-11.66a144.07,144.07,0,0,0-39.22-9.14l1-9.48a155.86,155.86,0,0,1,42.33,9.85ZM850.62,409.84,840.13,409c1.31-13.35,2.74-26.25,4.24-38.33l10.46,1.07C853.34,383.74,851.92,396.56,850.62,409.84Zm391.44-25.26c-5.08-12.83-9.87-24.56-14.65-35.86l9.83-3.4c4.8,11.36,9.62,23.16,14.73,36.05ZM860.19,333.8l-10.41-1.36c2.12-13.32,4.46-26.14,7-38.08l10.35,1.76C864.62,307.93,862.3,320.61,860.19,333.8Zm351.58-20.61c-5.65-12.3-11.35-24.06-16.94-35l9.55-4c5.65,11,11.41,22.9,17.11,35.32ZM876,258.88l-10.21-2.3c3.67-13.29,7.72-25.8,12-37.2l10,3.08C883.58,233.6,879.61,245.86,876,258.88Zm300.13-14.81c-6.93-11.79-14-22.85-21-32.89l8.89-5.08c7.17,10.24,14.37,21.51,21.42,33.51ZM903.6,187.6l-9.44-4.21a186.61,186.61,0,0,1,22.78-33.27l8.27,5.88A178.09,178.09,0,0,0,903.6,187.6ZM1131,180.32a244.22,244.22,0,0,0-28.21-27.44l7.06-7a253.69,253.69,0,0,1,29.38,28.56Zm-176.42-49-5.67-8a111.72,111.72,0,0,1,40.83-13.94l1.6,9.4A100.85,100.85,0,0,0,954.57,131.34Zm115,0a136.18,136.18,0,0,0-38-12.15l1.84-9.36A147.16,147.16,0,0,1,1074.56,123Z"/><path class="cls-4" d="M2097.56,1140.78c-87.34-12.17-79.44,170.67-203.94,170.67C1779.78,1311.45,1718.87,903,1594,986c-502.2,334-111.45-234.37-449.14-245.48-152.69-5-254.44,148-292,418.86-54.38,244.89-180.52-186.79-310.32-146.65-82.5,25.51-73,298.69-186.88,298.69-124.51,0-116.31-153.75-203.65-141.58C58,1183,36.73,1421.35,36.73,1421.35H2212.45S2191.61,1153.87,2097.56,1140.78Z"/><path class="cls-3" d="M2013.87,1332.68c-80.36-5.19-67.25,41.74-181.79,41.74-104.72,0-101.85-105.19-171.93-127.54-129.06-41.17-235.45,167.19-285.49,62.62-95-277.48-372.19-416.63-500.06,0-50,104.57-167-82-285.49-62.62-72.91,11.94-67.2,127.54-171.93,127.54-114.54,0-101.43-46.93-181.78-41.74-86.52,5.59-112.36,88.67-112.36,88.67H2126.22S2100.38,1338.27,2013.87,1332.68Z"/></g><path id="_11" data-name="11" class="cls-5" d="M1447.34,654.09c.27-95.87-11.41-184.08-27.78-260.44-3.61,11-35.91,42.68-42.9,35.91-7.74-7.7,30.67-46.93,40.74-45.78q-1.73-7.75-3.51-15.36c-3.89,10.37-42.9,39-49.2,30.94-6.46-8.8,37.5-41.64,47.28-39q-2.31-9.57-4.71-18.85c-4.56,10.34-42.52,37.91-48.63,30-6.27-8.73,36-40.42,46.28-39-1.64-6.17-3.29-12.27-5-18.23-3.14,9.9-49.92,34.36-55.08,24.93-5.09-9.75,44.63-35.64,53.41-30.77-1.64-5.76-3.3-11.43-5-17-4.83,9.72-49,32.5-54.08,23.4-4.77-9.61,41.72-34,51.74-31.07q-3.07-10-6.15-19.45c-5.13,9.68-48.84,32.12-53.83,23.08-4.7-9.53,40.91-33.55,51.2-31.09-1.62-4.85-3.23-9.58-4.84-14.23-5.72,9-54.3,24.59-57.8,14.62-3-10.09,45.11-26,55.15-22.21-2.33-6.61-4.57-12.82-6.92-19.12-6.48,8.75-53.69,23.75-57.13,13.95-3-9.86,43.37-25.36,54-22.37q-2.73-7.19-5.45-14.08c-6,8.31-59.6,13.64-60.82,2.88-.76-10.36,48.46-15.57,57.93-10.16q-3.4-8.48-6.75-16.49c-6.34,8.15-59.37,13.4-60.61,2.68-.77-10.24,47.58-15.47,57.37-10.35q-3.66-8.58-7.22-16.58c-9.36,6.42-55.83,10.28-56.93.39-1.19-9,40.31-14.73,51.86-11.63q-3.56-7.78-7-14.93c-8.94,6-59.23,2.06-58.72-8.43.43-9.16,42.7-7.6,53.46-2.48q-3.16-6.47-6.11-12.28c-7.36,7-61.54-.51-60.13-11.32,1.31-9.5,45.46-4.44,55.28,1.85-3-5.86-5.85-11.1-8.35-15.68-8.58,6-60.27-1.28-59-11.9.91-8.95,42.19-4.88,52.78.76-2.32-4.08-4.13-7.12-5.31-9.08-10.37-3.17-40-43.23-31.8-49.67,3.89-2.91,15.48,6,25.89,19.9,12.64,16.12,10.14,22.57,18.41,35.43-1-12,10.82-51.12,19.29-48.51,10.64,2.74-3.28,56.86-12.74,60.27q3.48,6.39,7.65,14.36c.82-11.76,21.45-49.81,29.74-45.46,9.59,5-14.58,53-24.49,55.7q3.47,6.86,7.23,14.6c1.93-11.66,25.68-47.55,33.51-42.5,9,5.81-18.35,50.23-28.46,53q3.39,7.17,6.95,15c2.7-11.42,30-45.67,37.44-39.91,8.35,6.58-22.52,47.93-32.86,50.11q3.22,7.28,6.54,15c3.4-10.95,36-43.09,43.06-36.28,7.45,7.62-28.67,44.77-39.18,45.47q3,7.09,6,14.54c3.76-10.38,43-39.18,49.29-31.1,6.24,8.72-35.83,40.29-46.16,38.95q3.07,7.79,6.16,15.92c3.19-10.38,43.21-40,49.65-31.78,6.4,8.78-37,41.23-47,39,2.21,5.92,4.31,11.76,6.5,17.93,3.89-10.37,42.9-39,49.2-30.93,6.29,8.74-36.14,40.54-46.38,39q2.28,6.56,4.56,13.37c5.85-9.54,48.32-31.12,53.17-22.24,4.61,9.38-39.54,32.8-50.24,31.12q2.7,8.24,5.38,16.83c5.24-9.67,48.76-32,53.74-23,4.7,9.53-41,33.58-51.24,31.09q2.67,8.76,5.3,17.88c4.16-9.81,49.42-33.29,54.53-24.05,4.9,9.68-43.06,34.74-52.55,30.95,1.58,5.6,3.15,11.31,4.7,17.09,5.84-9.15,52.25-27.06,56.29-17.46,3.64,10-44.17,28.91-54.17,25.42,1.62,6.22,3.22,12.56,4.8,19,4-9.54,53.42-29,57.54-19,3.92,10.21-47.5,30.33-56.08,25q2.45,10.14,4.77,20.6c5.66-8.77,56.66-20.95,59.37-10.58,2.28,10.48-48.89,22.8-57.83,17.46,17,77.84,29.15,168.14,28.87,266.43Z"/><path id="_10" data-name="10" class="cls-6" d="M1349.24,713.7c69-81.09,122.3-164.24,163.17-240.72-10.92,6.71-61.05,10.44-62.11-.31-1-12.08,59.64-17.8,67.35-9.6q4.11-7.83,8-15.55c-10.74,6-64.33,2.3-63.89-9,.83-12.09,61.64-8.41,68,.87q4.89-9.78,9.52-19.36c-11.29,5.51-63.23,1.66-62.74-9.43,1-11.9,59.5-8.47,67.17.14,3-6.4,6-12.76,8.86-19-9.76,6.14-67-6.67-64.58-18.36,2.68-11.91,63.39,1.78,67.35,12.21q4.1-9.09,7.95-18c-11.06,4.78-64.88-7.6-62.62-18.93,2.84-11.56,59.75,1.09,66.13,10.76q4.55-10.65,8.73-20.9c-11.29,4.53-64.43-7.79-62.18-19,2.85-11.45,58.74.89,65.7,10.35,2.11-5.27,4.13-10.44,6.1-15.53-11.29,3.51-63.66-18.09-59.48-29,4.69-10.71,56.85,10.33,62.68,20.7,2.75-7.27,5.32-14.14,7.83-21.17-11.77,2.77-62.54-18.36-58.43-29.13,4.57-10.48,55,9.59,61.79,19.72q2.84-8,5.47-15.83c-11,2.73-60.3-31.17-53.62-41.17,6.78-9.33,52.23,21.53,56.39,32.91q3.2-9.61,6.1-18.81c-11.22,2.36-59.93-31.21-53.3-41.18,6.69-9.23,51.42,21,56,32.35q3.06-9.9,5.77-19.23c-68.44-25.88-60.82-73,3.76-13.16q2.57-9.15,4.81-17.64c-11.85-1.38-51.69-40.73-43.74-49.25,6.93-7.46,41.64,24.16,47.1,36.21q2-7.74,3.63-14.78c-11.26.64-51.81-44.56-42.87-52.71,7.92-7.11,41.72,28.82,45.54,41.2,1.62-7.15,3-13.61,4.16-19.28-11.58-1.05-50.17-44.29-41.49-52.39,7.19-6.94,39.27,26.11,44.2,38.49,1-5.15,1.61-9,2-11.51-6.52-10.13-2.91-65.32,8.65-64.91,5.38.32,8.82,16.18,7.68,35.43-.84,22.73-7.59,26.41-9.79,43.23,7.73-10.91,45.82-35.58,51.13-27.28,7.06,10-43.56,45.85-54,42q-1.63,7.92-3.82,17.67c9.13-9.39,53.91-26.86,57.82-17.23,4.53,11.14-50.38,34.49-60.71,29.66-1.32,5.54-2.75,11.39-4.33,17.57,10-8.51,55.86-21.89,58.88-12,3.43,11.36-51.58,29.44-62.15,24.55q-2.26,8.52-4.85,17.68c10.48-7.74,58.14-17.25,60.37-7,2.36,11.56-53.46,24.49-63.79,18.92q-2.48,8.47-5.23,17.43c10.74-6.85,61.41-10.73,62.53.11.85,11.79-56.41,17.4-65.83,10.45q-2.56,8.14-5.37,16.61c10.61-6.11,64.52-2.42,64.09,9-1,11.87-59.27,8.47-67.06-.08-2,5.88-4,11.83-6.19,17.92,10.15-6.51,65.29-2.9,64.88,8.66-.87,12-60.94,8.42-67.75-.64-2.35,6.61-4.76,13.06-7.33,19.87,10.73-6,64.33-2.3,63.89,9-.94,11.92-59.71,8.46-67.26-.21q-2.76,7.17-5.72,14.6c11.8-3.9,63.27,8.26,61,19.27-2.82,11.25-57-.55-64.91-9.65q-3.62,8.93-7.5,18.13c11.37-4.44,64.26,7.85,62,19.06-2.84,11.46-58.81-.9-65.72-10.38q-4,9.35-8.33,19c10.56-5.33,65.76,7.21,63.47,18.71-2.79,11.72-61.41-1.42-66.74-11.44-2.67,5.88-5.44,11.85-8.27,17.86,11.52-3.57,63.7,14.53,60.24,25.55-4,11.06-58.17-7.15-64.15-17.28q-4.62,9.66-9.54,19.54c10.23-5.23,66,13.74,62.41,25.14-4,11.47-62-8.34-65.45-19q-5.2,10.34-10.73,20.88c11.09-3.39,63.05,22.86,57.92,33.58-5.58,10.53-57.8-15.71-61.55-26.65C1481.07,551,1426.66,636.28,1356,719.41Z"/><path id="_9" data-name="9" class="cls-7" d="M2023.5,578c7.49,25.6,12.09,48.47,12.69,61.1q11.4-20.22,21.87-37.31c-10.35-9.24-30.45-136.34-18-138.87,11.77-.34,27.85,107.51,24.91,127.77,8-12.71,15.53-24.06,22.57-34.18-10.25-5.29-4-143.48,8.73-142,5.41.28,8.16,32.48,6.14,71.92-1.28,25.14-4.19,47.13-7.53,59.72,9.48-13.12,18-23.86,25.35-32.6-9.31-6.7,23.47-141.85,35.59-137.81,10.85,4-14.74,107.41-25.06,125.84,21.75-22.33,26.64-31.62,65.35-59.48,75.19-54.43,86.92-38.19,11.46,15.92-36.78,28.52-49.85,23.46-74.22,52.75,17-8.33,130.31-20.27,133-8.45,1,12.68-130.24,25-140,16.52-7.72,9.14-16.68,20.52-26.77,34.57,15.54-7.24,134.88-6.94,136.18,5.4-.48,12.71-131.77,10.57-140.83,1.17-7.31,10.42-15.15,22.17-23.48,35.4,17.37-6.59,132.46-6.12,133.84,6C2204,614,2079,611.91,2066.41,603.48c-7.38,11.95-15.11,25-23.17,39.3,17.42-6.57,132.38-6.09,133.77,6-1.35,12.52-125.2,10.48-138.39,2.24q-9.94,17.91-20.51,38.29c16.26-7,134-6.64,135.34,5.63-1.12,12.59-127.2,10.49-139.22,1.91-6.49,12.94-13.54,25.81-20.94,37.67,16.13-5,134.78,13.49,134.16,25.93-2.91,12.32-128.37-9.05-138.28-19.43a373.41,373.41,0,0,1-26.73,36.35c12.47-6,137.64,24,135.22,36.45s-135.95-21.4-138.35-32.75A306.91,306.91,0,0,1,1920,819.51c16.57-.9,127.15,47.94,123.28,59.81-5.72,11.34-123.72-42.83-129.11-55.21a265.34,265.34,0,0,1-47.33,29.21c16.91,2.58,116,69.27,110.21,80.26-7.63,10.15-114.24-63.79-117.43-76.94-43.92,19.29-76.43,18.45-77.83,18.41l.26-7.91c.32,0,31.6.75,73.2-17.23-11.46-11.78-46.33-128-34.77-132.77,12.26-2,44.83,112.19,42.24,129.38a254.8,254.8,0,0,0,45.81-28.17c-11.93-5.39-59-127.81-47.24-132.59,12.17-3.4,55.39,114.22,52,128.87a303.4,303.4,0,0,0,39-37.57c-12.32-4.35-69.11-122.69-57.75-128.39,11.86-4.16,63.47,107.55,62.07,123.33A360.52,360.52,0,0,0,1982,737.48c-11.64-.37-71-124.43-59.11-129.22,11.84-4.41,64.54,109.76,62.16,124.45,7-11.11,14-23.44,20.56-36.39-13-8.44-66.66-120.3-55.8-126.66,11.38-3.67,58.46,97.06,60.87,116.76q10.57-20.48,20.53-38.43c-11.48-6-49.35-132-37.22-135.87C1999.22,510.6,2012.42,540.1,2023.5,578Z"/><path id="_8" data-name="8" class="cls-6" d="M277.38,808.17c1.39,26.63,4.6,49.74,8.2,61.86q-17.43-15.33-33-28c6.72-12.13-16.28-138.74-28.84-137-11.23,3.57,9.22,110.68,18.67,128.83-11.73-9.36-22.59-17.58-32.59-24.81,7.94-8.38-43.65-136.73-55.12-131.12-5,2.05,3,33.35,18,69.92,9.51,23.29,19.52,43.09,26.83,53.87-13.28-9.25-24.84-16.59-34.69-22.4,6.57-9.39-69-126.13-79.11-118.32-8.94,7.31,49.38,96.51,65.21,110.51-27.9-13.9-35.59-21.06-81.33-34.56-88.94-26.55-94.65-7.35-5.56,18.8,44.14,14.78,54.8,5.69,87.48,25.28-18.83-2.24-129.69,23.91-128.32,36,3.25,12.29,131.19-19.43,137.58-30.64,10.31,6.08,22.52,13.86,36.69,23.79-17.06-1.7-129.6,38-126.76,50.08C75.37,872,198.59,826.63,204,814.77c10.34,7.42,21.62,15.92,33.86,25.66-18.58-.49-127.06,38-124.36,49.86,5.31,11.45,122.69-31.82,131.76-43.91,10.9,8.84,22.51,18.61,34.84,29.44-18.61-.45-127,38-124.27,49.85,5.4,11.38,121.63-31.45,131.36-43.58q15.3,13.62,32,29.37c-17.65-1.24-128.66,38-125.89,50,5.22,11.51,123.54-32.11,132-44.17,10.41,10.07,21.31,19.89,32.22,28.64-16.87.63-122.77,57.24-118.08,68.77,6.82,10.68,118.18-50.93,124.11-64a370.71,370.71,0,0,0,37.23,25.49c-13.77-1.59-122,68.11-115.59,79.06S406.52,990.16,405,978.65a307,307,0,0,0,49.83,23.27c-15.94,4.62-104.18,87.25-96.61,97.17,9.14,8.81,102.63-81.29,103.63-94.76a263.92,263.92,0,0,0,54.32,11.94c-15.1,8-86.61,103.7-77.52,112.16,10.56,7.06,86.76-97.93,85.44-111.41,47.81,3.71,78.23-7.82,79.54-8.32l-2.86-7.38c-.3.12-29.58,11.15-74.79,7.91,6.93-14.9,1.46-136.13-11-136.8-12.22,2.19-5.27,120.7,2.86,136.07A254.47,254.47,0,0,1,465.31,997c9.49-9,13.5-140.12.8-140.75-12.6.8-14.56,126.11-6.51,138.8a303.91,303.91,0,0,1-49.18-22.59c10.19-8.18,24.72-138.63,12.11-140.26-12.57,0-24.39,122.48-17.86,136.91A357.82,357.82,0,0,1,369.2,945c10.86-4.19,25.86-140.88,13.11-141.49-12.63-.26-24.68,124.92-17.57,138-10.32-8.17-21-17.49-31.43-27.56,9.44-12.24,23.19-135.57,10.84-138-11.95.3-23.13,110.92-18.9,130.31q-16.74-15.82-32.06-29.49c8.86-9.44,3-140.94-9.74-140.54C278,736.52,275.32,768.73,277.38,808.17Z"/><path id="_7" data-name="7" class="cls-7" d="M337.1,577.25c-4.19-8,67.22-56.71,79.55-58.73a191.57,191.57,0,0,1-34.42-21c-3.66,9-89.31,49-93.43,40.71-2.8-8.63,77.23-44.59,89.25-44a227,227,0,0,1-28.79-27.73C347.83,474.75,250.69,500.08,249,491s89-31.46,98-27.05a267.29,267.29,0,0,1-19.66-26.27c-7.06,7.57-98.11,23.69-100.21,14.75-.42-9,85.39-22.95,97.2-19.43-5.27-8.29-10.57-17.79-15.38-27.23-8.59,6.28-100.18,8.39-101-.74,1-8.9,86.23-9.7,98.14-4.71q-7.75-14.75-15.05-27.68c-9.45,6-99.43,8.1-100.39-1,1-8.8,84.24-9.67,97-5q-8.88-15.48-17-28.39c-9,6.17-99.86,8.26-100.73-.84,1-8.8,84.32-9.68,97-5-6.11-9.56-11.85-18.05-17.2-25.57-6.47,6.86-101.8,9-102.15-.18,1-9,87.35-9.73,98.74-4.56C239,292,232.48,283.76,226.84,277.17c-7,6.19-102.33-2.13-101.61-11.32,2-8.58,84-.47,96.5,5.5-17.78-21.1-27.3-17.42-54.09-37.92-55-38.87-46.57-50.72,8.24-11.59,28.24,20,31.76,26.7,47.68,42.83-7.56-13.24-26.63-88.31-18.77-91.15,8.78-3,33.19,94.87,26.47,99.78,5.4,6.3,11.6,14.06,18.54,23.53-5.28-13.31-10.16-94-1.63-95.48,9.19-1.13,14.41,99,7,102.94,5.16,7.3,10.68,15.5,16.53,24.68-2.24-14.59,8.94-93.06,17.47-92.79,9,1.84-5,94-12.43,100.81q7.68,12.36,16,27c-1.21-13.5,21.26-93.67,30-92.3,8.8,2.76-18,94.26-26.36,98.72q7.3,13,15.07,27.77c1.62-14.22,35.37-87.65,43.6-85C363,317.8,324.6,399,315.21,405.3c4.8,9.36,9.92,18.27,15.08,26.29C328.46,421,366.22,337.83,374.8,341c8.59,3.44-33.82,93.66-42.27,94A260.33,260.33,0,0,0,351.2,460c-1.13-11.36,35.84-92.78,44.44-89.75,8.24,4.14-32.35,90.13-41.29,93.4a220.21,220.21,0,0,0,28.44,27.07c-2.57-10.54,28.29-96.2,37.1-93.72,8.54,3.47-25,92.37-33.64,96.39a184.82,184.82,0,0,0,33.36,20.22c-2-12.37,21.15-95.49,30-94C458,423,433.32,507.31,425,516c30.23,12.83,52.9,12.17,53.18,12.16l.22,5.73c-1,0-24.59.79-56.53-13C419.7,530.41,342.63,584.61,337.1,577.25Z"/><g id="_6" data-name="6"><rect class="cls-8" x="1010.26" y="1224.82" width="228.75" height="213.66"/><rect class="cls-9" x="1010.26" y="1092.29" width="228.75" height="256.49"/><rect class="cls-8" x="624.18" y="60.72" width="1000.9" height="1501.43" rx="64.77" transform="translate(1936.07 -313.19) rotate(90)"/><rect class="cls-10" x="432.71" y="369.78" width="1383.85" height="813.43"/><circle class="cls-9" cx="1124.63" cy="1248.39" r="34.35" transform="translate(-553.35 1160.88) rotate(-45)"/><rect class="cls-9" x="873.6" y="1438.48" width="502.07" height="55.54" rx="27.77"/></g><g id="_5" data-name="5"><rect class="cls-11" x="1325.82" y="416.45" width="256.41" height="153.33"/><rect class="cls-11" x="1325.82" y="982.27" width="256.41" height="153.33"/><rect class="cls-11" x="1325.82" y="793.67" width="256.41" height="153.33"/><rect class="cls-11" x="1325.82" y="605.06" width="256.41" height="153.33"/><circle class="cls-10" cx="1454.03" cy="493.11" r="44.51" transform="translate(77.19 1172.58) rotate(-45)"/><path class="cls-12" d="M1454,542.06A48.95,48.95,0,1,1,1503,493.11,49,49,0,0,1,1454,542.06Zm0-89a40.09,40.09,0,1,0,40.08,40.08A40.13,40.13,0,0,0,1454,453Z"/><polygon class="cls-12" points="1480.24 493.11 1438.46 468.99 1438.46 517.24 1480.24 493.11"/><circle class="cls-10" cx="1454.03" cy="683.76" r="44.51" transform="translate(454.49 1941.8) rotate(-76.72)"/><path class="cls-12" d="M1454,732.71a48.95,48.95,0,1,1,48.94-49A49,49,0,0,1,1454,732.71Zm0-89a40.09,40.09,0,1,0,40.08,40.08A40.13,40.13,0,0,0,1454,643.68Z"/><polygon class="cls-12" points="1480.24 683.76 1438.46 659.64 1438.46 707.88 1480.24 683.76"/><circle class="cls-10" cx="1454.03" cy="870.33" r="44.51" transform="translate(272.91 2085.5) rotate(-76.72)"/><path class="cls-12" d="M1454,919.27A48.95,48.95,0,1,1,1503,870.33,49,49,0,0,1,1454,919.27Zm0-89a40.09,40.09,0,1,0,40.08,40.09A40.14,40.14,0,0,0,1454,830.24Z"/><polygon class="cls-12" points="1480.24 870.33 1438.46 846.21 1438.46 894.45 1480.24 870.33"/><circle class="cls-10" cx="1454.03" cy="1058.94" r="44.51"/><path class="cls-12" d="M1454,1107.88a48.95,48.95,0,1,1,48.94-48.94A49,49,0,0,1,1454,1107.88Zm0-89a40.09,40.09,0,1,0,40.08,40.09A40.13,40.13,0,0,0,1454,1018.85Z"/><polygon class="cls-12" points="1480.24 1058.93 1438.46 1034.81 1438.46 1083.06 1480.24 1058.93"/><path class="cls-13" d="M1673.89,449.07h-63.7a4.66,4.66,0,0,1,0-9.32h63.7a4.66,4.66,0,0,1,0,9.32Z"/><path class="cls-13" d="M1707.92,522.13h-44a4.66,4.66,0,0,1,0-9.32h44a4.66,4.66,0,0,1,0,9.32Z"/><path class="cls-13" d="M1645.34,522.13h-35.15a4.66,4.66,0,0,1,0-9.32h35.15a4.66,4.66,0,1,1,0,9.32Z"/><path class="cls-13" d="M1714.34,497.77H1610.19a4.66,4.66,0,0,1,0-9.32h104.15a4.66,4.66,0,1,1,0,9.32Z"/><path class="cls-13" d="M1788.6,449.07h-93.77a4.66,4.66,0,1,1,0-9.32h93.77a4.66,4.66,0,1,1,0,9.32Z"/><path class="cls-13" d="M1788.6,546.48H1610.19a4.66,4.66,0,0,1,0-9.32H1788.6a4.66,4.66,0,1,1,0,9.32Z"/><path class="cls-13" d="M1788.6,522.13h-57.48a4.66,4.66,0,1,1,0-9.32h57.48a4.66,4.66,0,1,1,0,9.32Z"/><path class="cls-13" d="M1788.6,497.77h-52.37a4.66,4.66,0,0,1,0-9.32h52.37a4.66,4.66,0,1,1,0,9.32Z"/><path class="cls-13" d="M1788.6,473.42H1610.19a4.66,4.66,0,0,1,0-9.32H1788.6a4.66,4.66,0,1,1,0,9.32Z"/><path class="cls-13" d="M1788.6,735.09h-63.7a4.66,4.66,0,0,1,0-9.32h63.7a4.66,4.66,0,1,1,0,9.32Z"/><path class="cls-13" d="M1734.89,662h-44a4.66,4.66,0,1,1,0-9.32h44a4.66,4.66,0,0,1,0,9.32Z"/><path class="cls-13" d="M1788.6,662h-35.15a4.66,4.66,0,0,1,0-9.32h35.15a4.66,4.66,0,1,1,0,9.32Z"/><path class="cls-13" d="M1788.6,686.38H1684.45a4.66,4.66,0,0,1,0-9.32H1788.6a4.66,4.66,0,1,1,0,9.32Z"/><path class="cls-13" d="M1704,735.09h-93.77a4.66,4.66,0,0,1,0-9.32H1704a4.66,4.66,0,0,1,0,9.32Z"/><path class="cls-13" d="M1788.6,637.67H1610.19a4.66,4.66,0,0,1,0-9.32H1788.6a4.66,4.66,0,1,1,0,9.32Z"/><path class="cls-13" d="M1667.67,662h-57.48a4.66,4.66,0,0,1,0-9.32h57.48a4.66,4.66,0,0,1,0,9.32Z"/><path class="cls-13" d="M1662.56,686.38h-52.37a4.66,4.66,0,0,1,0-9.32h52.37a4.66,4.66,0,1,1,0,9.32Z"/><path class="cls-13" d="M1788.6,710.73H1610.19a4.66,4.66,0,1,1,0-9.31H1788.6a4.66,4.66,0,1,1,0,9.31Z"/><path class="cls-13" d="M1788.6,826.28h-63.7a4.66,4.66,0,0,1,0-9.32h63.7a4.66,4.66,0,1,1,0,9.32Z"/><path class="cls-13" d="M1734.89,899.34h-44a4.66,4.66,0,1,1,0-9.32h44a4.66,4.66,0,0,1,0,9.32Z"/><path class="cls-13" d="M1788.6,899.34h-35.15a4.66,4.66,0,0,1,0-9.32h35.15a4.66,4.66,0,1,1,0,9.32Z"/><path class="cls-13" d="M1788.6,875H1684.45a4.66,4.66,0,0,1,0-9.32H1788.6a4.66,4.66,0,1,1,0,9.32Z"/><path class="cls-13" d="M1704,826.28h-93.77a4.66,4.66,0,0,1,0-9.32H1704a4.66,4.66,0,0,1,0,9.32Z"/><path class="cls-13" d="M1788.6,923.69H1610.19a4.66,4.66,0,1,1,0-9.31H1788.6a4.66,4.66,0,1,1,0,9.31Z"/><path class="cls-13" d="M1667.67,899.34h-57.48a4.66,4.66,0,0,1,0-9.32h57.48a4.66,4.66,0,0,1,0,9.32Z"/><path class="cls-13" d="M1662.56,875h-52.37a4.66,4.66,0,0,1,0-9.32h52.37a4.66,4.66,0,1,1,0,9.32Z"/><path class="cls-13" d="M1788.6,850.63H1610.19a4.66,4.66,0,0,1,0-9.32H1788.6a4.66,4.66,0,1,1,0,9.32Z"/><path class="cls-13" d="M1673.89,1112.3h-63.7a4.66,4.66,0,0,1,0-9.32h63.7a4.66,4.66,0,0,1,0,9.32Z"/><path class="cls-13" d="M1707.92,1039.24h-44a4.66,4.66,0,0,1,0-9.32h44a4.66,4.66,0,0,1,0,9.32Z"/><path class="cls-13" d="M1645.34,1039.24h-35.15a4.66,4.66,0,0,1,0-9.32h35.15a4.66,4.66,0,1,1,0,9.32Z"/><path class="cls-13" d="M1714.34,1063.59H1610.19a4.66,4.66,0,1,1,0-9.31h104.15a4.66,4.66,0,1,1,0,9.31Z"/><path class="cls-13" d="M1788.6,1112.3h-93.77a4.66,4.66,0,1,1,0-9.32h93.77a4.66,4.66,0,1,1,0,9.32Z"/><path class="cls-13" d="M1788.6,1014.89H1610.19a4.66,4.66,0,0,1,0-9.32H1788.6a4.66,4.66,0,1,1,0,9.32Z"/><path class="cls-13" d="M1788.6,1039.24h-57.48a4.66,4.66,0,1,1,0-9.32h57.48a4.66,4.66,0,1,1,0,9.32Z"/><path class="cls-13" d="M1788.6,1063.59h-52.37a4.66,4.66,0,1,1,0-9.31h52.37a4.66,4.66,0,1,1,0,9.31Z"/><path class="cls-13" d="M1788.6,1088H1610.19a4.66,4.66,0,0,1,0-9.32H1788.6a4.66,4.66,0,1,1,0,9.32Z"/></g><g id="_4" data-name="4"><circle class="cls-6" cx="537.09" cy="1099.3" r="56.76" transform="translate(-490.26 434.85) rotate(-31.07)"/><rect class="cls-6" x="1099.89" y="1062.77" width="184.03" height="65.39" rx="32.7"/><path class="cls-13" d="M1045.66,1065.84h-146a4.66,4.66,0,0,1,0-9.32h146a4.66,4.66,0,0,1,0,9.32Z"/><path class="cls-13" d="M868.22,1065.84H649.73a4.66,4.66,0,0,1,0-9.32H868.22a4.66,4.66,0,0,1,0,9.32Z"/><path class="cls-13" d="M1045.66,1142.09H830a4.66,4.66,0,0,1,0-9.32h215.65a4.66,4.66,0,0,1,0,9.32Z"/><path class="cls-13" d="M788.57,1142.09H649.73a4.66,4.66,0,0,1,0-9.32H788.57a4.66,4.66,0,0,1,0,9.32Z"/><path class="cls-13" d="M1010.26,1104H649.73a4.66,4.66,0,0,1,0-9.32h360.53a4.66,4.66,0,1,1,0,9.32Z"/><g id="_16" data-name="16"><path class="cls-10" d="M1134.41,1079c6.29-6.14,14.71-3.34,19.59,3,5.15-6.37,13.13-9,19.62-2.84,6.13,6.28,3.34,14.71-3,19.59l-16.75,16.62-16.62-16.75C1130.87,1093.41,1128.21,1085.55,1134.41,1079Z"/></g></g><rect id="_3" data-name="3" class="cls-11" x="480.33" y="416.45" width="803.59" height="579.12"/><g id="_2" data-name="2"><rect class="cls-8" x="480.33" y="946.97" width="803.59" height="67.56"/><path class="cls-13" d="M1237.33,985.41H1017.71a4.66,4.66,0,1,1,0-9.31h219.62a4.66,4.66,0,1,1,0,9.31Z"/><path class="cls-14" d="M1017.71,985.41H554.87a4.66,4.66,0,0,1,0-9.31h462.84a4.66,4.66,0,1,1,0,9.31Z"/><circle class="cls-12" cx="1017.71" cy="980.75" r="14.92"/><path class="cls-13" d="M508.28,1000.56a4.66,4.66,0,0,1-4.66-4.66V965.61a4.66,4.66,0,0,1,9.32,0V995.9A4.66,4.66,0,0,1,508.28,1000.56Z"/><path class="cls-13" d="M525.09,1000.56a4.66,4.66,0,0,1-4.66-4.66V965.61a4.66,4.66,0,1,1,9.32,0V995.9A4.66,4.66,0,0,1,525.09,1000.56Z"/></g><g id="_1" data-name="1"><path class="cls-15" d="M810.71,661.51C899.23,767.1,1052.35,771,1152.86,564.74c0,0-23.33,2.07-34.89-7.86-12.28-10.55-15.4-26.78-15.4-26.78-195.52,140.27-179.68-9-325.13-55.69C777.44,474.41,808.87,658.47,810.71,661.51Z"/><path class="cls-5" d="M893.33,947H549.93c2.9-16.28,5.94-32.77,9.3-49.21,7.32-35.9,16.22-71.55,28.8-104,9.61-24.81,21.37-47.79,36.22-67.66C701.39,765.28,804.06,785.64,886,792.9c.44.05.87.08,1.3.11l.36,0c.17,4.14.34,8.31.5,12.48q.32,7.8.62,15.62.42,10.68.83,21.41c.74,19.12,1.45,38.32,2.13,57.45C892.27,915.74,892.81,931.43,893.33,947Z"/><path class="cls-16" d="M763.75,471c2.48-34,10.9-95.7-15.84-107.6-18.75-7.64-42.22,7.44-37.48,29.27,1.79-1,4.09,60.66-.63,77.5C658.6,482.61,807.55,540.33,763.75,471Z"/><path class="cls-17" d="M710.06,389.83c.09.94.2,1.89.37,2.82,1.29-.76,3,33.28,1.73,57.86,22.54,11.72,48.53,8.46,53.3,7.74-.27-35.9,8.29-81.34-17.56-94.87C730.29,354.72,707.93,370,710.06,389.83Z"/><path class="cls-18" d="M664.32,947h-5.05c2.23-10.11,3.92-16.33,5-18.1h0c.18-.33.36-.51.51-.52a1.25,1.25,0,0,1,.31.62C665.57,930.93,665.29,937.1,664.32,947Z"/><path class="cls-14" d="M559.72,898.36c79.94,47.22,256.1,41.69,326.5,6.68,23.56-13.32,17.46-97.11,5.2-178.68C874.5,617.69,838.84,541.82,780.09,474.65c-.65-.19-10.71-3.34-16.31-3.64,1.39,9.94,2.41,39-54-.86-.21.22-15.48-.07-19.95,2.49-4.47,4.28-55.71,46.65-56.45,52.67-2.16,18-15.89,63.48-30.54,116.35C586,703.45,568.72,766.77,564.66,823.29,563.25,846.77,542.64,878.35,559.72,898.36Z"/><path class="cls-15" d="M690.66,472.9c20.12,26.78,99.58,63,89.45,1.77-.66-.22-10.69-3.35-16.33-3.66.3,1.6,8.08,43.61-54-.87C709.91,470.56,694.54,469.57,690.66,472.9Z"/><path class="cls-9" d="M651.41,484c6-11.92,30.66-19.56,39.25-11.12,40.18,39.48,77.38,85.81,88,100.07,2.13-2,7-1.21,8-3.83,14-36.25-6.63-94.49-6.63-94.49,23.29-5.62,43.08,13.92,53.9,26.84,16.11.3,34.25,17.63,26.21,43.71-6.32,20.5-17.33,40.47-35.48,53.08,19.88,30.37,46,79.27,28,92.55-7.45,9.89-28.73,17.41-33.43-7-3.89-20.16-10.22-50.78-15.93-69.44a17.47,17.47,0,0,1-6.93.62s8.59,68.18,26.94,108.61S788,764.93,768.41,754c-15.34-8.59-18.14-96.63-6.4-146.49C749,603,535.8,514.67,651.41,484Z"/><path class="cls-19" d="M807.59,346.63s.59-28.43-7.53-48.35l-16.53,7.35Z"/><path class="cls-16" d="M825.68,387C824.33,431.84,770,459.16,731.3,447,676.56,433.4,664.14,353,687.39,309.23c15.08-31.2,60.35-47,87.38-22.11,13.62,12.13,19.37,30.29,26,47.72C808.75,351.77,828.31,366,825.68,387Z"/><path class="cls-20" d="M768.7,354.27a3.64,3.64,0,1,0-5,1.41A3.63,3.63,0,0,0,768.7,354.27Z"/><path class="cls-20" d="M799.44,350.32a3.64,3.64,0,1,0-5,1.41A3.62,3.62,0,0,0,799.44,350.32Z"/><path class="cls-20" d="M791.2,381.07a16.21,16.21,0,0,1-8.55-.33,1.38,1.38,0,0,1,1-2.59c4.54,1.65,11.16-.4,12.13-2.45.34-.73-.61-1.49-1.48-2-7.63-4.52-12.29-19.47-12.49-20.1a1.38,1.38,0,0,1,2.64-.81c0,.15,4.54,14.57,11.25,18.55,3.66,2.17,3,4.6,2.57,5.54C797.28,378.85,794.45,380.37,791.2,381.07Z"/><path class="cls-17" d="M794.42,317.91c-28.44-12.66-50-2.7-73.58-4.22,0,0,2.59,30.17-28.49,50.41,0,0-24.89-18.74-5-54.87C713.1,261.15,777.77,263.75,794.42,317.91Z"/><path class="cls-19" d="M810.9,258.28c-10.46-22.75-43.54-36.15-73.53-9.67-23.09,20.4-47.16,19.32-47.51,41.71-45.49,18.62-25.15,68.77-25.15,68.77l22.51-1.8C713.61,337.52,714,307,714,307h0c24.58.56,50.86-9.18,76.58,2.18C808.9,316.74,822.6,283.7,810.9,258.28Z"/><path class="cls-16" d="M660.84,377.06c2,11.61,11.17,19.73,20.52,18.13s15.3-12.31,13.31-23.93-11.17-19.73-20.52-18.13S658.85,365.44,660.84,377.06Z"/><path class="cls-20" d="M683.42,362.63c-.36-.15-8.74-3.74-13.67.49a8.81,8.81,0,0,0-2.66,4.42l0,0c0,.16-.1.3-.14.46v0h0c-.81,3.44-.46,8.1,1.08,13.94a1.38,1.38,0,0,0,1.62,1h.06a1.39,1.39,0,0,0,1-1.69c-1.26-4.78-1.66-8.64-1.25-11.51,7.9,1.7,11.5,10.84,11.54,10.93a1.39,1.39,0,0,0,1.57.86l.2-.07a1.37,1.37,0,0,0,.8-1.77c-.17-.45-4.12-10.54-13.36-12.61a5.62,5.62,0,0,1,1.37-1.92c3.63-3.11,10.72-.09,10.79-.06a1.37,1.37,0,0,0,1.81-.71A1.39,1.39,0,0,0,683.42,362.63Z"/><path class="cls-20" d="M787.32,389.74c-4.61-3.68-10.71-3.73-13.6-.1a7.55,7.55,0,0,0-1.21,6.75,12.27,12.27,0,0,0,4.33,6.46,12.49,12.49,0,0,0,7.28,2.81,10.08,10.08,0,0,0,2.17-.19,7.1,7.1,0,0,0,4.16-2.51,7,7,0,0,0,1.49-4.47A11.6,11.6,0,0,0,787.32,389.74Zm1.15,11.66a5.11,5.11,0,0,1-4.28,1.75,10.54,10.54,0,0,1-9.26-7.38,5.22,5.22,0,0,1,.76-4.58,4.63,4.63,0,0,1,2.74-1.62,9.16,9.16,0,0,1,7.32,2.13C789.28,394.52,790.51,398.86,788.47,401.4Z"/><path class="cls-20" d="M751.08,345.59a1.45,1.45,0,0,1-1-.4,1.42,1.42,0,0,1,0-2c.32-.33,7.94-8.07,22-9.39a1.41,1.41,0,0,1,.26,2.81c-13,1.21-20.17,8.47-20.24,8.54A1.45,1.45,0,0,1,751.08,345.59Z"/><path class="cls-20" d="M799.9,337.91a1.47,1.47,0,0,1-.75-.21c-5.67-3.53-14.42-2.53-14.5-2.52a1.41,1.41,0,1,1-.34-2.8c.4-.05,9.81-1.13,16.33,2.92a1.41,1.41,0,0,1-.74,2.61Z"/><path class="cls-16" d="M1102.57,530.1s27.44-56.59,56.74-62.5c0,0,78.83,60.83-6.45,97.14C1152.86,564.74,1112.27,576.63,1102.57,530.1Z"/><path class="cls-21" d="M1196.74,535.63V440.12a8.76,8.76,0,0,0-8.77-8.76h-48.61a9.19,9.19,0,0,0-2.78.44,7.38,7.38,0,0,0-4.28,3.13,8.71,8.71,0,0,0-1.69,5.19v.57c0,.49-.08,1-.1,1.48h0c0,1.41,0,2.85.1,4.25V545.6a8.61,8.61,0,0,0,.8,3.67,8.75,8.75,0,0,0,7.95,5.08H1188c.32,0,.63,0,.93,0a7.53,7.53,0,0,0,5.76-3,8.72,8.72,0,0,0,2.08-5.66v-1A72.55,72.55,0,0,0,1196.74,535.63Z"/><path class="cls-9" d="M1184,431.36H1135.4a8.52,8.52,0,0,0-2.49.37,3.18,3.18,0,0,0-.33.09,8.89,8.89,0,0,0-4.26,3.13.08.08,0,0,0,0,0,8.66,8.66,0,0,0-1.66,5.13V545.6a8.73,8.73,0,0,0,8.76,8.75H1184a8.74,8.74,0,0,0,8.75-8.75V440.12A8.75,8.75,0,0,0,1184,431.36Zm5,107.91h-58.63V446.43H1189Z"/><path class="cls-22" d="M1152.07,439.44a1.15,1.15,0,0,1-2.3,0A1.15,1.15,0,0,1,1152.07,439.44Z"/><path class="cls-8" d="M1169.2,440.19H1155a.43.43,0,0,1-.43-.43c0-.35-.13-1.08.43-1.07h14.25c.55,0,.42.72.43,1.07A.43.43,0,0,1,1169.2,440.19Z"/><path class="cls-8" d="M1184,431.36c-51.47,0-57.37,15.08-57.37,15.08-.4-6.95-.08-14.62,8.75-15.08Z"/><rect class="cls-23" x="1130.39" y="446.44" width="58.62" height="92.84"/><path class="cls-16" d="M1192.52,521.16c.71-.16.87-.22,1.23-.32l.88-.3a16.77,16.77,0,0,0,1.62-.69,15.24,15.24,0,0,0,3-1.9,12.74,12.74,0,0,0,2.44-2.59,11.9,11.9,0,0,0,1.52-3c1.07-3-1-6.19-4.55-7a7.7,7.7,0,0,0-6.84,1.63l-2.58,2.33s.06-.06,0-.05a.56.56,0,0,1-.11.08l-.12,0h0l.3-.07c-3.9.8-6.35,4.11-5.46,7.39S1188.62,522,1192.52,521.16Z"/><path class="cls-16" d="M1193.44,509.15c.55-.23.7-.31,1-.46l.76-.4c.49-.27,1-.56,1.42-.86a18.14,18.14,0,0,0,2.65-2.14,13.71,13.71,0,0,0,2.24-2.91,10.82,10.82,0,0,0,1.29-3.65c.5-3.35-2.32-6.37-6.29-6.74s-7.6,2.05-8.1,5.41c0-.16.12-.2-.12.05a3.35,3.35,0,0,1-.52.41l-.36.22-.17.09,0,0c-3.63,1.48-5.19,5.14-3.5,8.18S1189.81,510.63,1193.44,509.15Z"/><path class="cls-16" d="M1194.8,496.6l5.3-4.28a5.47,5.47,0,0,0,.31-8.65,8.22,8.22,0,0,0-10.25-.12l-5.3,4.28a5.47,5.47,0,0,0-.31,8.65A8.22,8.22,0,0,0,1194.8,496.6Z"/><path class="cls-16" d="M1194.27,485.52l5.31-4.28a5.47,5.47,0,0,0,.3-8.65,8.21,8.21,0,0,0-10.24-.12l-5.31,4.28a5.48,5.48,0,0,0-.31,8.65A8.22,8.22,0,0,0,1194.27,485.52Z"/><path class="cls-16" d="M1106.94,533.94c3.67,4.22,17,4.5,17-1.23a68.43,68.43,0,0,1,12.84-39.18c4.85-6.21-3.45-13.48-9.72-7.36C1127.08,486.17,1101.05,507.43,1106.94,533.94Z"/><path class="cls-15" d="M617.18,510.68S515.57,620.84,568.67,756.91c50.22,128.68,226,162.91,333.59,76.2,0,0-24.49-31.21-11.48-48.53,0,0-86.78,11.39-141.11-34.07-46.27-38.73-35.61-109.28-30.3-161.6C719.37,588.91,629.19,549.11,617.18,510.68Z"/><path class="cls-16" d="M931.25,760.66s21.87-14.56,24.25-8c2.83,7.85-20.81,20.72-20.81,20.72,8.21-.87,18.21-5.09,27.67-9.32,9.15-4.1,18.16-8.1,26.9-13.58,22.56.81-25.87,29.15-30.67,33.55a1.55,1.55,0,0,0,.12.22,313.37,313.37,0,0,0,44.86-13.71c23.16,6.27-36.44,24.35-42.64,27.17l.05.11a182.62,182.62,0,0,0,44.1-7.67c22.88,8.45-39.13,21.86-46,22.54,0,.06,0,.12,0,.18a189.35,189.35,0,0,0,35.79,0c20.56,11-35.18,14.49-41.46,14.32-3.86,1.82-35,5.88-51.1,5.93-15.92.06-23.54-38.38-11.48-48.53C890.78,784.58,906.4,776.51,931.25,760.66Z"/></g></g></g></svg>