<svg xmlns="http://www.w3.org/2000/svg" viewBox="0 0 684.73 417.6"><defs><style>.cls-1{fill:#9fb2d9;}.cls-1,.cls-10,.cls-14,.cls-2,.cls-21,.cls-25,.cls-28,.cls-29,.cls-3,.cls-30,.cls-31,.cls-34,.cls-35,.cls-36,.cls-37,.cls-38,.cls-39,.cls-4,.cls-40,.cls-41,.cls-5,.cls-6,.cls-7{fill-rule:evenodd;}.cls-2{fill:#e1e8f6;}.cls-3{fill:#b4c5e6;}.cls-12,.cls-15,.cls-17,.cls-4{fill:#fff;}.cls-5{fill:#c0cdea;}.cls-6,.cls-8{fill:#00000f;}.cls-7,.cls-9{fill:#3b405f;}.cls-10,.cls-22{fill:#101537;}.cls-11{fill:#5eb9bd;}.cls-13,.cls-25{fill:#e4e1e8;}.cls-14,.cls-18{fill:#d64c47;}.cls-15{font-size:7.49px;}.cls-15,.cls-18{font-family:OpenSans-Bold, OpenSans Bold;}.cls-15,.cls-17,.cls-18{font-weight:700;}.cls-16{letter-spacing:0em;}.cls-17{font-size:58.22px;font-family:RobotoCondensed-Bold, RobotoCondensed Bold;}.cls-18{font-size:2.5px;}.cls-19{letter-spacing:-0.04em;}.cls-20{letter-spacing:-0.01em;}.cls-21,.cls-26{fill:#070725;}.cls-23{fill:#d58750;}.cls-24,.cls-28{fill:#b56b41;}.cls-27{fill:#aeabba;}.cls-29{fill:#ed7862;}.cls-30{fill:#f5ac83;}.cls-31{fill:#181d3b;}.cls-32,.cls-35{fill:#f18a00;}.cls-33,.cls-36{fill:#fcc100;}.cls-34{fill:#707386;}.cls-37{fill:#294d3c;}.cls-38{fill:#4a9075;}.cls-39{fill:#1b7154;}.cls-40{fill:#a6c86b;}.cls-41{fill:#5f9850;}</style></defs><g id="Layer_2" data-name="Layer 2"><g id="OBJECTS"><path class="cls-1" d="M373.41,37.22a.92.92,0,1,0-1.83,0v2.15h-2.15a.92.92,0,0,0,0,1.83h2.15v2.15a.92.92,0,0,0,1.83,0V41.2h2.15a.92.92,0,0,0,0-1.83h-2.15Z"/><path class="cls-2" d="M142.28,291.73h-60a58.89,58.89,0,0,0-58.72,58.72h0a58.9,58.9,0,0,0,58.72,58.72H589.65c52.3,0,95.08-42.79,95.08-95.08h0c0-52.29-42.78-95.07-95.08-95.08h0a40.32,40.32,0,0,1-40.2-40.2h0a40.32,40.32,0,0,1,40.2-40.2H638a41.91,41.91,0,0,0,41.79-41.8h0A41.91,41.91,0,0,0,638,55H576.85a16.33,16.33,0,0,1-16.27-16.28h0a16.32,16.32,0,0,1,16.27-16.27h10.79a11.26,11.26,0,0,0,11.23-11.23h0A11.26,11.26,0,0,0,587.64,0H516.87C502,0,500.3,17.61,462.66,17.61h-87.3A14.7,14.7,0,0,0,360.7,32.26h0a14.71,14.71,0,0,0,14.66,14.66h14.07a21.29,21.29,0,0,1,21.23,21.23h0a21.29,21.29,0,0,1-21.23,21.23H347.07c-57.19,0-65.27,15-75.28,44.68s-62,32.12-62,32.12H138.61a32.09,32.09,0,0,0-32,32h0a32.09,32.09,0,0,0,32,32h3.67A30.86,30.86,0,0,1,173.05,261h0a30.87,30.87,0,0,1-30.77,30.78ZM619.16,22.46a11.23,11.23,0,1,1,11.23-11.23A11.23,11.23,0,0,1,619.16,22.46Z"/><path class="cls-3" d="M540.88,194.79c6.08-8.81,18.82-23.48,43.19-38.08C622.6,133.62,651.8,103,639,84.91c-12.59-17.77-69,16.55-115.9,102.34A102.39,102.39,0,0,0,540.88,194.79Z"/><path class="cls-4" d="M533.35,187a23.7,23.7,0,0,1,7.6,1,.48.48,0,0,0,.61-.33.48.48,0,0,0-.33-.6,25.46,25.46,0,0,0-7.29-1.1c.83-1.41,1.66-2.81,2.49-4.18,1.7,0,7.19-.15,9.25,0a.49.49,0,1,0,.06-1c-1.9-.1-6.55,0-8.71,0q2.36-3.84,4.69-7.47a113.85,113.85,0,0,1,12.4.94.49.49,0,0,0,.55-.42.48.48,0,0,0-.41-.55,117.58,117.58,0,0,0-11.92-.94q2.37-3.65,4.74-7.08a162.05,162.05,0,0,1,17.7,1.33.48.48,0,0,0,.55-.42.49.49,0,0,0-.41-.55,161.85,161.85,0,0,0-17.18-1.33q3.12-4.5,6.2-8.65c2.36-.1,12.14-.35,19.49,2a.5.5,0,0,0,.62-.32.49.49,0,0,0-.32-.61c-6.84-2.2-15.72-2.18-19.05-2.08q3.8-5.07,7.54-9.62c3.22.18,16.17,1.16,22.23,5.45a.48.48,0,0,0,.68-.12.49.49,0,0,0-.12-.68c-5.88-4.16-17.85-5.3-22-5.58q4-4.82,7.84-9.07a101.69,101.69,0,0,1,21.42,7.56.49.49,0,1,0,.44-.87,102.59,102.59,0,0,0-21.11-7.52q2.29-2.5,4.54-4.83a109.9,109.9,0,0,1,24.5,8.79.49.49,0,0,0,.65-.23.48.48,0,0,0-.22-.65,113.39,113.39,0,0,0-24.11-8.73q5.34-5.46,10.39-10c2.84.94,17.24,5.81,24.82,10.63a.49.49,0,0,0,.52-.83c-7.27-4.62-20.68-9.27-24.49-10.55q2.93-2.59,5.75-4.89a145,145,0,0,1,23.78,10.66.48.48,0,0,0,.67-.18.49.49,0,0,0-.18-.67,144.51,144.51,0,0,0-23.37-10.53c4.38-3.53,8.51-6.52,12.32-9,2.41.56,13.29,3.29,21.45,8a.49.49,0,1,0,.49-.84c-7.51-4.35-17.24-7-20.82-7.92,1.58-1,3.09-2,4.55-2.82a75.52,75.52,0,0,1,18.52,4.72.5.5,0,0,0,.64-.28.49.49,0,0,0-.28-.64,80.14,80.14,0,0,0-17.49-4.62c11.73-6.77,19-8.49,19.08-8.5a.74.74,0,0,0-.36-1.43,56.45,56.45,0,0,0-8.81,3.23,42.67,42.67,0,0,1,4.26-4.92.5.5,0,0,0,.16-.68.49.49,0,0,0-.67-.16c-.89.54-4.47,5.08-5.69,6.65-2.26,1.06-4.82,2.36-7.67,4l4.84-9.61a.49.49,0,0,0-.88-.44L613,97.88c-2,1.13-4,2.41-6.18,3.84L612,90.33a.5.5,0,0,0-.24-.65.48.48,0,0,0-.65.24l-5.87,12.83c-3.25,2.19-6.72,4.7-10.36,7.59l4.51-11.8a.5.5,0,0,0-.28-.64.49.49,0,0,0-.63.29l-5.12,13.37c-1.66,1.35-3.36,2.77-5.09,4.28l3.83-10.63a.49.49,0,0,0-.92-.34l-4.44,12.31q-4.82,4.27-9.91,9.41l2.88-10.38a.5.5,0,0,0-.34-.61.49.49,0,0,0-.6.34L575.41,128c-1.35,1.38-2.71,2.82-4.07,4.3L573,124.4a.48.48,0,0,0-.38-.58.5.5,0,0,0-.58.38l-1.94,9.52q-3.81,4.2-7.73,8.91l1.5-8.84a.49.49,0,0,0-.4-.57.49.49,0,0,0-.56.4l-1.79,10.51q-3.44,4.19-6.92,8.8l1-7.85a.49.49,0,0,0-.43-.55.5.5,0,0,0-.55.42L553,154.51c-2,2.72-4.06,5.54-6.1,8.49l0-7.09a.51.51,0,0,0-.49-.5.49.49,0,0,0-.49.49l-.06,8.52q-2.22,3.22-4.44,6.63l-.76-6a.49.49,0,0,0-1,.12l.9,7.2q-2,3.16-4.09,6.48l-.71-3.9a.49.49,0,0,0-.57-.4.49.49,0,0,0-.39.57l.9,5q-1.51,2.5-3,5.1L531.08,182a.48.48,0,0,0-.65-.21.49.49,0,0,0-.22.66l1.9,3.76c-.83,1.42-1.65,2.85-2.48,4.31l1.34.6Z"/><path class="cls-1" d="M533.89,199.79c6.52-4.12,18-9.64,35.36-12.11,29.45-4.2,55.73-16.27,53.74-32.37-1.92-15.51-43.66-9.53-95.61,32.54l6.49,11.89Z"/><path class="cls-3" d="M615,157.71a1,1,0,1,0,0-2,71.73,71.73,0,0,0-8.93.75l4.81-3.24a.68.68,0,0,0,.18-.94.68.68,0,0,0-.93-.18L603,156.9c-2.61.43-5.58,1-8.86,1.8l5-4.82a.69.69,0,0,0,0-1,.68.68,0,0,0-1,0l-6.76,6.46c-3.4.89-7.09,2-11,3.36l4.22-4.34a.67.67,0,1,0-1-.94l-6.17,6.34c-4.08,1.54-8.38,3.36-12.83,5.53l3.57-4.59a.67.67,0,0,0-.11-.94.68.68,0,0,0-1,.11l-5.3,6.82c-4.17,2.15-8.45,4.59-12.8,7.39l1.46-3.12a.67.67,0,0,0-1.22-.57l-2.39,5.1q-4.95,3.28-10,7.21l1.34-3.17a.68.68,0,0,0-.36-.88.66.66,0,0,0-.88.36l-2.31,5.45c-1.63,1.33-3.26,2.7-4.88,4.14l1,1.81q2.44-2.16,4.88-4.15c1.67.11,5.66.45,7.33,1.33a.67.67,0,0,0,.91-.28.67.67,0,0,0-.28-.91c-1.48-.78-4.4-1.17-6.43-1.36q1.93-1.55,3.85-3a28.62,28.62,0,0,1,8.33,2.57.66.66,0,0,0,.91-.25.67.67,0,0,0-.25-.92,27.36,27.36,0,0,0-7.51-2.5q4-2.89,7.89-5.4c2.25.93,9.34,3.95,12.13,6.24a.67.67,0,0,0,.94-.1.66.66,0,0,0-.09-.94c-2.61-2.15-8.7-4.85-11.59-6.07q4.2-2.62,8.29-4.83c2.24.87,9.53,3.82,14.33,7.63a.68.68,0,1,0,.84-1.06c-4.33-3.43-10.59-6.17-13.62-7.4,1.35-.7,2.69-1.38,4-2a65.53,65.53,0,0,1,17.46,8.74.68.68,0,0,0,.8-1.09,66.6,66.6,0,0,0-16.52-8.49,147.36,147.36,0,0,1,13.73-5.62c2.57,1.59,12.53,7.85,16.88,12a.67.67,0,1,0,.93-1c-4-3.83-12.65-9.37-16.17-11.58,3.24-1.09,6.31-2,9.17-2.74,2.31,1.77,10.85,8.3,12.83,10a.67.67,0,0,0,.88-1c-1.82-1.56-9-7-12-9.41,3.74-.92,7.11-1.57,10-2,2.08,1.8,7.07,6.16,8.24,7.32a.67.67,0,1,0,1-.95c-1-1-5.07-4.57-7.44-6.64A72.82,72.82,0,0,1,615,157.71Z"/><path class="cls-1" d="M386.58,213.93q-.65-8.81-.61-17.09t.74-16.24c1.74-19.5,6.48-36.33,13.54-50.7a115,115,0,0,1,30.22-38.32A130.91,130.91,0,0,1,468.57,70a171.62,171.62,0,0,1,46.9-9.87c5.44-.4,10.94-.57,16.44-.52s11.13.33,16.65.82h0a2.28,2.28,0,0,1,2.07,2.46l0,.16c-.23,2.15-5.19,48.22-27.64,89.85C500.27,195,459.75,232.58,388.34,216a2.33,2.33,0,0,1-1.25-.78,2.25,2.25,0,0,1-.51-1.32ZM548.12,64a239.84,239.84,0,0,0-29.06,14.2c6,1.08,19.63,3.6,25.74,5.56,2-9.79,3-17,3.32-19.76Zm-3.77,21.9h0c-7.06-2.3-25.48-5.52-28.23-6-7.66,4.44-16.3,9.87-25.47,16.37l47.8,12.58c2.55-8.41,4.48-16.23,5.93-22.95Zm-6.57,25L488.32,98a329.87,329.87,0,0,0-26.54,21.33c9.81,3,56.71,17.37,64.66,21.39A245.42,245.42,0,0,0,537.78,111Zm-12.26,31.67c-8-4.09-59.77-19.87-65.62-21.65-7.23,6.56-14.51,13.76-21.66,21.63l73.68,23.52a1.15,1.15,0,0,1,.25.12c3.17-4.71,6.07-9.56,8.72-14.48q2.46-4.54,4.63-9.14ZM510.91,168.1l-74.27-23.71c-5.56,6.22-11,12.85-16.34,19.9,12,4.06,73.49,23.19,73.67,23.25a1.14,1.14,0,0,1,.44.26,136.33,136.33,0,0,0,16.5-19.7Zm-18.19,21.33c-6.52-2-64.07-20-73.79-23.3q-6.82,9.21-13.21,19.4c14.52,7.17,63.36,19.85,63.5,19.88a1.09,1.09,0,0,1,.67.51,106.32,106.32,0,0,0,22.83-16.49Zm-25.31,17.76c-7.83-2.06-49.61-13.2-62.85-19.81Q400.51,194,396.69,201c5.58,2.2,30.56,11.79,46.69,13.44a1.1,1.1,0,0,1,.95.79,98.48,98.48,0,0,0,23.08-8.05Zm-27.85,9c-16.53-2.58-39.15-11.32-43.91-13.21q-2.86,5.4-5.59,11.05c18.56,4.16,35,4.57,49.5,2.16Zm-50.77-4.54q2.5-5.16,5.17-10.13c-2.23-6.18-3.88-16.89-4.69-22.9-.07.74-.15,1.48-.21,2.22q-.69,7.72-.73,16,0,7.13.46,14.77ZM389.94,173a1.1,1.1,0,0,1,.95,1s1.73,15.78,4.49,24.92q3.69-6.72,7.61-13.06a212.79,212.79,0,0,1-7.21-38.63A146.16,146.16,0,0,0,389.94,173ZM397,143.54a1.08,1.08,0,0,1,.73,1,209.47,209.47,0,0,0,6.78,38.81c4.11-6.52,8.39-12.74,12.78-18.66-1.28-3.79-8.72-26.37-9.76-43.16q-2.78,4.53-5.2,9.46a123.42,123.42,0,0,0-5.33,12.6ZM409.15,119a1.06,1.06,0,0,1,.51.88c.59,15.19,7.13,36.21,9.25,42.67,5.24-6.93,10.64-13.45,16.11-19.57-9.79-20.74-11.26-37.64-11.48-41.84A111.7,111.7,0,0,0,409.15,119ZM425.36,99.3a1.05,1.05,0,0,1,.32.74s.2,18,10.92,41.14c7.17-7.89,14.47-15.11,21.72-21.7-4.39-9.89-8.63-34.51-9.2-37.88A120.81,120.81,0,0,0,432,93.4q-3.41,2.8-6.61,5.9Zm25.72-18.79a1.09,1.09,0,0,1,.12.36c0,.07,4.34,26.31,8.83,37.07A332.51,332.51,0,0,1,486.9,96.3c-3.18-12.67-3.1-26.41-3.07-28.63a151.42,151.42,0,0,0-14.45,4.54,135.94,135.94,0,0,0-18.3,8.3ZM486,67.12a1,1,0,0,1,0,.29,121.38,121.38,0,0,0,2.79,27.53c9.33-6.66,18.12-12.2,25.93-16.73a78.69,78.69,0,0,1-.3-15.64A177.86,177.86,0,0,0,486,67.12Zm30.64-4.71v.17A77.48,77.48,0,0,0,516.79,77a252.89,252.89,0,0,1,29.12-14.46q-7-.54-14-.61C526.82,61.92,521.72,62.06,516.62,62.41Z"/><path class="cls-1" d="M214.17,351.79s-21.67-11.18-17.7-38.63S183.66,277,179.4,268.87s5.29-21.33,4.2-32.86-14.38-14.61-8.15-30.43,1-21.82-7.24-38.76,3.95-42.83,9.73-42.69-1.27,6.2,3.81,17.46,26.5,14.69,33.2,24.11-5.08,21.89,2.57,34.6S248,209.07,254,221.4s-8.34,27.12-4.16,40,19.56,20.26,26,30.65,18.61,30.29-1.26,54S214.17,351.79,214.17,351.79Z"/><path class="cls-3" d="M175.56,147.63a1.41,1.41,0,0,1,2.63-1l89.66,232.91-3.38-.92Z"/><path class="cls-3" d="M196.2,324c-.11-1.08-.18-2.2-.21-3.35l58.89,33.09-5.21-13.53c0-.06,0-.12-.07-.17l-2.67-6.94-49.86-28c0-1.14,0-2.24-.12-3.3l48.39,27.2-4.71-12.25-46.06-25.88a37.3,37.3,0,0,0-2-4.36L239,312.54l-2.34-6.07a1.46,1.46,0,0,1-.07-.19L226.4,279.7l-46.11-25.92c.27-.91.55-1.83.83-2.76l43.69,24.55L219.7,262.3l-36.33-20.42a29.25,29.25,0,0,0,.3-3.07l34.44,19.36-3.84-10-.06-.14-11.16-29-27-15.15c.34-.95.63-1.86.88-2.74l24.49,13.76-9.75-25.33-.06-.14-16.09-41.81a1.41,1.41,0,0,1,2.63-1l14.62,38,8.36-28.54c.86.43,1.72.87,2.56,1.31L194.48,189l11,28.54a1.17,1.17,0,0,0,.05.11L215.68,244l16-34.4c.9.29,1.82.57,2.73.84l-17.36,37.22L221,257.72l21.14-45c.91.31,1.8.64,2.65,1l-22.08,47,.33.19a1.41,1.41,0,0,1,.55,1.92,1.25,1.25,0,0,1-.44.47l5.71,14.83c0,.05,0,.09.05.13l9.24,24L253.77,269c.62.84,1.27,1.66,2,2.46l-16.22,34.5,2.38,6.17,17.37-36.94c.7.7,1.43,1.38,2.16,2L243.3,315.75l6.06,15.75a.56.56,0,0,1,0,.12l1.68,4.35,22.25-47.31c.69.82,1.34,1.66,1.93,2.52l-22.77,48.45,6.41,16.64,0,.12,0,.05c-1.11.35-2.23.64-3.36.89Z"/><path class="cls-5" d="M204.09,409.33c-6-4.64-12.09-6.75-15.34-9.75-6.46-6-2.1-20.89-6.79-30.91s-17.64-8.52-17.13-24.76-6.16-19.94-19-32.54-10.22-39.8-5-41.54.85,6,9,14.49,28.56,4.69,37.62,11S190,316.65,201,325.62s30.2-1.9,39.59,7.26,1.23,27.08,9.15,37.37,24.12,11.93,33.29,19.19c5.16,4.08,12.89,10.3,16.85,19.89Z"/><path class="cls-2" d="M247.55,409.33l-13-15.13-49.82-8.48c0-.91-.1-1.83-.14-2.76l47.2,8-8.87-10.29L183.64,374a26.4,26.4,0,0,0-.72-2.85l37.21,6.33-6.67-7.75-.09-.11L194,347.14l-29.13-5c0-1,0-1.87-.08-2.75l26.45,4.5-16.92-19.64-.1-.12-27.93-32.43a1.35,1.35,0,0,1,2-1.76l25.38,29.47L172,291.08l2.72.35,1.84,31.39L195.67,345l.08.09,17.64,20.48,3.36-36.11,2.73-.12-3.65,39.07,6.73,7.81,4.54-47.26c.92,0,1.83,0,2.71,0l-4.75,49.37.36.07a1.34,1.34,0,0,1,1.11,1.55,1.45,1.45,0,0,1-.24.57L236.2,392a.39.39,0,0,1,.08.1l14.82,17.21Zm4.91,0,3.23-33.59c.83.56,1.68,1.08,2.56,1.58l-3.08,32Zm7.3,0,2.86-29.79c.86.4,1.73.78,2.61,1.15l-2.76,28.64Zm17.73,0,2.13-22.17a28.76,28.76,0,0,1,2.56,1.65l-2,20.52Z"/><path class="cls-6" d="M22.88,417.6H17.44a4.14,4.14,0,0,1-4.13-4.14h0a4.14,4.14,0,0,1,4.13-4.13h5.44A4.15,4.15,0,0,1,27,413.46h0A4.15,4.15,0,0,1,22.88,417.6Z"/><path class="cls-6" d="M36.16,417.6H635.42a4.15,4.15,0,0,0,4.14-4.14h0a4.15,4.15,0,0,0-4.14-4.13H36.16A4.14,4.14,0,0,0,32,413.46h0A4.15,4.15,0,0,0,36.16,417.6Z"/><path class="cls-5" d="M80.16,252a6.65,6.65,0,1,1-2,4.71,6.61,6.61,0,0,1,2-4.71Zm1.44-6.6A11.85,11.85,0,0,0,79,246.48a12.08,12.08,0,0,0-2.29,1.73.41.41,0,0,1-.49.06l-3.09-1.79h0a.79.79,0,0,0-1,.29v0l-2.17,3.77a.74.74,0,0,0-.08.58.77.77,0,0,0,.36.47h0l3.07,1.77a.42.42,0,0,1,.19.45h0a13,13,0,0,0-.26,1.41,11.49,11.49,0,0,0,0,2.87,12.38,12.38,0,0,0,.26,1.4.41.41,0,0,1-.22.47l-3.06,1.77h0a.78.78,0,0,0-.36.46.76.76,0,0,0,.08.59l2.18,3.79h0a.79.79,0,0,0,1.05.28h0l3.08-1.78a.41.41,0,0,1,.48.06A12.52,12.52,0,0,0,79,266.87,11.54,11.54,0,0,0,81.62,268a.42.42,0,0,1,.29.4v3.56a.75.75,0,0,0,.23.54.76.76,0,0,0,.54.23h4.38a.76.76,0,0,0,.54-.23.78.78,0,0,0,.22-.54v-3.56a.41.41,0,0,1,.32-.4,11.77,11.77,0,0,0,2.6-1.11A12.19,12.19,0,0,0,93,265.14a.41.41,0,0,1,.51,0l3.07,1.77a.79.79,0,0,0,1-.28v0l2.18-3.77h0a.81.81,0,0,0,.07-.59.76.76,0,0,0-.35-.46L96.48,260a.4.4,0,0,1-.19-.45h0a13,13,0,0,0,.25-1.41,11.49,11.49,0,0,0,0-2.87,13,13,0,0,0-.25-1.41.4.4,0,0,1,.21-.46l3.07-1.77a.75.75,0,0,0,.35-.47.79.79,0,0,0-.07-.58v0l-2.18-3.77h0a.79.79,0,0,0-1-.28h0l-3.09,1.79a.42.42,0,0,1-.5-.07,11.66,11.66,0,0,0-2.28-1.72,11.28,11.28,0,0,0-2.62-1.11.42.42,0,0,1-.3-.4v-3.56a.78.78,0,0,0-.22-.54.76.76,0,0,0-.54-.23H82.68a.76.76,0,0,0-.54.23.75.75,0,0,0-.23.54V245A.4.4,0,0,1,81.6,245.37Z"/><path class="cls-5" d="M33.49,187.15a15.66,15.66,0,0,1,22.18,0,15.68,15.68,0,0,1-17.08,25.58,16,16,0,0,1-5.1-3.41,15.68,15.68,0,0,1,0-22.17Zm5.65-2.07A14.24,14.24,0,0,0,50,211.39a14.23,14.23,0,0,0,4.62-23.22,14.28,14.28,0,0,0-15.5-3.09Zm-1.73-11.54a24.24,24.24,0,0,0-2.89,1A24.79,24.79,0,0,0,31.74,176a25.1,25.1,0,0,0-2.61,1.73,27.61,27.61,0,0,0-2.39,2,1.63,1.63,0,0,1-.94.45,1.66,1.66,0,0,1-1-.21c-2.31-1.33-4.73-2.65-7-4a1.12,1.12,0,0,0-.34-.11,1.12,1.12,0,0,0-.74.21.79.79,0,0,0-.25.29c-1.68,2.54-3.37,5.82-4.92,8.51a.85.85,0,0,0-.12.36.91.91,0,0,0,0,.4.88.88,0,0,0,.17.35.92.92,0,0,0,.29.26c2.07,1.37,4.74,2.74,6.93,4a1.62,1.62,0,0,1,.69.78,1.35,1.35,0,0,1,.11.34l.14,0-.16.65c-.12.51-.24,1-.33,1.52s-.17,1-.23,1.55-.11,1-.14,1.56-.05,1-.05,1.57,0,1.08.05,1.58.07,1,.14,1.56.14,1,.23,1.55.21,1,.33,1.52a1.68,1.68,0,0,1-.1,1.09,1.65,1.65,0,0,1-.74.76l-6.15,3.55h0l-.72.42a.92.92,0,0,0-.29.26.88.88,0,0,0-.17.35.91.91,0,0,0,0,.4.85.85,0,0,0,.12.36l4.55,7.88h0l.37.63a.79.79,0,0,0,.25.29,1.29,1.29,0,0,0,.35.18,1.08,1.08,0,0,0,.4,0,.85.85,0,0,0,.36-.12c2.2-1.38,4.68-2.7,7-4a1.69,1.69,0,0,1,1-.21,1.65,1.65,0,0,1,.93.44h0a27.61,27.61,0,0,0,2.39,2,25.1,25.1,0,0,0,2.61,1.73,25.35,25.35,0,0,0,5.74,2.43,1.76,1.76,0,0,1,.86.59,1.67,1.67,0,0,1,.33,1v8a1,1,0,0,0,.08.38.85.85,0,0,0,.21.32,1.19,1.19,0,0,0,.33.22.91.91,0,0,0,.37.08H49.5a1,1,0,0,0,.38-.08,1.07,1.07,0,0,0,.54-.54,1,1,0,0,0,.07-.38v-8a1.64,1.64,0,0,1,.36-1,1.69,1.69,0,0,1,.91-.59,23.7,23.7,0,0,0,2.89-1,24.64,24.64,0,0,0,2.77-1.38A25.23,25.23,0,0,0,60,218.78a27.61,27.61,0,0,0,2.39-2,1.65,1.65,0,0,1,2-.19l6.86,4a.85.85,0,0,0,.37.12,1,1,0,0,0,.39,0,1.06,1.06,0,0,0,.35-.18.92.92,0,0,0,.26-.29c1.63-2.84,3.28-5.67,4.92-8.51a1.27,1.27,0,0,0,.12-.36,1.35,1.35,0,0,0,0-.4,1,1,0,0,0-.46-.61l-6.94-4a1.67,1.67,0,0,1-.69-.78,1.34,1.34,0,0,1-.09-.26l-.18,0,.18-.74c.13-.51.24-1,.33-1.52s.17-1,.24-1.55.11-1,.14-1.56.05-1,.05-1.58,0-1.07-.05-1.57-.08-1-.14-1.56-.15-1.06-.24-1.55-.2-1-.33-1.52a1.69,1.69,0,0,1,.11-1.09,1.6,1.6,0,0,1,.74-.76l6.87-4a1.2,1.2,0,0,0,.29-.26,1,1,0,0,0,.17-.35,1.31,1.31,0,0,0,0-.39,1.23,1.23,0,0,0-.12-.37c-1.68-2.49-3.36-5.83-4.92-8.51a.92.92,0,0,0-.26-.29.88.88,0,0,0-.35-.17,1.06,1.06,0,0,0-.39,0,1,1,0,0,0-.37.13l-6.94,4a1.69,1.69,0,0,1-1,.21,1.63,1.63,0,0,1-.94-.47,28.66,28.66,0,0,0-2.38-2A27.35,27.35,0,0,0,57.42,176a25,25,0,0,0-2.79-1.39,26.23,26.23,0,0,0-2.94-1,1.71,1.71,0,0,1-.86-.59,1.67,1.67,0,0,1-.33-1v-8a1,1,0,0,0-.07-.38,1.07,1.07,0,0,0-.54-.54,1,1,0,0,0-.38-.07H39.66a.9.9,0,0,0-.37.07,1.19,1.19,0,0,0-.33.22,1,1,0,0,0-.29.7v8a1.63,1.63,0,0,1-.35,1,1.62,1.62,0,0,1-.91.58Zm-3.46-.3a27.31,27.31,0,0,0-8.22,5.45.16.16,0,0,1-.11.05.25.25,0,0,1-.12,0c-2.33-1.35-4.67-2.69-7-4.05a2.42,2.42,0,0,0-1.8-.21,2.75,2.75,0,0,0-.86.42,2.44,2.44,0,0,0-.63.72c-1.69,2.74-3.3,5.71-4.92,8.51a2.57,2.57,0,0,0-.3.91,2.52,2.52,0,0,0,.06.95,2.57,2.57,0,0,0,.43.86,2.53,2.53,0,0,0,.71.63c2.23,1.38,4.66,2.69,6.94,4a.14.14,0,0,1,.08.09.17.17,0,0,1,0,.12l-.16.65h0c-.07.32-.13.64-.19,1-.1.56-.19,1.1-.25,1.64s-.12,1.08-.15,1.64-.05,1.12-.05,1.66,0,1.1.05,1.66.08,1.12.15,1.65.15,1.08.25,1.64.22,1.09.34,1.61a.2.2,0,0,1,0,.13.24.24,0,0,1-.08.09c-2.55,1.36-5.15,3-7.67,4.42l.09.11-.07.1a2.57,2.57,0,0,0-.43.86,2.52,2.52,0,0,0-.06.95,2.3,2.3,0,0,0,.31.9l5.28,9.16.1-.06.16.13a2.57,2.57,0,0,0,.86.43,2.52,2.52,0,0,0,.95.06,2.4,2.4,0,0,0,.88-.29c2.31-1.23,4.69-2.71,7-4a.2.2,0,0,1,.11,0,.27.27,0,0,1,.12.06,27.44,27.44,0,0,0,5.27,4,28.17,28.17,0,0,0,3,1.48,26.08,26.08,0,0,0,3.11,1.1.18.18,0,0,1,.1.07.16.16,0,0,1,0,.12v8a2.41,2.41,0,0,0,.19.93,2.28,2.28,0,0,0,.53.8,2.39,2.39,0,0,0,.79.53,2.45,2.45,0,0,0,.93.19H49.5a2.41,2.41,0,0,0,.93-.19,2.54,2.54,0,0,0,.8-.53,2.6,2.6,0,0,0,.53-.8,2.41,2.41,0,0,0,.19-.93v-8a.27.27,0,0,1,0-.12.24.24,0,0,1,.11-.06h0a28.4,28.4,0,0,0,3.1-1.1,25.86,25.86,0,0,0,2.93-1.47,27.42,27.42,0,0,0,5.28-4,.18.18,0,0,1,.12-.05.14.14,0,0,1,.12,0l6.94,4a2.52,2.52,0,0,0,.9.3,2.57,2.57,0,0,0,1-.06,2.62,2.62,0,0,0,.85-.43,2.17,2.17,0,0,0,.62-.69c1.82-2.93,3.55-6.14,5.29-9.16l-.1,0a2.23,2.23,0,0,0,0-.23,2.5,2.5,0,0,0-.06-.95A2.46,2.46,0,0,0,78,209l-7-4a.24.24,0,0,1-.08-.09.25.25,0,0,1,0-.12l.18-.74h0l.18-.87c.1-.55.18-1.1.25-1.64s.11-1.08.15-1.65,0-1.11,0-1.66,0-1.09,0-1.65-.09-1.12-.15-1.66-.15-1.07-.25-1.63-.22-1.09-.35-1.61a.29.29,0,0,1,0-.13.2.2,0,0,1,.09-.09l6.94-4a2.53,2.53,0,0,0,.71-.63,2.38,2.38,0,0,0,.42-.86,2.5,2.5,0,0,0,.06-.95,2.23,2.23,0,0,0-.29-.88c-1.65-3.06-3.55-6.15-5.29-9.18l-.1.06-.17-.14a2.81,2.81,0,0,0-.85-.42,2.57,2.57,0,0,0-1-.06,2.46,2.46,0,0,0-.9.3l-.51.3h0l-6.44,3.72a.17.17,0,0,1-.12,0,.16.16,0,0,1-.11-.05l0,0a28.61,28.61,0,0,0-2.51-2.14,27.83,27.83,0,0,0-2.75-1.82,29,29,0,0,0-2.95-1.48,26.08,26.08,0,0,0-3.11-1.1.15.15,0,0,1-.1-.07.13.13,0,0,1,0-.12v-8a2.41,2.41,0,0,0-.19-.93,2.6,2.6,0,0,0-.53-.8,2.72,2.72,0,0,0-.8-.53,2.41,2.41,0,0,0-.93-.19H39.66a2.45,2.45,0,0,0-.93.19,2.55,2.55,0,0,0-.79.53,2.43,2.43,0,0,0-.72,1.73v8a.28.28,0,0,1,0,.13.2.2,0,0,1-.11.06h0A27.51,27.51,0,0,0,34,173.24Z"/><path class="cls-5" d="M313.2,63.34a6.65,6.65,0,1,1-1.95,4.7,6.63,6.63,0,0,1,1.95-4.7Zm1.44-6.6A12.06,12.06,0,0,0,312,57.85a11.33,11.33,0,0,0-2.28,1.73.41.41,0,0,1-.49.06l-3.1-1.79h0a.81.81,0,0,0-.57-.06.73.73,0,0,0-.46.35v0l-2.18,3.77a.79.79,0,0,0-.08.58.81.81,0,0,0,.36.47h0l3.07,1.77a.42.42,0,0,1,.19.45h0a12.38,12.38,0,0,0-.26,1.4,12.91,12.91,0,0,0,0,2.87,12.38,12.38,0,0,0,.26,1.4.42.42,0,0,1-.21.47l-3.07,1.77h0a.82.82,0,0,0-.36.46.81.81,0,0,0,.08.59L305.12,78h0a.73.73,0,0,0,.46.35.79.79,0,0,0,.58-.07h0l3.07-1.78a.42.42,0,0,1,.49.06,11.48,11.48,0,0,0,4.91,2.84.42.42,0,0,1,.3.4v3.56a.76.76,0,0,0,.22.54.76.76,0,0,0,.54.23h4.38a.76.76,0,0,0,.54-.23.76.76,0,0,0,.22-.54V79.75a.41.41,0,0,1,.32-.4,11.85,11.85,0,0,0,2.61-1.11,12.52,12.52,0,0,0,2.29-1.73.41.41,0,0,1,.5-.05l3.07,1.78a.82.82,0,0,0,.59.07.73.73,0,0,0,.46-.35v0l2.18-3.77h0a.77.77,0,0,0,.08-.59.79.79,0,0,0-.36-.46l-3.09-1.78a.42.42,0,0,1-.19-.46h0a10.49,10.49,0,0,0,.25-1.4,11.49,11.49,0,0,0,0-2.87,10.49,10.49,0,0,0-.25-1.4.41.41,0,0,1,.21-.47L332.61,63a.78.78,0,0,0,.36-.47.74.74,0,0,0-.08-.58v0l-2.18-3.77h0a.73.73,0,0,0-.46-.35.79.79,0,0,0-.58.07h0l-3.1,1.79a.41.41,0,0,1-.49-.07,12,12,0,0,0-2.28-1.72,11.54,11.54,0,0,0-2.63-1.11.43.43,0,0,1-.3-.4V52.78a.76.76,0,0,0-.22-.54.76.76,0,0,0-.54-.23h-4.38a.76.76,0,0,0-.54.23.76.76,0,0,0-.22.54v3.56A.41.41,0,0,1,314.64,56.74Z"/><path class="cls-5" d="M637.62,190a6.65,6.65,0,1,1-2,4.71,6.65,6.65,0,0,1,2-4.71Zm1.43-6.59a11.32,11.32,0,0,0-2.6,1.11,11.73,11.73,0,0,0-2.29,1.72.41.41,0,0,1-.49.06l-3.09-1.79h0a.79.79,0,0,0-.56-.06.76.76,0,0,0-.47.36v0l-2.18,3.76a.82.82,0,0,0-.07.59.73.73,0,0,0,.35.46l0,0,3.07,1.77a.42.42,0,0,1,.2.45h0a9.11,9.11,0,0,0-.26,1.4,11.49,11.49,0,0,0,0,2.87,9.47,9.47,0,0,0,.26,1.41.41.41,0,0,1-.22.46l-3.07,1.77h0a.79.79,0,0,0-.28,1.05l2.19,3.79h0a.84.84,0,0,0,.47.36.74.74,0,0,0,.58-.08h0l3.07-1.77a.41.41,0,0,1,.49,0,11.63,11.63,0,0,0,4.91,2.84.43.43,0,0,1,.3.4V210a.76.76,0,0,0,.23.54.73.73,0,0,0,.53.22h4.38a.76.76,0,0,0,.54-.22.76.76,0,0,0,.23-.54v-3.57a.41.41,0,0,1,.31-.4,11.85,11.85,0,0,0,2.61-1.11,11.68,11.68,0,0,0,2.29-1.73.41.41,0,0,1,.51,0l3.07,1.77a.74.74,0,0,0,.58.08.79.79,0,0,0,.46-.36l0,0,2.17-3.77h0a.74.74,0,0,0,.08-.58.8.8,0,0,0-.36-.47L653.94,198a.4.4,0,0,1-.2-.45h0a13,13,0,0,0,.26-1.41,11.2,11.2,0,0,0,.09-1.43,11.36,11.36,0,0,0-.09-1.44,12.38,12.38,0,0,0-.26-1.4.42.42,0,0,1,.22-.47l3.06-1.77a.75.75,0,0,0,.28-1v0l-2.17-3.77h0a.76.76,0,0,0-.47-.36.79.79,0,0,0-.58.07h0L651,186.3a.41.41,0,0,1-.5-.07,11.92,11.92,0,0,0-2.28-1.71,11.57,11.57,0,0,0-2.63-1.12.41.41,0,0,1-.29-.39v-3.57a.79.79,0,0,0-.77-.77h-4.38a.74.74,0,0,0-.53.23.76.76,0,0,0-.23.54V183A.42.42,0,0,1,639.05,183.41Z"/><path class="cls-1" d="M662.69,229.25a1.14,1.14,0,1,0-2.28,0v2.69h-2.69a1.14,1.14,0,1,0,0,2.28h2.69v2.68a1.14,1.14,0,1,0,2.28,0v-2.68h2.68a1.14,1.14,0,1,0,0-2.28h-2.68Z"/><path class="cls-6" d="M416.23,215.27h-68a4.5,4.5,0,0,0-4.49,4.49h0a4.5,4.5,0,0,0,4.49,4.49h68a4.5,4.5,0,0,0,4.49-4.49h0A4.5,4.5,0,0,0,416.23,215.27Z"/><path class="cls-7" d="M414,183.27H382.47a.56.56,0,0,0-.53.48l-5.65,40a.41.41,0,0,0,.41.47h43a.39.39,0,0,0,.4-.47l-5.64-40A.57.57,0,0,0,414,183.27Z"/><path class="cls-7" d="M432.83,215.27h-68a4.5,4.5,0,0,0-4.49,4.49h0a4.5,4.5,0,0,0,4.49,4.49h68a4.5,4.5,0,0,0,4.49-4.49h0A4.5,4.5,0,0,0,432.83,215.27Z"/><path class="cls-8" d="M316.27,95.07H467.06a2.33,2.33,0,0,1,2.33,2.33V198.24a2.33,2.33,0,0,1-2.33,2.33H316.27a2.33,2.33,0,0,1-2.33-2.33V97.4A2.32,2.32,0,0,1,316.27,95.07Z"/><path class="cls-9" d="M323.65,95.07H474.44a2.32,2.32,0,0,1,2.32,2.32V198.24a2.33,2.33,0,0,1-2.33,2.33H323.65a2.33,2.33,0,0,1-2.33-2.33V97.4A2.33,2.33,0,0,1,323.65,95.07Z"/><path class="cls-10" d="M473.18,96.58H324.91a1.56,1.56,0,0,0-1.55,1.54v90.93a1,1,0,0,0,1,1H473.76a1,1,0,0,0,1-1V98.12A1.55,1.55,0,0,0,473.18,96.58Z"/><rect class="cls-11" x="327.72" y="100.94" width="142.64" height="84.71"/><path class="cls-10" d="M385.82,204.71l-1.48,10.56h-6.85l2.08-14.71h37.29l.52,3.68h-31A.57.57,0,0,0,385.82,204.71Z"/><rect class="cls-12" x="327.72" y="100.94" width="143.13" height="4.87"/><rect class="cls-12" x="327.72" y="180.78" width="143.13" height="4.87"/><rect class="cls-13" x="328.62" y="101.97" width="35.95" height="2.8"/><path class="cls-14" d="M362.84,104a.62.62,0,1,0-.61-.61A.61.61,0,0,0,362.84,104Z"/><path class="cls-14" d="M361,104a.62.62,0,1,0,0-1.23.62.62,0,0,0,0,1.23Z"/><path class="cls-14" d="M359.1,104a.62.62,0,1,0,0-1.23.62.62,0,0,0,0,1.23Z"/><rect class="cls-13" x="366.26" y="101.97" width="35.95" height="2.8"/><path class="cls-14" d="M400.48,104a.62.62,0,1,0-.61-.61A.62.62,0,0,0,400.48,104Z"/><path class="cls-14" d="M398.61,104a.62.62,0,1,0-.61-.61A.62.62,0,0,0,398.61,104Z"/><path class="cls-14" d="M396.75,104a.62.62,0,1,0-.62-.61A.62.62,0,0,0,396.75,104Z"/><text class="cls-15" transform="translate(340.55 157.78)">ER<tspan class="cls-16" x="7.71" y="0">R</tspan><tspan x="11.76" y="0">OR </tspan></text><text class="cls-17" transform="translate(356.11 157.7)">404</text><rect class="cls-12" x="379.72" y="171.33" width="17.03" height="5.67"/><rect class="cls-12" x="401.34" y="171.33" width="17.03" height="5.67"/><text class="cls-18" transform="translate(383.94 175.31)">RE<tspan class="cls-19" x="2.57" y="0">L</tspan><tspan class="cls-20" x="3.65" y="0">O</tspan><tspan x="5.34" y="0">AD</tspan></text><text class="cls-18" transform="translate(406.5 175.31)">HOME</text><path class="cls-4" d="M338.72,162.19H459.36a.78.78,0,0,1,.77.77h0a.78.78,0,0,1-.77.77H338.72A.78.78,0,0,1,338,163h0A.78.78,0,0,1,338.72,162.19Z"/><path class="cls-4" d="M348.17,165.83H449.91a.77.77,0,0,1,.77.77h0a.77.77,0,0,1-.77.76H348.17a.77.77,0,0,1-.77-.76h0A.77.77,0,0,1,348.17,165.83Z"/><path class="cls-10" d="M398,210.78h88.43a9,9,0,0,1,9,9h0a9,9,0,0,1-9,9H398a9,9,0,0,1-9-9h0A9,9,0,0,1,398,210.78Z"/><path class="cls-21" d="M381.1,210.78h41a9,9,0,0,1,9,9h0a9,9,0,0,1-9,9h-41a9,9,0,0,1-9-9h0A9,9,0,0,1,381.1,210.78Z"/><rect class="cls-22" x="330.41" y="225.47" width="284.25" height="33.52" rx="5.03"/><path class="cls-6" d="M335.3,225.47H609.77a5,5,0,0,1,4.89,5v9.23a5,5,0,0,1-4.89,5H335.3a5,5,0,0,1-4.89-5V230.5A5,5,0,0,1,335.3,225.47Z"/><rect class="cls-8" x="254.88" y="225.89" width="86.29" height="183.21" rx="5.21"/><path class="cls-22" d="M335,225.89h67.91a4.66,4.66,0,0,1,4.66,4.66V404.43a4.67,4.67,0,0,1-4.67,4.67H335a4.67,4.67,0,0,1-4.67-4.67V230.55A4.67,4.67,0,0,1,335,225.89Z"/><rect class="cls-23" x="330.41" y="219.76" width="297.69" height="11.42" rx="1.71"/><rect class="cls-24" x="246" y="219.76" width="87.44" height="11.42" rx="1.71"/><rect class="cls-12" x="336.13" y="236.96" width="65.68" height="52.66" rx="3.89"/><path class="cls-25" d="M401.77,286.32H344.66a3.91,3.91,0,0,1-3.49-2.17,3.85,3.85,0,0,1-.4-1.72V237.54a3.77,3.77,0,0,1,0-.58H340a3.9,3.9,0,0,0-3.89,3.89v44.89a3.9,3.9,0,0,0,3.89,3.88h57.91A3.9,3.9,0,0,0,401.77,286.32Z"/><rect class="cls-26" x="353.5" y="240.07" width="30.95" height="3.48" rx="1.5"/><rect class="cls-12" x="336.13" y="292.41" width="65.68" height="52.66" rx="3.89"/><path class="cls-25" d="M401.77,341.77H344.66a3.91,3.91,0,0,1-3.49-2.17,3.85,3.85,0,0,1-.4-1.72V293a3.77,3.77,0,0,1,0-.58H340a3.9,3.9,0,0,0-3.89,3.89v44.89a3.9,3.9,0,0,0,3.89,3.89h57.91A3.9,3.9,0,0,0,401.77,341.77Z"/><rect class="cls-26" x="353.5" y="295.52" width="30.95" height="3.48" rx="1.5"/><rect class="cls-12" x="336.13" y="347.86" width="65.68" height="52.66" rx="3.89"/><path class="cls-25" d="M401.77,397.22H344.66a3.91,3.91,0,0,1-3.49-2.17,3.85,3.85,0,0,1-.4-1.72V348.45a3.81,3.81,0,0,1,0-.59H340a3.91,3.91,0,0,0-3.89,3.9v44.88a3.9,3.9,0,0,0,3.89,3.89h57.91A3.9,3.9,0,0,0,401.77,397.22Z"/><rect class="cls-26" x="353.5" y="350.97" width="30.95" height="3.48" rx="1.5"/><rect class="cls-27" x="557.67" y="225.89" width="11.4" height="185.43" rx="0.46"/><rect class="cls-12" x="562.89" y="225.89" width="7.94" height="185.43" rx="2.34"/><rect class="cls-27" x="606.71" y="225.89" width="11.4" height="185.43" rx="0.46"/><rect class="cls-12" x="611.94" y="225.89" width="7.94" height="185.43" rx="2.34"/><path class="cls-28" d="M455.53,219.76H626.39a1.72,1.72,0,0,1,1.71,1.71v8a1.72,1.72,0,0,1-1.71,1.71H466.66A63.89,63.89,0,0,0,455.53,219.76Z"/><path class="cls-29" d="M517.58,170.18l2.14,3.59s.84,4.36-.4,7.34,14.23,6.2,14.23,6.2l12-9.68,2.65-3.31s-5.63-6.12-6-8.77S517.58,170.18,517.58,170.18Z"/><path class="cls-30" d="M490.84,204.49s-8.11,6.54-10.92,7-15.14-5.21-17.63-5.87-8-.66-11.91-.66-8,1.49-10.1,5.79h8.28c2.23,0,9.76,6.12,17,11.09s13.08,9.1,17.88,8.6,21.35-12.91,21.35-12.91Z"/><path class="cls-29" d="M465.6,221.87c7.29,5,13.08,9.1,17.88,8.6s21.35-12.91,21.35-12.91l-14-13.07s-1.87,1.51-4.13,3.13C492.6,217,490,221,483,223.8c-5.54,2.22-19.64-5.49-28.5-9.8C457.72,216.21,461.7,219.2,465.6,221.87Z"/><path class="cls-21" d="M557,280.88s-41.87-.38-47.05.07-10.16,5.89-9.3,14.3,12.58,74,12.58,74a5,5,0,0,0,1.7.77c.91.19,8.4,1.42,8.4,1.42l.51-6.08-4.39-63.79,38.62-7.05Z"/><path class="cls-14" d="M523.85,365.36a2.08,2.08,0,0,1,1.26,1.36,65.37,65.37,0,0,1,1.11,9.4c-.07,1-2.65,3-7.07,4.91s-21.25,6.79-21.25,6.79l-.18-.61a2.3,2.3,0,0,1-1.12-1.38,6.36,6.36,0,0,1,.71-4.63c.92-1.31,6.36-5,7.35-5.83s5.91-7.65,6.31-8.11a5.28,5.28,0,0,1,6.07-.39C520.11,368.58,523.59,368,523.85,365.36Z"/><path class="cls-4" d="M497.72,387.21s16.78-6.16,20.46-7.45a34.27,34.27,0,0,0,8-4.79,1.37,1.37,0,0,1,.72.76c.13.49.23,2.21.27,2.57a2.91,2.91,0,0,1-1.92,2.77c-1.84.79-25.28,9.05-26.35,9.4s-1.5-2.48-1.5-2.48S497.33,387.38,497.72,387.21Z"/><path class="cls-31" d="M582.94,254.89S471,267.81,464.9,269.14s-11.25,8.6-8.93,18.53,27.39,89.68,27.39,89.68a6,6,0,0,0,2.16.66c1.11.08,10.26.41,10.26.41l3.6-3.68-20-71.18,81.76-4.14C584,295.73,587.15,267.8,582.94,254.89Z"/><path class="cls-14" d="M504.2,263.42s8.94,6.62,14.32,4.46,31.2-46.75,31.2-46.75L537.3,176.44a116.71,116.71,0,0,0-18.12,2.48l-1.86,1.7s-7.28,1.24-11.42,5.88-17.71,16.71-18.21,17.7,11.84,14.57,15,16.72a2.55,2.55,0,0,0,2.4-.41l1.49-1.21s3.31,17.24,3.31,22.35v5.1s-1.73,13.19-3.06,14.43S504.2,263.42,504.2,263.42Z"/><path class="cls-4" d="M544.16,271.91a3.75,3.75,0,0,0,0-7.5h-33.1A16.53,16.53,0,0,1,495,251.51a60.73,60.73,0,0,0-6.88,3.34,24.05,24.05,0,0,0,22.93,17.06Z"/><rect class="cls-26" x="544.36" y="301.65" width="9.51" height="78.25"/><rect class="cls-8" x="531.74" y="275.37" width="9.27" height="21.18"/><rect class="cls-8" x="595.79" y="275.37" width="9.27" height="21.18"/><path class="cls-9" d="M544.37,299.79h9.51a5.51,5.51,0,0,1,5.51,5.51v10.17a5.5,5.5,0,0,1-5.5,5.5h-9.51a5.51,5.51,0,0,1-5.51-5.51V305.29A5.51,5.51,0,0,1,544.37,299.79Z"/><rect class="cls-26" x="535.22" y="298.14" width="27.8" height="15.95" rx="1.58"/><path class="cls-32" d="M476.13,292.08h77.13a5.29,5.29,0,0,1,5.29,5.29v6a5.3,5.3,0,0,1-5.3,5.3H476.13a5.3,5.3,0,0,1-5.3-5.3v-6A5.3,5.3,0,0,1,476.13,292.08Z"/><rect class="cls-33" x="526.94" y="292.08" width="87.72" height="16.55" rx="5.3"/><path class="cls-9" d="M544.36,374.8h9.51a5.51,5.51,0,0,1,5.51,5.51v10.17a5.5,5.5,0,0,1-5.5,5.5h-9.51a5.5,5.5,0,0,1-5.5-5.5V380.3A5.51,5.51,0,0,1,544.36,374.8Z"/><rect class="cls-26" x="535.22" y="384.88" width="27.8" height="23.03" rx="2.28"/><path class="cls-34" d="M574.36,402.27h0a6.85,6.85,0,0,1-6.83,6.83H530.71a6.85,6.85,0,0,1-6.83-6.83h0a6.85,6.85,0,0,1,6.83-6.83h36.82A6.85,6.85,0,0,1,574.36,402.27Z"/><path class="cls-10" d="M610.19,409.1h0a6.84,6.84,0,0,1-6.83,6.82H509.77a6.85,6.85,0,0,1-6.83-6.82h0a6.85,6.85,0,0,1,6.83-6.83h93.59A6.85,6.85,0,0,1,610.19,409.1Z"/><path class="cls-6" d="M551.6,409.1h0a6.84,6.84,0,0,1-6.83,6.82h-49.9a6.84,6.84,0,0,1-6.82-6.82h0a6.84,6.84,0,0,1,6.82-6.83h49.9A6.85,6.85,0,0,1,551.6,409.1Z"/><path class="cls-4" d="M530.26,246.75a3.76,3.76,0,0,1,0,7.51h-33.1a16.49,16.49,0,0,0-16.44,16.44v29.83a3.76,3.76,0,1,1-7.51,0V270.7a24,24,0,0,1,24-23.95Z"/><path class="cls-35" d="M603.73,206.77a41.25,41.25,0,0,0-41.13-41.13h-5.45A41.25,41.25,0,0,0,516,206.77v61.17a10.6,10.6,0,0,0,10.57,10.57h66.57a10.6,10.6,0,0,0,10.57-10.57Z"/><path class="cls-36" d="M614.66,206.77a41.25,41.25,0,0,0-41.13-41.13h-5.46a41.25,41.25,0,0,0-41.13,41.13v61.17a10.61,10.61,0,0,0,10.57,10.57h66.58a10.61,10.61,0,0,0,10.57-10.57Z"/><path class="cls-14" d="M498.5,371.89a3.2,3.2,0,0,1,2.34,1.21c.91,1.2,4.14,9.48,4.31,10.72s-3.31,4.39-9.68,7.94-31.24,14.48-31.24,14.48l-.46-.66a3.3,3.3,0,0,1-2.11-1.28,6,6,0,0,1-.16-5.67c1.07-1.82,8.52-7.86,9.84-9.1s7.12-10.8,7.62-11.46,4.09-3.4,9.35-2.32S498.82,375.05,498.5,371.89Z"/><path class="cls-4" d="M463.77,405.58s24.46-12.37,29.83-15,11.17-8.08,11.17-8.08,1,.14,1.33.67.95,2.53,1.12,2.94.41,2.36-2.24,3.85-36.91,18.37-38.48,19.11-3-2.46-3-2.46A.83.83,0,0,1,463.77,405.58Z"/><path class="cls-30" d="M510.45,119.82l4-.93a17.76,17.76,0,0,1,21.28,13.22l4.45,19a17.78,17.78,0,0,1-13.22,21.29l-4,.92a17.77,17.77,0,0,1-21.29-13.21l-4.44-19A17.77,17.77,0,0,1,510.45,119.82Z"/><path class="cls-29" d="M536.22,134.29l3.94,16.82a17.78,17.78,0,0,1-13.22,21.29l-4,.92a17.54,17.54,0,0,1-11.32-1.12c.47.2,3.84,1.51,4.59-1,.81-2.66-3.8-11.23-3.8-11.23a1.08,1.08,0,0,1,.08-1.09A15.89,15.89,0,0,0,514.4,148c-1.15-5.71,6.23-9.69,6.23-9.69l-17.07,4.63v3.47a8.15,8.15,0,0,0-6.1-4.31l-.22-1a17.64,17.64,0,0,1,1.81-12.69C504.72,129.11,523.26,131.48,536.22,134.29Z"/><path class="cls-10" d="M504.7,151.72s-1.55-.17-2.06-2.35-.68-2.89-.68-2.89a18.4,18.4,0,0,1-2.62-6.37s-10.1-1.41-12.06-10.76,6.74-19.23,8-20.21,6.66-2.83,13.4.19c0,0,1.15.71,3.35-.18s14.59-4.39,20.58-4.59,9.85,6,12.66,13.49a4.38,4.38,0,0,1,3.37-3.66c3-.63,1.4,5-.79,7,0,0,5.15,2.65,6.14,8.15s-.88,29.78-5.48,34.62-16.2,6.92-19.9,7.78-11-2.95-14-13.12c0,0,1.46-5.06.26-9.23s-2.3-7.23-3.86-7.77-5.4,3.49-5.73,5.3a11.35,11.35,0,0,0,.4,4.29A1.48,1.48,0,0,1,504.7,151.72Z"/><path class="cls-21" d="M504.7,151.72s-1.55-.17-2.06-2.35-.68-2.89-.68-2.89a18.4,18.4,0,0,1-2.62-6.37s-10.1-1.41-12.06-10.76,6.74-19.23,8-20.21c0,0-9.52,10.39,1,15.73s26,8.72,36.19,8.07,17.4-18.3,17.41-18.31c1.17,1.11-.24,5.15-2,6.73,0,0,5.15,2.65,6.14,8.15s-.88,29.78-5.48,34.62-16.2,6.92-19.9,7.78-11-2.95-14-13.12c0,0,1.46-5.06.26-9.23s-2.3-7.23-3.85-7.77-5.41,3.49-5.74,5.3a11.35,11.35,0,0,0,.4,4.29A1.48,1.48,0,0,1,504.7,151.72Z"/><path class="cls-1" d="M644.6,306.8a1.15,1.15,0,0,0-2.29,0v2.68h-2.68a1.15,1.15,0,0,0,0,2.29h2.68v2.68a1.15,1.15,0,0,0,2.29,0v-2.68h2.68a1.15,1.15,0,0,0,0-2.29H644.6Z"/><path class="cls-1" d="M576.09,70.28a1.14,1.14,0,1,0-2.28,0V73h-2.68a1.14,1.14,0,1,0,0,2.28h2.68v2.69a1.14,1.14,0,0,0,2.28,0V75.24h2.69a1.14,1.14,0,0,0,0-2.28h-2.69Z"/><path class="cls-1" d="M446.84,27.62a1.14,1.14,0,1,0-2.28,0v2.69h-2.68a1.14,1.14,0,1,0,0,2.28h2.68v2.69a1.14,1.14,0,1,0,2.28,0V32.59h2.69a1.14,1.14,0,0,0,0-2.28h-2.69Z"/><path class="cls-1" d="M127.6,255.1a1.14,1.14,0,0,0-2.28,0v2.68h-2.69a1.15,1.15,0,0,0,0,2.29h2.69v2.68a1.14,1.14,0,0,0,2.28,0v-2.68h2.69a1.15,1.15,0,0,0,0-2.29H127.6Z"/><path class="cls-1" d="M238.76,107.76a1.15,1.15,0,0,0-2.29,0v2.68h-2.68a1.14,1.14,0,1,0,0,2.28h2.68v2.69a1.15,1.15,0,0,0,2.29,0v-2.69h2.68a1.14,1.14,0,1,0,0-2.28h-2.68Z"/><path class="cls-1" d="M108.21,363.67a1.14,1.14,0,0,0-2.28,0v2.68h-2.68a1.15,1.15,0,0,0,0,2.29h2.68v2.68a1.14,1.14,0,0,0,2.28,0v-2.68h2.69a1.15,1.15,0,0,0,0-2.29h-2.69Z"/><path class="cls-1" d="M6.11,281a1.14,1.14,0,0,0-2.28,0v2.68H1.14a1.15,1.15,0,0,0,0,2.29H3.83v2.68a1.14,1.14,0,0,0,2.28,0v-2.68H8.79a1.15,1.15,0,0,0,0-2.29H6.11Z"/><path class="cls-37" d="M282.83,276.6c16.18-8.59,20.29,10.11,14,25.61s-38.57,67.59-40.25,88.26c-.66,8-2.15,7.13-3.43,1.52C246.78,364,260.56,288.44,282.83,276.6Z"/><path class="cls-38" d="M248.58,205.62c-18.55-16.7-30.15,6.68-27,29.23s28.69,102.08,24.1,130c-1.78,10.81.49,10.14,4,3.14C267.43,333,274.11,228.61,248.58,205.62Z"/><path class="cls-39" d="M245.35,372.55c.39,1,1.27.52,2.46-1.2,19.33-64.41-10.79-160.63-10.88-160.94a1,1,0,0,0-1.26-.66A1,1,0,0,0,235,211C235.1,211.32,265.63,308.85,245.35,372.55Z"/><path class="cls-40" d="M208.06,259.13c-18-7.82-20.79,12.48-12.79,28.48s46.77,68.9,50.29,90.8c1.36,8.49,2.88,7.43,3.78,1.34C253.81,349.33,232.8,269.9,208.06,259.13Z"/><path class="cls-41" d="M247.2,384.28c.55.67,1.08.07,1.53-1.51-1.63-52.78-48-117-48.16-117.17a.79.79,0,0,0-1.28.92C199.44,266.73,246.46,331.78,247.2,384.28Z"/><polygon class="cls-7" points="233.37 372.59 267.9 372.59 276.92 380.73 269.55 409.1 250.64 409.1 231.72 409.1 224.35 380.73 233.37 372.59"/><rect class="cls-9" x="221.5" y="362.03" width="58.28" height="18.69" rx="2.86"/><polygon class="cls-10" points="276.92 380.73 275.4 386.56 225.87 386.56 224.35 380.73 276.92 380.73"/></g></g></svg>