<svg xmlns="http://www.w3.org/2000/svg" viewBox="0 0 619.12 398.19"><defs><style>.cls-1{fill:#f5f5f5;}.cls-2{fill:#e0e0e0;}.cls-3{fill:#fff;}.cls-4{fill:#ebebeb;}.cls-5{fill:#fafafa;}.cls-6{fill:#263238;}.cls-7{fill:#455a64;}.cls-8{fill:#e8505b;}.cls-9{opacity:0.4;}.cls-10{opacity:0.3;}.cls-11{fill:#ffbe9d;}.cls-12{fill:#eb996e;}.cls-13{opacity:0.2;}</style></defs><g id="Layer_2" data-name="Layer 2"><g id="Background_Complete" data-name="Background Complete"><polygon class="cls-1" points="182.5 206.16 19.52 206.16 31.57 90.06 195.93 90.06 182.5 206.16"/><path class="cls-2" d="M37.43,186.68c-.14,0,1.55-17.48,3.77-39s4.13-39,4.28-38.95-1.54,17.47-3.77,39S37.58,186.69,37.43,186.68Z"/><path class="cls-2" d="M67.11,112.63a65.35,65.35,0,0,1-8.18.26,65.35,65.35,0,0,1-8.18-.26,63.13,63.13,0,0,1,8.18-.26A63.13,63.13,0,0,1,67.11,112.63Z"/><path class="cls-2" d="M136.72,112.63c0,.14-14.59.26-32.58.26s-32.59-.12-32.59-.26,14.58-.26,32.59-.26S136.72,112.48,136.72,112.63Z"/><path class="cls-2" d="M65.18,153.88a63.13,63.13,0,0,1-8.18.26,63.13,63.13,0,0,1-8.18-.26,65.35,65.35,0,0,1,8.18-.26A65.35,65.35,0,0,1,65.18,153.88Z"/><path class="cls-2" d="M134.79,153.88c0,.15-14.59.26-32.58.26s-32.59-.11-32.59-.26,14.59-.26,32.59-.26S134.79,153.74,134.79,153.88Z"/><path class="cls-2" d="M112.59,172.9c0,.15-14.59.26-32.58.26s-32.59-.11-32.59-.26S62,172.64,80,172.64,112.59,172.76,112.59,172.9Z"/><path class="cls-2" d="M74.32,124.28c0,.14-5.15.26-11.51.26s-11.51-.12-11.51-.26,5.15-.27,11.51-.27S74.32,124.13,74.32,124.28Z"/><path class="cls-2" d="M73.73,141.35c0,.15-5.15.26-11.51.26s-11.51-.11-11.51-.26,5.16-.26,11.51-.26S73.73,141.21,73.73,141.35Z"/><path class="cls-2" d="M93.19,165.76c0,.14-5.15.26-11.5.26s-11.51-.12-11.51-.26,5.15-.26,11.51-.26S93.19,165.61,93.19,165.76Z"/><path class="cls-2" d="M158.06,124.28c0,.14-13.17.26-29.4.26s-29.41-.12-29.41-.26,13.17-.27,29.41-.27S158.06,124.13,158.06,124.28Z"/><path class="cls-2" d="M139.91,142.34c0,.15-13.16.26-29.4.26s-29.41-.11-29.41-.26,13.17-.26,29.41-.26S139.91,142.2,139.91,142.34Z"/><path class="cls-2" d="M160.15,165.76c0,.14-13.17.26-29.4.26s-29.41-.12-29.41-.26,13.16-.26,29.41-.26S160.15,165.61,160.15,165.76Z"/><path class="cls-2" d="M106.45,186.68c0,.14-13.16.26-29.4.26s-29.4-.12-29.4-.26,13.16-.26,29.4-.26S106.45,186.53,106.45,186.68Z"/><path class="cls-2" d="M171.49,186.68c0,.14-13.17.26-29.41.26s-29.4-.12-29.4-.26,13.16-.26,29.4-.26S171.49,186.53,171.49,186.68Z"/><path class="cls-2" d="M106.45,193.48c0,.15-13.17.26-29.4.26s-29.41-.11-29.41-.26,13.16-.26,29.41-.26S106.45,193.34,106.45,193.48Z"/><path class="cls-2" d="M109.31,129.18c0,.14-13.17.26-29.4.26s-29.41-.12-29.41-.26,13.17-.26,29.41-.26S109.31,129,109.31,129.18Z"/><path class="cls-2" d="M93.63,124.34a56.13,56.13,0,0,1-7.58.26,56,56,0,0,1-7.57-.26,54.13,54.13,0,0,1,7.57-.26A54.23,54.23,0,0,1,93.63,124.34Z"/><path class="cls-2" d="M63.26,159.49a56.25,56.25,0,0,1-7.58.26,56,56,0,0,1-7.57-.26,56,56,0,0,1,7.57-.26A56.25,56.25,0,0,1,63.26,159.49Z"/><path class="cls-2" d="M62.9,165.76a56.13,56.13,0,0,1-7.58.26,56,56,0,0,1-7.57-.26,54.13,54.13,0,0,1,7.57-.26A54.23,54.23,0,0,1,62.9,165.76Z"/><path class="cls-2" d="M194.13,102.34c0,.15-36.65.26-81.85.26s-81.87-.11-81.87-.26,36.65-.26,81.87-.26S194.13,102.2,194.13,102.34Z"/><circle class="cls-3" cx="41.46" cy="96.81" r="1.94"/><circle class="cls-3" cx="49.79" cy="96.81" r="1.94"/><circle class="cls-3" cx="58.12" cy="96.81" r="1.94"/><polygon class="cls-1" points="605.69 148.11 442.71 148.11 454.76 32.02 619.12 32.02 605.69 148.11"/><path class="cls-2" d="M460.63,128.63c-.15,0,1.54-17.48,3.76-39s4.14-39,4.28-38.94-1.54,17.47-3.76,39S460.77,128.64,460.63,128.63Z"/><path class="cls-2" d="M490.3,54.58a65.35,65.35,0,0,1-8.18.26,65.35,65.35,0,0,1-8.18-.26,128.81,128.81,0,0,1,16.36,0Z"/><path class="cls-2" d="M559.91,54.58c0,.14-14.59.26-32.58.26s-32.59-.12-32.59-.26,14.59-.26,32.59-.26S559.91,54.44,559.91,54.58Z"/><path class="cls-2" d="M488.37,95.84a128.81,128.81,0,0,1-16.36,0,128.81,128.81,0,0,1,16.36,0Z"/><path class="cls-2" d="M558,95.84c0,.14-14.6.26-32.59.26s-32.59-.12-32.59-.26,14.59-.26,32.59-.26S558,95.69,558,95.84Z"/><path class="cls-2" d="M535.79,114.86c0,.14-14.6.26-32.59.26s-32.59-.12-32.59-.26,14.59-.26,32.59-.26S535.79,114.71,535.79,114.86Z"/><path class="cls-2" d="M497.51,66.23c0,.14-5.15.26-11.51.26s-11.51-.12-11.51-.26S479.65,66,486,66,497.51,66.08,497.51,66.23Z"/><path class="cls-2" d="M496.93,83.3c0,.15-5.16.26-11.51.26s-11.51-.11-11.51-.26,5.15-.26,11.51-.26S496.93,83.16,496.93,83.3Z"/><path class="cls-2" d="M516.39,107.71c0,.14-5.16.26-11.51.26s-11.51-.12-11.51-.26,5.15-.26,11.51-.26S516.39,107.57,516.39,107.71Z"/><path class="cls-2" d="M581.25,66.23c0,.14-13.16.26-29.4.26s-29.4-.12-29.4-.26,13.16-.26,29.4-.26S581.25,66.08,581.25,66.23Z"/><path class="cls-2" d="M563.1,84.29c0,.15-13.16.26-29.4.26s-29.4-.11-29.4-.26S517.46,84,533.7,84,563.1,84.15,563.1,84.29Z"/><path class="cls-2" d="M583.34,107.71c0,.14-13.16.26-29.4.26s-29.41-.12-29.41-.26,13.17-.26,29.41-.26S583.34,107.57,583.34,107.71Z"/><path class="cls-2" d="M529.65,128.63c0,.14-13.17.26-29.41.26s-29.4-.12-29.4-.26,13.16-.26,29.4-.26S529.65,128.48,529.65,128.63Z"/><path class="cls-2" d="M594.68,128.63c0,.14-13.17.26-29.4.26s-29.41-.12-29.41-.26,13.16-.26,29.41-.26S594.68,128.48,594.68,128.63Z"/><path class="cls-2" d="M529.64,135.43c0,.15-13.16.26-29.4.26s-29.41-.11-29.41-.26,13.17-.26,29.41-.26S529.64,135.29,529.64,135.43Z"/><path class="cls-2" d="M532.5,71.13c0,.14-13.16.26-29.4.26s-29.4-.12-29.4-.26,13.16-.26,29.4-.26S532.5,71,532.5,71.13Z"/><path class="cls-2" d="M516.82,66.29a110.48,110.48,0,0,1-15.15,0,110.48,110.48,0,0,1,15.15,0Z"/><path class="cls-2" d="M486.45,101.44a110.48,110.48,0,0,1-15.15,0,110.48,110.48,0,0,1,15.15,0Z"/><path class="cls-2" d="M486.09,107.71a110.48,110.48,0,0,1-15.15,0,110.48,110.48,0,0,1,15.15,0Z"/><path class="cls-2" d="M617.32,44.29c0,.15-36.65.26-81.85.26s-81.86-.11-81.86-.26S490.25,44,535.47,44,617.32,44.15,617.32,44.29Z"/><circle class="cls-3" cx="464.65" cy="38.76" r="1.94"/><circle class="cls-3" cx="472.98" cy="38.76" r="1.94"/><circle class="cls-3" cx="481.31" cy="38.76" r="1.94"/><polygon class="cls-4" points="263.86 72.31 162.35 72.31 169.85 0 272.22 0 263.86 72.31"/><path class="cls-2" d="M173.51,60.17c-.15,0,.86-10.89,2.24-24.29s2.62-24.26,2.77-24.25-.87,10.9-2.25,24.3S173.65,60.19,173.51,60.17Z"/><path class="cls-2" d="M192,14.05a24.66,24.66,0,0,1-5.1.26,24.6,24.6,0,0,1-5.09-.26,25.46,25.46,0,0,1,5.09-.26A25.53,25.53,0,0,1,192,14.05Z"/><path class="cls-2" d="M235.34,14.05c0,.15-9.08.26-20.29.26s-20.3-.11-20.3-.26,9.09-.26,20.3-.26S235.34,13.91,235.34,14.05Z"/><path class="cls-2" d="M190.79,39.75a25.53,25.53,0,0,1-5.1.26,25.46,25.46,0,0,1-5.09-.26,25.46,25.46,0,0,1,5.09-.26A25.53,25.53,0,0,1,190.79,39.75Z"/><path class="cls-2" d="M234.14,39.75c0,.14-9.08.26-20.29.26s-20.3-.12-20.3-.26,9.09-.26,20.3-.26S234.14,39.61,234.14,39.75Z"/><path class="cls-2" d="M220.32,51.59c0,.15-9.09.26-20.3.26s-20.3-.11-20.3-.26,9.09-.26,20.3-.26S220.32,51.45,220.32,51.59Z"/><path class="cls-2" d="M196.48,21.31a50.28,50.28,0,0,1-7.17.26,50.28,50.28,0,0,1-7.17-.26,48.58,48.58,0,0,1,7.17-.26A48.58,48.58,0,0,1,196.48,21.31Z"/><path class="cls-2" d="M196.11,31.94a48.38,48.38,0,0,1-7.16.26,48.58,48.58,0,0,1-7.17-.26,50.28,50.28,0,0,1,7.17-.26A50.08,50.08,0,0,1,196.11,31.94Z"/><path class="cls-2" d="M208.24,47.14a48.58,48.58,0,0,1-7.17.26,48.58,48.58,0,0,1-7.17-.26,50.28,50.28,0,0,1,7.17-.26A50.28,50.28,0,0,1,208.24,47.14Z"/><path class="cls-2" d="M248.64,21.31c0,.14-8.2.26-18.32.26S212,21.45,212,21.31s8.2-.26,18.31-.26S248.64,21.16,248.64,21.31Z"/><path class="cls-2" d="M237.33,32.56c0,.14-8.2.26-18.31.26s-18.31-.12-18.31-.26,8.19-.26,18.31-.26S237.33,32.42,237.33,32.56Z"/><path class="cls-2" d="M249.94,47.14c0,.15-8.2.26-18.32.26s-18.31-.11-18.31-.26,8.2-.26,18.31-.26S249.94,47,249.94,47.14Z"/><path class="cls-2" d="M216.49,60.17c0,.15-8.2.26-18.31.26s-18.31-.11-18.31-.26,8.19-.26,18.31-.26S216.49,60,216.49,60.17Z"/><path class="cls-2" d="M257,60.17c0,.15-8.2.26-18.31.26s-18.32-.11-18.32-.26,8.2-.26,18.32-.26S257,60,257,60.17Z"/><path class="cls-2" d="M216.49,64.41c0,.15-8.2.26-18.31.26s-18.32-.11-18.32-.26,8.2-.26,18.32-.26S216.49,64.27,216.49,64.41Z"/><path class="cls-2" d="M218.27,24.36c0,.15-8.2.26-18.31.26s-18.31-.11-18.31-.26,8.19-.26,18.31-.26S218.27,24.22,218.27,24.36Z"/><path class="cls-2" d="M208.51,21.35a22,22,0,0,1-4.72.26,21.9,21.9,0,0,1-4.72-.26,21.16,21.16,0,0,1,4.72-.26A21.23,21.23,0,0,1,208.51,21.35Z"/><path class="cls-2" d="M189.59,43.24a21.9,21.9,0,0,1-4.72.26,22,22,0,0,1-4.72-.26,22,22,0,0,1,4.72-.26A21.9,21.9,0,0,1,189.59,43.24Z"/><path class="cls-2" d="M189.37,47.14a21.23,21.23,0,0,1-4.72.26,21.16,21.16,0,0,1-4.72-.26,21.9,21.9,0,0,1,4.72-.26A22,22,0,0,1,189.37,47.14Z"/><path class="cls-2" d="M271.1,7.65c0,.14-22.83.26-51,.26s-51-.12-51-.26,22.83-.26,51-.26S271.1,7.5,271.1,7.65Z"/><path class="cls-3" d="M177.22,4.2A1.21,1.21,0,1,1,176,3,1.21,1.21,0,0,1,177.22,4.2Z"/><path class="cls-3" d="M182.41,4.2A1.21,1.21,0,1,1,181.2,3,1.21,1.21,0,0,1,182.41,4.2Z"/><path class="cls-3" d="M187.6,4.2A1.21,1.21,0,1,1,186.39,3,1.21,1.21,0,0,1,187.6,4.2Z"/><rect class="cls-4" x="488.61" y="198.5" width="51.12" height="165.46"/><rect class="cls-2" x="539.73" y="198.53" width="43.4" height="165.4"/><rect class="cls-2" x="492.61" y="205.2" width="41.01" height="35.64"/><rect class="cls-2" x="492.61" y="244.88" width="41.01" height="35.64"/><rect class="cls-2" x="492.61" y="284.56" width="41.01" height="35.64"/><rect class="cls-2" x="492.61" y="324.24" width="41.01" height="35.64"/><path class="cls-5" d="M513.11,211.78a1.42,1.42,0,1,1-1.42-1.42A1.42,1.42,0,0,1,513.11,211.78Z"/><path class="cls-5" d="M513.11,251.92a1.42,1.42,0,1,1-1.42-1.42A1.42,1.42,0,0,1,513.11,251.92Z"/><path class="cls-5" d="M513.11,292.07a1.42,1.42,0,1,1-1.42-1.43A1.42,1.42,0,0,1,513.11,292.07Z"/><path class="cls-5" d="M513.11,332.21a1.42,1.42,0,1,1-1.42-1.42A1.42,1.42,0,0,1,513.11,332.21Z"/><rect class="cls-2" x="488.61" y="363.96" width="5.91" height="33.19"/><rect class="cls-2" x="533.62" y="363.96" width="5.91" height="33.19"/><rect class="cls-2" x="576.59" y="363.96" width="5.91" height="33.19"/><path class="cls-1" d="M59.18,387.78c-1.52-1.29-4.9-5.39-2.29-10.16,1-1.74,3-2.61,4.82-3.38A19.77,19.77,0,0,0,67,371.52c2.87-2.43,3.66-6.47,5.56-9.71,2.19-3.71,6.27-6.5,10.57-6.3,4.94.22,9.05,4.23,10.92,8.8S96,374,96,378.9c0,2.73-.1,5.81-2.12,7.66-1.86,1.7-4.65,1.72-7.17,1.64l-27-.82"/><path class="cls-2" d="M110.75,314H39.84l12.77,75.81a8.48,8.48,0,0,0,6.06,6.75l.25.07a6.45,6.45,0,0,0,.63.16,8.46,8.46,0,0,0,1.44.17V397l.35-.05H93a9,9,0,0,0,1.74-.18,8.5,8.5,0,0,0,7.17-7.41L108,337.14l.28-2.08h0l2.44-20.69ZM97.37,362.34H90.1l.73-22h8.43Zm2.6-22h7l-2.59,22H98.08ZM79.18,386.73l-.44-19.11H89.21l-.63,19.11ZM67.85,367.62H78l.44,19.11H69.34Zm.79,19.11H60.1c-.81-5.16-1.87-11.87-3-19.11h10Zm-1.2-24.39-1.72-22H77.4l.51,22Zm11.17,0-.51-22h12l-.73,22ZM78,335.06l-.47-20.38H91l-.68,20.38Zm-.7,0h-12l-1.59-20.38H76.81Zm-12.68,0H51.94c-.45-2.81-.88-5.48-1.26-7.87-1.32-8.24-1.82-11.34-2.1-12.51H63Zm.41,5.28,1.72,22H56.26c-.36-2.23-.71-4.49-1.07-6.75-.82-5.19-1.64-10.39-2.41-15.25Zm-9.47,22H48.7l-3.71-22h7.07C53.14,347.14,54.34,354.71,55.54,362.34Zm.84,5.28c1,6.61,2.07,13.13,3,19.11H52.81l-3.22-19.11Zm32.9,19.11.64-19.11h7l-1.64,19.11ZM91,335.06l.68-20.38h9.77l-1.75,20.38Zm-43.1-20.38c.28,1.48,1.58,9.5,3.31,20.38H44.11l-3.44-20.38Zm53.55,72.05H96l1.65-19.11h6.09Zm6.1-51.67h-7.14l1.75-20.38H110Z"/></g><g id="Floor"><path class="cls-6" d="M578.08,397.14c0,.15-129.42.26-289,.26s-289-.11-289-.26,129.39-.26,289.05-.26S578.08,397,578.08,397.14Z"/></g><g id="Screens"><polygon class="cls-6" points="323.22 180.83 212.32 180.83 220.51 101.83 332.36 101.83 323.22 180.83"/><polygon class="cls-7" points="317.57 180.83 206.67 180.83 214.87 101.83 326.71 101.83 317.57 180.83"/><polygon class="cls-1" points="313.46 177.25 210.55 177.25 218.16 103.94 321.94 103.94 313.46 177.25"/><path class="cls-6" d="M221.7,165c-.14,0,.88-11.05,2.28-24.63s2.66-24.6,2.8-24.58-.87,11-2.28,24.63S221.85,165,221.7,165Z"/><path class="cls-6" d="M240.44,118.27a26.15,26.15,0,0,1-5.16.26,26.21,26.21,0,0,1-5.17-.26,26.21,26.21,0,0,1,5.17-.26A26.15,26.15,0,0,1,240.44,118.27Z"/><path class="cls-8" d="M284.4,118.27c0,.14-9.22.26-20.58.26s-20.58-.12-20.58-.26,9.22-.26,20.58-.26S284.4,118.13,284.4,118.27Z"/><path class="cls-6" d="M239.22,144.32a25.27,25.27,0,0,1-5.16.26,25.33,25.33,0,0,1-5.17-.26,26.21,26.21,0,0,1,5.17-.26A26.15,26.15,0,0,1,239.22,144.32Z"/><path class="cls-8" d="M283.18,144.32c0,.15-9.21.26-20.58.26s-20.57-.11-20.57-.26,9.21-.26,20.57-.26S283.18,144.18,283.18,144.32Z"/><path class="cls-8" d="M269.16,156.33c0,.14-9.21.26-20.57.26s-20.58-.12-20.58-.26,9.21-.26,20.58-.26S269.16,156.19,269.16,156.33Z"/><path class="cls-8" d="M245,125.62a49.09,49.09,0,0,1-7.27.27,49,49,0,0,1-7.27-.27,51.63,51.63,0,0,1,7.27-.26A51.75,51.75,0,0,1,245,125.62Z"/><path class="cls-8" d="M244.63,136.41a51.75,51.75,0,0,1-7.27.26,51.63,51.63,0,0,1-7.27-.26,49.88,49.88,0,0,1,7.27-.26A50,50,0,0,1,244.63,136.41Z"/><path class="cls-8" d="M256.91,151.82a51.55,51.55,0,0,1-7.26.26,51.63,51.63,0,0,1-7.27-.26,49.88,49.88,0,0,1,7.27-.26A49.8,49.8,0,0,1,256.91,151.82Z"/><path class="cls-6" d="M297.87,125.62c0,.15-8.31.27-18.56.27s-18.57-.12-18.57-.27,8.31-.26,18.57-.26S297.87,125.48,297.87,125.62Z"/><path class="cls-6" d="M286.41,137c0,.15-8.31.26-18.56.26s-18.57-.11-18.57-.26,8.31-.26,18.57-.26S286.41,136.89,286.41,137Z"/><path class="cls-6" d="M299.19,151.82c0,.14-8.31.26-18.57.26s-18.56-.12-18.56-.26,8.31-.26,18.56-.26S299.19,151.67,299.19,151.82Z"/><path class="cls-6" d="M265.29,165c0,.14-8.32.26-18.57.26s-18.57-.12-18.57-.26,8.31-.26,18.57-.26S265.29,164.88,265.29,165Z"/><path class="cls-6" d="M306.35,165c0,.14-8.31.26-18.57.26s-18.56-.12-18.56-.26,8.31-.26,18.56-.26S306.35,164.88,306.35,165Z"/><path class="cls-6" d="M265.28,169.32c0,.15-8.31.26-18.56.26s-18.57-.11-18.57-.26,8.31-.26,18.57-.26S265.28,169.18,265.28,169.32Z"/><path class="cls-6" d="M267.09,128.72c0,.14-8.31.26-18.57.26s-18.56-.12-18.56-.26,8.31-.26,18.56-.26S267.09,128.58,267.09,128.72Z"/><path class="cls-7" d="M257.19,125.66a42.54,42.54,0,0,1-9.57,0,44.16,44.16,0,0,1,9.57,0Z"/><path class="cls-7" d="M238,147.86a21.72,21.72,0,0,1-4.78.26,21.77,21.77,0,0,1-4.79-.26,22.53,22.53,0,0,1,4.79-.26A22.47,22.47,0,0,1,238,147.86Z"/><path class="cls-7" d="M237.78,151.82a22.47,22.47,0,0,1-4.78.26,22.47,22.47,0,0,1-4.78-.26,21.72,21.72,0,0,1,4.78-.26A21.72,21.72,0,0,1,237.78,151.82Z"/><path class="cls-6" d="M320.65,111.78c0,.14-23.15.26-51.69.26s-51.69-.12-51.69-.26,23.14-.27,51.69-.27S320.65,111.63,320.65,111.78Z"/><path class="cls-3" d="M225.47,108.28a1.23,1.23,0,1,1-1.23-1.23A1.22,1.22,0,0,1,225.47,108.28Z"/><path class="cls-3" d="M230.73,108.28a1.23,1.23,0,1,1-1.23-1.23A1.22,1.22,0,0,1,230.73,108.28Z"/><path class="cls-3" d="M236,108.28a1.23,1.23,0,1,1-1.22-1.23A1.22,1.22,0,0,1,236,108.28Z"/><polygon class="cls-6" points="468.91 183.22 352.25 183.22 360.87 100.12 478.52 100.12 468.91 183.22"/><polygon class="cls-7" points="462.97 183.22 346.31 183.22 354.93 100.12 472.59 100.12 462.97 183.22"/><polygon class="cls-4" points="458.65 179.46 350.39 179.46 358.39 102.35 467.57 102.35 458.65 179.46"/><path class="cls-6" d="M362.19,165.44c-.15,0,.93-11.62,2.41-25.91s2.79-25.87,2.93-25.85-.94,11.61-2.41,25.91S362.33,165.45,362.19,165.44Z"/><path class="cls-6" d="M381.9,116.26a56.94,56.94,0,0,1-10.87,0,54.84,54.84,0,0,1,10.87,0Z"/><path class="cls-8" d="M428.14,116.26c0,.14-9.7.26-21.65.26s-21.64-.12-21.64-.26,9.68-.27,21.64-.27S428.14,116.11,428.14,116.26Z"/><path class="cls-6" d="M380.62,143.66a56.94,56.94,0,0,1-10.87,0,56.94,56.94,0,0,1,10.87,0Z"/><path class="cls-8" d="M426.85,143.66c0,.14-9.69.26-21.64.26s-21.65-.12-21.65-.26,9.69-.26,21.65-.26S426.85,143.52,426.85,143.66Z"/><path class="cls-8" d="M412.11,156.29c0,.15-9.69.26-21.65.26s-21.64-.11-21.64-.26,9.69-.26,21.64-.26S412.11,156.15,412.11,156.29Z"/><path class="cls-8" d="M386.69,124a55.33,55.33,0,0,1-7.65.26,55.12,55.12,0,0,1-7.64-.26,112.53,112.53,0,0,1,15.29,0Z"/><path class="cls-8" d="M386.3,135.33a54.2,54.2,0,0,1-7.65.27,54.12,54.12,0,0,1-7.64-.27,112.53,112.53,0,0,1,15.29,0Z"/><path class="cls-8" d="M399.22,151.55a112.53,112.53,0,0,1-15.29,0,112.53,112.53,0,0,1,15.29,0Z"/><path class="cls-6" d="M442.31,124c0,.15-8.75.26-19.53.26s-19.53-.11-19.53-.26,8.74-.26,19.53-.26S442.31,123.85,442.31,124Z"/><path class="cls-6" d="M430.25,136c0,.15-8.74.26-19.52.26s-19.54-.11-19.54-.26,8.75-.26,19.54-.26S430.25,135.85,430.25,136Z"/><path class="cls-6" d="M443.7,151.55c0,.14-8.75.26-19.53.26s-19.53-.12-19.53-.26,8.74-.26,19.53-.26S443.7,151.4,443.7,151.55Z"/><path class="cls-6" d="M408,165.44c0,.14-8.74.26-19.53.26s-19.53-.12-19.53-.26,8.74-.26,19.53-.26S408,165.3,408,165.44Z"/><path class="cls-6" d="M451.23,165.44c0,.14-8.75.26-19.53.26s-19.53-.12-19.53-.26,8.74-.26,19.53-.26S451.23,165.3,451.23,165.44Z"/><path class="cls-6" d="M408,170c0,.14-8.75.26-19.53.26S369,170.1,369,170s8.74-.26,19.53-.26S408,169.82,408,170Z"/><path class="cls-6" d="M409.93,127.25c0,.14-8.75.26-19.53.26s-19.53-.12-19.53-.26,8.74-.26,19.53-.26S409.93,127.11,409.93,127.25Z"/><path class="cls-7" d="M399.51,124a48.79,48.79,0,0,1-10.06,0,48.79,48.79,0,0,1,10.06,0Z"/><path class="cls-7" d="M379.34,147.38a48.79,48.79,0,0,1-10.06,0,48.79,48.79,0,0,1,10.06,0Z"/><path class="cls-7" d="M379.1,151.55a48.79,48.79,0,0,1-10.06,0,48.79,48.79,0,0,1,10.06,0Z"/><path class="cls-6" d="M466.27,109.42c0,.15-24.35.26-54.37.26s-54.38-.11-54.38-.26,24.34-.26,54.38-.26S466.27,109.28,466.27,109.42Z"/><path class="cls-3" d="M366.15,105.75a1.29,1.29,0,1,1-1.29-1.29A1.28,1.28,0,0,1,366.15,105.75Z"/><path class="cls-3" d="M371.68,105.75a1.29,1.29,0,1,1-1.29-1.29A1.28,1.28,0,0,1,371.68,105.75Z"/><path class="cls-3" d="M377.21,105.75a1.29,1.29,0,1,1-1.28-1.29A1.28,1.28,0,0,1,377.21,105.75Z"/><polygon class="cls-6" points="402.35 84.85 290.94 84.85 299.18 5.49 411.52 5.49 402.35 84.85"/><polygon class="cls-7" points="396.67 84.85 285.27 84.85 293.5 5.49 405.85 5.49 396.67 84.85"/><polygon class="cls-5" points="392.54 81.25 289.17 81.25 296.81 7.62 401.06 7.62 392.54 81.25"/><path class="cls-6" d="M300.53,68.9c-.14,0,.89-11.1,2.29-24.74s2.67-24.71,2.81-24.69-.88,11.09-2.29,24.74S300.68,68.91,300.53,68.9Z"/><path class="cls-6" d="M319.35,21.93a26.36,26.36,0,0,1-5.18.26,26.43,26.43,0,0,1-5.19-.26,51.83,51.83,0,0,1,10.37,0Z"/><path class="cls-8" d="M363.51,21.93c0,.14-9.26.26-20.67.26s-20.67-.12-20.67-.26,9.25-.26,20.67-.26S363.51,21.78,363.51,21.93Z"/><path class="cls-6" d="M318.13,48.1a51.93,51.93,0,0,1-10.38,0,51.93,51.93,0,0,1,10.38,0Z"/><path class="cls-8" d="M362.28,48.1c0,.14-9.25.26-20.66.26S321,48.24,321,48.1s9.25-.26,20.67-.26S362.28,48,362.28,48.1Z"/><path class="cls-8" d="M348.2,60.16c0,.14-9.25.26-20.66.26s-20.68-.12-20.68-.26,9.26-.26,20.68-.26S348.2,60,348.2,60.16Z"/><path class="cls-8" d="M323.93,29.32a52.14,52.14,0,0,1-7.3.26,52.14,52.14,0,0,1-7.3-.26,50.37,50.37,0,0,1,7.3-.26A50.37,50.37,0,0,1,323.93,29.32Z"/><path class="cls-8" d="M323.56,40.15a52.14,52.14,0,0,1-7.3.26,52,52,0,0,1-7.3-.26,50.26,50.26,0,0,1,7.3-.26A50.37,50.37,0,0,1,323.56,40.15Z"/><path class="cls-8" d="M335.9,55.63a52.14,52.14,0,0,1-7.3.26,52.14,52.14,0,0,1-7.3-.26,50.37,50.37,0,0,1,7.3-.26A50.37,50.37,0,0,1,335.9,55.63Z"/><path class="cls-6" d="M377,29.32c0,.14-8.35.26-18.65.26s-18.65-.12-18.65-.26,8.35-.26,18.65-.26S377,29.17,377,29.32Z"/><path class="cls-6" d="M365.53,40.78c0,.14-8.35.26-18.65.26s-18.65-.12-18.65-.26,8.35-.26,18.65-.26S365.53,40.63,365.53,40.78Z"/><path class="cls-6" d="M378.37,55.63c0,.14-8.35.26-18.65.26s-18.65-.12-18.65-.26,8.35-.26,18.65-.26S378.37,55.48,378.37,55.63Z"/><path class="cls-6" d="M344.31,68.9c0,.14-8.35.26-18.65.26S307,69,307,68.9s8.35-.26,18.65-.26S344.31,68.75,344.31,68.9Z"/><path class="cls-6" d="M385.56,68.9c0,.14-8.35.26-18.65.26s-18.65-.12-18.65-.26,8.35-.26,18.65-.26S385.56,68.75,385.56,68.9Z"/><path class="cls-6" d="M344.31,73.21c0,.15-8.35.26-18.65.26S307,73.36,307,73.21s8.35-.26,18.65-.26S344.31,73.07,344.31,73.21Z"/><path class="cls-6" d="M346.12,32.43c0,.14-8.35.26-18.65.26s-18.65-.12-18.65-.26,8.35-.26,18.65-.26S346.12,32.28,346.12,32.43Z"/><path class="cls-7" d="M336.18,29.36a22.81,22.81,0,0,1-4.81.26,22.67,22.67,0,0,1-4.8-.26,44.53,44.53,0,0,1,9.61,0Z"/><path class="cls-7" d="M316.91,51.65a44.53,44.53,0,0,1-9.61,0,44.53,44.53,0,0,1,9.61,0Z"/><path class="cls-7" d="M316.68,55.63a44.44,44.44,0,0,1-9.6,0,44.44,44.44,0,0,1,9.6,0Z"/><path class="cls-6" d="M399.92,15.4c0,.15-23.25.26-51.92.26s-51.92-.11-51.92-.26,23.24-.26,51.92-.26S399.92,15.26,399.92,15.4Z"/><circle class="cls-3" cx="303.08" cy="11.89" r="1.23"/><circle class="cls-3" cx="308.37" cy="11.89" r="1.23"/><circle class="cls-3" cx="313.65" cy="11.89" r="1.23"/></g><g id="Character"><rect class="cls-6" x="204.94" y="384.64" width="8.68" height="11.84"/><rect class="cls-6" x="260.14" y="242.74" width="77.01" height="3.75" transform="translate(597.29 489.22) rotate(180)"/><polygon class="cls-6" points="349.09 246.48 363.53 192.35 303.4 192.35 290.32 246.48 349.09 246.48"/><polygon class="cls-1" points="293.92 242.38 347.64 242.38 360.15 194.85 306.15 194.85 293.92 242.38"/><polygon class="cls-2" points="307.49 204.06 304.16 217.52 339.78 217.52 343.57 204.06 307.49 204.06"/><path class="cls-7" d="M336.06,202.28c0,.15-6.25.26-13.95.26s-13.95-.11-13.95-.26,6.24-.26,13.95-.26S336.06,202.14,336.06,202.28Z"/><path class="cls-6" d="M319.83,206.63a61,61,0,0,1-11.25,0,61,61,0,0,1,11.25,0Z"/><path class="cls-6" d="M328.85,206.42a25.89,25.89,0,0,1-7.32,0,25.89,25.89,0,0,1,7.32,0Z"/><path class="cls-7" d="M339,209.07c0,.15-6.89.27-15.38.27s-15.39-.12-15.39-.27,6.89-.26,15.39-.26S339,208.93,339,209.07Z"/><path class="cls-8" d="M317.6,211.3a47.92,47.92,0,0,1-10,0,47.92,47.92,0,0,1,10,0Z"/><path class="cls-7" d="M336.27,214.49c0,.14-6.39.26-14.27.26s-14.27-.12-14.27-.26,6.39-.26,14.27-.26S336.27,214.34,336.27,214.49Z"/><path class="cls-7" d="M315.26,221.38a58.62,58.62,0,0,1-11,0,58.62,58.62,0,0,1,11,0Z"/><path class="cls-6" d="M324.71,221.43a14.38,14.38,0,0,1-3.77.23,13.39,13.39,0,0,1-3.76-.3,14.27,14.27,0,0,1,3.76-.23A13.55,13.55,0,0,1,324.71,221.43Z"/><path class="cls-6" d="M330,221.17c0,.15-.71.26-1.59.26s-1.59-.11-1.59-.26.71-.26,1.59-.26S330,221,330,221.17Z"/><path class="cls-8" d="M307.94,224.14c0,.15-.78.26-1.75.26s-1.75-.11-1.75-.26.79-.26,1.75-.26S307.94,224,307.94,224.14Z"/><path class="cls-6" d="M318.45,224.14a33.89,33.89,0,0,1-8.38,0,33.89,33.89,0,0,1,8.38,0Z"/><path class="cls-7" d="M343.49,223.82c0,.15-5,.26-11.19.26s-11.2-.11-11.2-.26,5-.26,11.2-.26S343.49,223.68,343.49,223.82Z"/><path class="cls-6" d="M307.41,227c0,.14-.8.26-1.8.26s-1.8-.12-1.8-.26.8-.26,1.8-.26S307.41,226.86,307.41,227Z"/><path class="cls-6" d="M312.93,226.9a9.23,9.23,0,0,1-4.35,0,9.23,9.23,0,0,1,4.35,0Z"/><path class="cls-7" d="M329.38,226.69a48.75,48.75,0,0,1-7.06.26,48.75,48.75,0,0,1-7.06-.26,48.75,48.75,0,0,1,7.06-.26A48.75,48.75,0,0,1,329.38,226.69Z"/><path class="cls-7" d="M320.68,231.68a71.33,71.33,0,0,1-8.54.26,71.44,71.44,0,0,1-8.55-.26,69,69,0,0,1,8.55-.26A68.91,68.91,0,0,1,320.68,231.68Z"/><path class="cls-8" d="M330.65,231.46a29,29,0,0,1-7.75,0,29,29,0,0,1,7.75,0Z"/><path class="cls-6" d="M345.45,231.46a79.39,79.39,0,0,1-12.84,0,79.39,79.39,0,0,1,12.84,0Z"/><path class="cls-6" d="M342,202.07c0,.15-.59.26-1.32.26s-1.33-.11-1.33-.26.6-.26,1.33-.26S342,201.93,342,202.07Z"/><path class="cls-8" d="M315,200.27a16.53,16.53,0,0,1-5.84,0,16.53,16.53,0,0,1,5.84,0Z"/><path class="cls-4" d="M359.25,198.27h-54l.91-3.42h54Z"/><circle class="cls-5" cx="308.43" cy="196.58" r="0.59"/><circle class="cls-5" cx="310.46" cy="196.58" r="0.59"/><circle class="cls-5" cx="312.49" cy="196.58" r="0.59"/><rect class="cls-6" x="297.02" y="251.52" width="128.04" height="74.71"/><rect class="cls-7" x="297.02" y="251.52" width="58.33" height="74.71"/><path class="cls-6" d="M349.41,276.89a1.59,1.59,0,0,1,0-.38l0-1.09c0-1,0-2.37-.05-4.15,0-3.61-.06-8.77-.1-15.13l.19.19-46.92.07c-.24.23.31-.32.25-.26h0v10.67c0,3.47,0,6.84,0,10.06l-.25-.24,33.62.11,9.76.07,2.62,0,.68,0h.25l-.22,0h-.65L346,277l-9.71.06-33.78.12h-.24v-.25c0-3.22,0-6.59,0-10.06,0-1.73,0-3.5,0-5.28v-5.39h0c-.05.06.5-.49.27-.26l46.92.07h.18v.19c0,6.41-.07,11.61-.1,15.24,0,1.76,0,3.14,0,4.11l0,1.06C349.42,276.78,349.41,276.9,349.41,276.89Z"/><path class="cls-6" d="M327.94,266.52a2.6,2.6,0,0,0-.9-1.44,1.82,1.82,0,0,0-1.69-.21,1.77,1.77,0,0,0-1.14,1.65,1.79,1.79,0,0,0,1.14,1.65A1.85,1.85,0,0,0,327,268a2.66,2.66,0,0,0,.9-1.44s.08.18,0,.51a2,2,0,0,1-.72,1.22,2.16,2.16,0,0,1-2.08.37,2.22,2.22,0,0,1,0-4.2,2.16,2.16,0,0,1,2.08.36A2,2,0,0,1,328,266C328,266.34,328,266.52,327.94,266.52Z"/><path class="cls-6" d="M349.41,299.74a1.81,1.81,0,0,1,0-.39l0-1.09c0-1,0-2.37-.05-4.15,0-3.6-.06-8.76-.1-15.13l.19.19-46.92.08c-.24.23.31-.32.25-.26h0v10.68c0,3.47,0,6.84,0,10.06l-.25-.25,33.62.12,9.76.07,2.62,0h.68l.25,0h-.22l-.65,0-2.57,0-9.71.07-33.78.12h-.24v-.25c0-3.22,0-6.59,0-10.06,0-1.74,0-3.5,0-5.29V279h0l.27-.27,46.92.08h.18V279c0,6.42-.07,11.62-.1,15.25,0,1.76,0,3.13,0,4.11l0,1.05C349.42,299.63,349.41,299.75,349.41,299.74Z"/><path class="cls-6" d="M327.94,289.36a2.66,2.66,0,0,0-.9-1.44,1.82,1.82,0,0,0-1.69-.21,1.79,1.79,0,0,0-1.14,1.65,1.77,1.77,0,0,0,1.14,1.65,1.82,1.82,0,0,0,1.69-.21,2.63,2.63,0,0,0,.9-1.44s.08.18,0,.51a2,2,0,0,1-.72,1.22,2.16,2.16,0,0,1-2.08.37,2.22,2.22,0,0,1,0-4.2,2.16,2.16,0,0,1,2.08.37,2,2,0,0,1,.72,1.22C328,289.18,328,289.36,327.94,289.36Z"/><path class="cls-6" d="M349.41,322.58a1.59,1.59,0,0,1,0-.38l0-1.09c0-1,0-2.37-.05-4.15,0-3.61-.06-8.77-.1-15.13l.19.19-46.92.07c-.24.23.31-.32.25-.26h0v10.67c0,3.47,0,6.84,0,10.06l-.25-.24,33.62.11,9.76.07,2.62,0,.68,0h.25l-.22,0h-.65l-2.57,0-9.71.06-33.78.12h-.24v-.25c0-3.22,0-6.59,0-10.06,0-1.73,0-3.5,0-5.28v-5.39h0c-.05.06.5-.49.27-.26l46.92.07h.18v.19c0,6.41-.07,11.61-.1,15.24,0,1.76,0,3.14,0,4.11l0,1.06C349.42,322.47,349.41,322.59,349.41,322.58Z"/><path class="cls-6" d="M327.94,312.21a2.6,2.6,0,0,0-.9-1.44,1.82,1.82,0,0,0-1.69-.21,1.77,1.77,0,0,0-1.14,1.65,1.79,1.79,0,0,0,1.14,1.65,1.82,1.82,0,0,0,1.69-.21,2.66,2.66,0,0,0,.9-1.44s.08.18,0,.51a2,2,0,0,1-.72,1.22,2.16,2.16,0,0,1-2.08.37,2.22,2.22,0,0,1,0-4.2,2.16,2.16,0,0,1,2.08.36,2,2,0,0,1,.72,1.22C328,312,328,312.21,327.94,312.21Z"/><polygon class="cls-6" points="211.75 387.04 126.18 386.98 126.18 251.52 211.75 251.52 211.75 387.04"/><rect class="cls-6" x="122.05" y="246.31" width="307.66" height="7.1"/><rect class="cls-6" x="126.18" y="253.41" width="9.54" height="143.7"/><rect class="cls-6" x="415.52" y="253.41" width="9.54" height="143.74"/><rect class="cls-6" x="355.35" y="253.41" width="9.54" height="143.74"/><path class="cls-7" d="M165.31,246.31c0,.14-9.17.26-20.48.26s-20.48-.12-20.48-.26,9.17-.26,20.48-.26S165.31,246.16,165.31,246.31Z"/><path class="cls-8" d="M255.26,390.11l.25-10.27-19.25-.58-.52,15,1.19.11c5.31.46,27,1.94,30.58,1C271.51,394.29,255.26,390.11,255.26,390.11Z"/><g class="cls-9"><path class="cls-3" d="M263.19,392.44s5.68,1.82,4.94,2.75-22.72.24-32.39-.9l0-.43,25.62,1S262.07,392.45,263.19,392.44Z"/></g><path class="cls-6" d="M235.49,393.84a1.52,1.52,0,0,0,.33,0l.94.09,3.5.26c3,.2,7,.41,11.54.56s8.6.18,11.56.17l3.5,0,.95,0,.34,0-.34,0h-.95l-3.5,0c-3,0-7-.1-11.55-.24s-8.59-.33-11.54-.49l-3.5-.18-1,0Z"/><path class="cls-6" d="M261.4,395.16a7.92,7.92,0,0,1,.7-1.65,8.12,8.12,0,0,1,1.24-1.3,3.12,3.12,0,0,0-1.94,3Z"/><path class="cls-6" d="M255.81,392.11c.05,0,.33-.29.63-.72s.49-.82.43-.85-.33.28-.62.72S255.76,392.07,255.81,392.11Z"/><path class="cls-6" d="M254.28,391.24s.35-.15.69-.44.58-.56.54-.61-.35.15-.69.44S254.23,391.19,254.28,391.24Z"/><path class="cls-6" d="M253.35,389.39a2.4,2.4,0,0,0,1,.16,2.22,2.22,0,0,0,1-.08,2.5,2.5,0,0,0-1-.16C253.8,389.29,253.35,389.32,253.35,389.39Z"/><path class="cls-6" d="M253.05,388.1a2,2,0,0,0,1.11.36,2,2,0,0,0,1.16-.12,5.39,5.39,0,0,0-1.14-.11A5.14,5.14,0,0,0,253.05,388.1Z"/><path class="cls-6" d="M256.51,390.45a3.74,3.74,0,0,0,1.24,0,7.81,7.81,0,0,0,1.33-.25,4,4,0,0,0,.76-.29.74.74,0,0,0,.32-.37.49.49,0,0,0-.18-.5,2.27,2.27,0,0,0-2.82.57,2.32,2.32,0,0,0-.43.82c-.06.21-.06.33,0,.33a3.62,3.62,0,0,1,.59-1,2.27,2.27,0,0,1,1.08-.65,1.93,1.93,0,0,1,1.47.14c.19.15.11.38-.11.51a4,4,0,0,1-.71.27,8.86,8.86,0,0,1-1.28.3C257,390.42,256.51,390.41,256.51,390.45Z"/><path class="cls-6" d="M256.83,390.52a1.21,1.21,0,0,0,.17-.85,2,2,0,0,0-.31-.92,1.24,1.24,0,0,0-1-.66.49.49,0,0,0-.4.56,1.54,1.54,0,0,0,.19.56,3.76,3.76,0,0,0,.57.76,1.82,1.82,0,0,0,.69.53s-.24-.23-.57-.64a4.87,4.87,0,0,1-.5-.75c-.16-.27-.26-.74.05-.79s.62.3.8.55a2,2,0,0,1,.33.82A4,4,0,0,1,256.83,390.52Z"/><path class="cls-6" d="M236,388.58c0,.05.55,0,1.42.1a6,6,0,0,1,4.92,4.17,14.23,14.23,0,0,1,.32,1.39.88.88,0,0,0,0-.39,5.42,5.42,0,0,0-.17-1.05,5.88,5.88,0,0,0-5.06-4.29,5.26,5.26,0,0,0-1.06,0A1.49,1.49,0,0,0,236,388.58Z"/><path class="cls-6" d="M238.28,380.63a36.28,36.28,0,0,0-.29,3.95,32.73,32.73,0,0,0-.05,4,36,36,0,0,0,.29-4A32.79,32.79,0,0,0,238.28,380.63Z"/><path class="cls-6" d="M245.21,392.54a10.68,10.68,0,0,0,2.8.37,11.24,11.24,0,0,0,2.82-.14c0-.07-1.26,0-2.81-.09S245.22,392.48,245.21,392.54Z"/><path class="cls-6" d="M241.43,392.42c0,.05.1.27.22.56s.18.56.25.55.11-.3,0-.63S241.48,392.38,241.43,392.42Z"/><path class="cls-6" d="M240.07,390.61s.07.25.26.46.39.34.44.29-.08-.24-.27-.45S240.11,390.57,240.07,390.61Z"/><path class="cls-6" d="M238.06,389.74c0,.07.26.07.54.18s.48.26.54.22-.11-.31-.45-.44S238,389.68,238.06,389.74Z"/><path class="cls-6" d="M236.62,389.31c0,.06.08.16.24.23s.31.07.33,0-.08-.17-.24-.23S236.65,389.25,236.62,389.31Z"/><g class="cls-10"><polygon points="236.08 388.07 255.32 388.34 255.36 386.02 235.97 386.85 236.08 388.07"/></g><path class="cls-8" d="M285.63,391.71l0-10.28-19.26-.07-.12,15,1.2.08c5.31.31,27,1.22,30.59.16C302,395.45,285.63,391.71,285.63,391.71Z"/><g class="cls-9"><path class="cls-3" d="M293.61,393.82s5.73,1.68,5,2.62-22.7.85-32.4,0l0-.43,25.64.33S292.49,393.87,293.61,393.82Z"/></g><path class="cls-6" d="M266,396l.33,0,1,.06,3.5.17c3,.12,7,.23,11.56.25s8.6,0,11.56-.13l3.5-.13.95-.06.33,0h-1.29l-3.5.05c-2.95.05-7,.09-11.55.07s-8.59-.11-11.55-.18l-3.5-.1H266Z"/><path class="cls-6" d="M291.89,396.6a7.85,7.85,0,0,1,.66-1.67,8.27,8.27,0,0,1,1.2-1.34,2.61,2.61,0,0,0-1.39,1.22A2.65,2.65,0,0,0,291.89,396.6Z"/><path class="cls-6" d="M286.22,393.69c.06,0,.33-.3.61-.74s.47-.82.42-.86-.33.3-.61.74S286.17,393.65,286.22,393.69Z"/><path class="cls-6" d="M284.67,392.86c0,.05.35-.16.68-.45s.57-.58.52-.63-.34.16-.68.45S284.63,392.81,284.67,392.86Z"/><path class="cls-6" d="M283.69,391a2.39,2.39,0,0,0,1,.13,2.33,2.33,0,0,0,1-.1,2.07,2.07,0,0,0-1-.13C284.14,390.93,283.69,391,283.69,391Z"/><path class="cls-6" d="M283.36,389.75a2.84,2.84,0,0,0,2.28.18,7.1,7.1,0,0,0-1.14-.08A6.44,6.44,0,0,0,283.36,389.75Z"/><path class="cls-6" d="M286.88,392a3.4,3.4,0,0,0,1.24,0,6.49,6.49,0,0,0,1.32-.29,3.51,3.51,0,0,0,.76-.3.68.68,0,0,0,.3-.39.46.46,0,0,0-.18-.49,2.27,2.27,0,0,0-2.81.65,2.29,2.29,0,0,0-.41.82c-.05.22-.05.34,0,.34a3.21,3.21,0,0,1,.57-1.05,2.18,2.18,0,0,1,1.06-.69,1.93,1.93,0,0,1,1.47.11c.2.15.12.38-.1.51a3.33,3.33,0,0,1-.7.29,9.23,9.23,0,0,1-1.27.33C287.36,392,286.88,392,286.88,392Z"/><path class="cls-6" d="M287.2,392.07a1.13,1.13,0,0,0,.15-.85,2.11,2.11,0,0,0-.33-.91,1.26,1.26,0,0,0-1-.63.48.48,0,0,0-.38.57,1.34,1.34,0,0,0,.2.55,4.07,4.07,0,0,0,.58.75c.39.38.7.53.71.5s-.25-.22-.58-.61a4.25,4.25,0,0,1-.52-.75c-.17-.26-.28-.73,0-.78s.62.28.81.52a2.17,2.17,0,0,1,.35.81A4.17,4.17,0,0,1,287.2,392.07Z"/><path class="cls-6" d="M266.37,390.69s.55-.05,1.42.06a6.09,6.09,0,0,1,3.1,1.29,6.24,6.24,0,0,1,1.93,2.75c.29.82.31,1.38.36,1.37a1.31,1.31,0,0,0,0-.39,5.17,5.17,0,0,0-.21-1,5.93,5.93,0,0,0-1.93-2.88,6,6,0,0,0-3.23-1.28,5.77,5.77,0,0,0-1.06,0C266.5,390.64,266.37,390.67,266.37,390.69Z"/><path class="cls-6" d="M268.4,382.68a31.18,31.18,0,0,0-.18,4,35.58,35.58,0,0,0,0,4,32.23,32.23,0,0,0,.19-4A34.15,34.15,0,0,0,268.4,382.68Z"/><path class="cls-6" d="M275.64,394.41a15.61,15.61,0,0,0,5.62.07c0-.06-1.26,0-2.81,0S275.64,394.34,275.64,394.41Z"/><path class="cls-6" d="M271.86,394.38c0,.05.1.27.23.56s.2.55.26.54.1-.3-.05-.63S271.9,394.34,271.86,394.38Z"/><path class="cls-6" d="M270.45,392.61c-.05,0,.08.24.27.45s.4.33.45.28-.08-.24-.28-.45S270.49,392.56,270.45,392.61Z"/><path class="cls-6" d="M268.42,391.79c0,.07.27.07.55.17s.48.25.53.2-.11-.3-.46-.42S268.4,391.73,268.42,391.79Z"/><path class="cls-6" d="M267,391.4c0,.06.09.16.25.23s.3.06.33,0-.09-.16-.25-.22S267,391.34,267,391.4Z"/><g class="cls-10"><polygon points="266.4 390.17 285.63 389.94 285.62 387.62 266.25 388.95 266.4 390.17"/></g><path class="cls-11" d="M243.11,215.74,250.82,239c2.08,6.27,7.56,7.35,14.17,7.35h42.89v-9.63l-39.19-5.59-9.34-23.86Z"/><path class="cls-11" d="M312.6,234.68l3.4-1.61s3.66-7.09,4.51-6.8,1.09,2.37-.39,5.62l4.53-1.29s9.8,4.53,9.36,5.14a2.26,2.26,0,0,1-3.37,1c-2.13-1.1-4.93-2.38-4.93-2.38l-5.28,1.51,6.81.87,6.4,5.82a3.12,3.12,0,0,1-3.91-.09L313.09,246l-5.21.3v-9.63Z"/><path class="cls-12" d="M329.73,242.44c-.07,0-.38-.45-1-1.1a5.08,5.08,0,0,0-1.21-.94,5,5,0,0,0-1.8-.47,25.29,25.29,0,0,1-5-.85,25,25,0,0,1,5.05.34,4.84,4.84,0,0,1,2,.57A4.6,4.6,0,0,1,329,241.1,3,3,0,0,1,329.73,242.44Z"/><path class="cls-12" d="M327.12,243.1c-.06,0-.11-.34-.58-.44s-1.23-.18-2-.26a17.52,17.52,0,0,1-2.92-.29,5.84,5.84,0,0,1,3-.23,9.3,9.3,0,0,1,2.1.43.82.82,0,0,1,.5.53C327.22,243,327.16,243.11,327.12,243.1Z"/><path class="cls-11" d="M206.9,120.27l-2.33,47.18,20.2,1.9,1.11-11.45s7.13,1.76,9.29-4.83c1.38-4.21,2.61-37.19,2.61-37.19Z"/><path class="cls-6" d="M239.53,121.39c.56,4.42-5.62,7-5.62,7l-1.07,10.45a20.49,20.49,0,0,0-2.91,0c.52-4.9-5.79-3.94-6.43-.6s3,5.36,3,5.36c-2.52,3.87-3.55,5.92-7.13,9.55-3.88,3.93-6,4.25-10,4.13L205,157s-1.57-3.77-2.72-12.68c-.55-4.28-3.9-9.9-3-16.86,2.71-19.79,21.67-17.7,21.67-17.7C230.86,110.05,238.23,111.15,239.53,121.39Z"/><path class="cls-6" d="M225,110.35c4.29.11,8.73.45,12.49,2.5s6.66,6.28,5.89,10.49l-2.14.39-.89-1.58,0,2.52-3.77,1a27.31,27.31,0,0,0-3.33-9.11"/><path class="cls-7" d="M207.7,132.06a2.26,2.26,0,0,1-.33-.74,12.7,12.7,0,0,1-.54-2.15A15.72,15.72,0,0,1,211,115.64a12.22,12.22,0,0,1,1.65-1.47,2.51,2.51,0,0,1,.69-.43c.06.07-.87.76-2.07,2.14a17.25,17.25,0,0,0-3.47,6.18,17.43,17.43,0,0,0-.62,7.06C207.41,130.94,207.79,132,207.7,132.06Z"/><path class="cls-7" d="M211.68,130.41a8.36,8.36,0,0,1-.8-2.42,20.5,20.5,0,0,1,1.06-12.12,8.1,8.1,0,0,1,1.21-2.25,31.79,31.79,0,0,0-2.14,8.27A32.38,32.38,0,0,0,211.68,130.41Z"/><path class="cls-7" d="M237.47,123.09c-.1,0-.27-1.22-1.09-3a13.8,13.8,0,0,0-12.07-8.17c-2-.09-3.19.21-3.21.12a2.52,2.52,0,0,1,.84-.26,11.57,11.57,0,0,1,2.38-.22,13.36,13.36,0,0,1,12.4,8.39,11.52,11.52,0,0,1,.67,2.29A2.5,2.5,0,0,1,237.47,123.09Z"/><path class="cls-6" d="M208.33,106.53a5.29,5.29,0,0,1,2.9,1.72,5.23,5.23,0,0,1,1.7,2.91c-.15.06-.8-1.28-2.07-2.55S208.26,106.68,208.33,106.53Z"/><path class="cls-7" d="M213.05,106.55c.15,0-.16,1.11-.1,2.42s.42,2.33.28,2.4a3.38,3.38,0,0,1-.8-2.38A3.34,3.34,0,0,1,213.05,106.55Z"/><path class="cls-8" d="M239.47,210.68l3.3,11.17,20.94-9.47c-.76-2.34-4.22-12.76-10.85-29.3a28.4,28.4,0,0,0-21.7-17.49,124.44,124.44,0,0,0-20-2c-11.74.13-29,7.47-31.35,19-1.77,8.78-.06,24.29-.06,43.13l1.53,36,60.16,2Z"/><g class="cls-10"><path d="M179.77,217.4c7.32,1.5,14.84,0,22.3-.45,4.52-.27,9.54-.76,13.12,2,2.83,2.2,4,5.91,4.79,9.41,3.12,13.33,3.69,22.27,4.39,35.94l-36.21,2.2Z"/></g><path class="cls-5" d="M251.1,179.63c0,.15-15.79.26-35.27.26s-35.28-.11-35.28-.26,15.79-.26,35.28-.26S251.1,179.49,251.1,179.63Z"/><path class="cls-5" d="M255.49,189.74c0,.14-17.17.26-38.34.26s-38.36-.12-38.36-.26,17.17-.26,38.36-.26S255.49,189.6,255.49,189.74Z"/><path class="cls-5" d="M261,202.42c0,.15-18.32.26-40.92.26s-40.92-.11-40.92-.26,18.32-.26,40.92-.26S261,202.28,261,202.42Z"/><path class="cls-5" d="M239,216.1c0,.14-5.72.26-12.78.26s-12.78-.12-12.78-.26,5.72-.26,12.78-.26S239,216,239,216.1Z"/><path class="cls-5" d="M240.21,230.92c0,.14-6,.21-13.38.15s-13.38-.22-13.38-.37,6-.21,13.38-.15S240.21,230.78,240.21,230.92Z"/><path class="cls-5" d="M240.79,243a4,4,0,0,1-1.06.05l-2.86-.06c-2.42-.05-5.76-.12-9.45-.12s-7,.06-9.46.11l-2.86.06a4,4,0,0,1-1.06,0,4,4,0,0,1,1.05-.16c.67-.07,1.65-.14,2.86-.21,2.42-.15,5.77-.27,9.47-.27s7,.13,9.46.28c1.21.07,2.19.15,2.86.22A4.37,4.37,0,0,1,240.79,243Z"/><path class="cls-5" d="M240.6,252.76c0,.14-5.9.26-13.18.26s-13.18-.12-13.18-.26,5.9-.26,13.18-.26S240.6,252.61,240.6,252.76Z"/><path class="cls-5" d="M242.38,169.72c0,.15-11.58.26-25.86.26s-25.86-.11-25.86-.26,11.58-.26,25.86-.26S242.38,169.58,242.38,169.72Z"/><path class="cls-6" d="M241,171.6c0,.06-.61.09-1.6.48a8.32,8.32,0,0,0-3.47,2.81,11.66,11.66,0,0,0-2.07,6.27,39.35,39.35,0,0,0,.63,8.24,136.09,136.09,0,0,0,3.37,14.75c.49,1.81.9,3.3,1.21,4.43a11.94,11.94,0,0,1,.39,1.64,9.48,9.48,0,0,1-.58-1.58c-.34-1-.82-2.53-1.38-4.39A114.3,114.3,0,0,1,234,189.48a38.16,38.16,0,0,1-.6-8.36,11.78,11.78,0,0,1,2.26-6.45,8.2,8.2,0,0,1,3.68-2.78,6.29,6.29,0,0,1,1.24-.28A1.51,1.51,0,0,1,241,171.6Z"/><path class="cls-6" d="M263.05,209.52a19.65,19.65,0,0,1-2.95,1.7c-1.86,1-4.46,2.25-7.38,3.57s-5.6,2.42-7.56,3.17a20.89,20.89,0,0,1-3.22,1.09,23,23,0,0,1,3.08-1.43c1.92-.84,4.57-2,7.49-3.3s5.53-2.55,7.43-3.43A26.24,26.24,0,0,1,263.05,209.52Z"/><path class="cls-6" d="M199.84,262.31l71.88,2.54a21.44,21.44,0,0,1,20.68,21.76l-3,102.66-27.77-.92,2.06-96.12-63.87-1.68Z"/><path class="cls-6" d="M170.15,262.31,242,264.85a21.45,21.45,0,0,1,20.68,21.76l-3,102.66L231.59,387,234,292.23l-63.87-1.68Z"/><rect class="cls-7" x="216.88" y="299.6" width="7.07" height="84.71"/><path class="cls-7" d="M157.55,217.38v62.36a14.81,14.81,0,0,0,14.81,14.81h41.52V217.38a6.59,6.59,0,0,0-6.6-6.6H164.15A6.6,6.6,0,0,0,157.55,217.38Z"/><path class="cls-7" d="M269.77,299.6H168.65a11,11,0,0,1,11-11H258.8a11,11,0,0,1,11,11Z"/><path class="cls-6" d="M213.88,287.17a1.52,1.52,0,0,1,0,.48,5.69,5.69,0,0,1-.16,1.36,7.47,7.47,0,0,1-5.92,5.63,29,29,0,0,1-4,.15l-9.08,0c-6.45,0-12.29,0-16.51-.06l-5-.07-1.36-.05a2.48,2.48,0,0,1-.47-.05,1.47,1.47,0,0,1,.47-.06l1.36,0,5-.09c4.22-.05,10.06-.08,16.51-.09h9.08a31,31,0,0,0,3.92-.09,7.19,7.19,0,0,0,3.07-1.3,7.38,7.38,0,0,0,2.73-4A16.79,16.79,0,0,0,213.88,287.17Z"/><path class="cls-6" d="M226.61,299.82a36.33,36.33,0,0,1-6.2.26,36.42,36.42,0,0,1-6.2-.26,37.7,37.7,0,0,1,6.2-.26A37.6,37.6,0,0,1,226.61,299.82Z"/><path class="cls-7" d="M257.38,295.09a17.38,17.38,0,0,1-.63-3c-.33-1.92-.78-4.71-1.32-8.15s-.91-7.61-2.81-11.74a28.52,28.52,0,0,0-3.76-6,27,27,0,0,0-5.63-5.08,25,25,0,0,0-6.84-3.29,25.92,25.92,0,0,0-7-1.21c-4.58-.1-8.75-.08-12.23-.15s-6.31-.1-8.26-.16a16.38,16.38,0,0,1-3-.21,17.12,17.12,0,0,1,3-.2c1.95-.06,4.77-.12,8.26-.16s7.62-.13,12.26-.07a26.73,26.73,0,0,1,14.36,4.59,27.47,27.47,0,0,1,5.84,5.29,29.12,29.12,0,0,1,3.85,6.26c.23.53.42,1.08.63,1.61l.3.8c.07.27.15.54.22.81.15.53.3,1.06.44,1.58s.19,1.05.28,1.56c.36,2.05.55,3.93.79,5.67.44,3.45.78,6.26,1,8.19A17,17,0,0,1,257.38,295.09Z"/><path class="cls-7" d="M251.34,392h-1a30.09,30.09,0,1,0-60.17,0h-1a31.09,31.09,0,1,1,62.17,0Z"/><path class="cls-6" d="M194.33,393.53a4.66,4.66,0,1,1-4.66-4.66A4.66,4.66,0,0,1,194.33,393.53Z"/><path class="cls-6" d="M255.73,392.89a4.66,4.66,0,1,1-4.66-4.66A4.66,4.66,0,0,1,255.73,392.89Z"/><path class="cls-7" d="M251,384.31c0,.15-13.53.26-30.21.26s-30.21-.11-30.21-.26,13.52-.26,30.21-.26S251,384.17,251,384.31Z"/></g><g id="Plants"><path class="cls-8" d="M147.83,189.72a6.51,6.51,0,0,1,2.91,4.17,11.53,11.53,0,0,1-.16,5.19c-.77,3.28-3.05,6.42-5.4,8.84-2.52-2.77-2.66-7.11-2.6-9.32.1-3.49,2.41-9.74,5.25-8.88"/><path class="cls-8" d="M147.8,213.8a5.52,5.52,0,0,1,2.39-5,7.37,7.37,0,0,1,5.59-1.06,3.12,3.12,0,0,1,2.24,1.34,2.37,2.37,0,0,1-.24,2.39,4.79,4.79,0,0,1-2,1.53c-2.61,1.24-5.36,2-8,.82"/><path class="cls-6" d="M143.58,221.12a11.1,11.1,0,0,1,.63-2.14,10.9,10.9,0,0,1,1.11-2.17,22.7,22.7,0,0,1,1.75-2.41,11.09,11.09,0,0,1,4.36-3.18,8.26,8.26,0,0,1,1.59-.41,1.84,1.84,0,0,1,.6,0c0,.07-.84.16-2.09.69a11.78,11.78,0,0,0-4.17,3.18,25.92,25.92,0,0,0-1.75,2.35,11.35,11.35,0,0,0-1.15,2.08A17.23,17.23,0,0,1,143.58,221.12Z"/><path class="cls-6" d="M146.5,194.63a5.72,5.72,0,0,1,0,1.13c0,.72-.1,1.77-.2,3.06-.19,2.59-.49,6.16-.92,10.1S144.44,216.4,144,219c-.2,1.28-.38,2.31-.51,3a8.13,8.13,0,0,1-.25,1.1,5.85,5.85,0,0,1,.1-1.13c.1-.78.24-1.81.4-3,.34-2.57.79-6.12,1.22-10.06s.76-7.43,1-10.07c.13-1.24.23-2.27.32-3.06A6.07,6.07,0,0,1,146.5,194.63Z"/><path class="cls-8" d="M143.42,214.59a13,13,0,0,0-7.29-9.35c-.95-.43-2.19-.7-2.95,0s-.56,2-.16,3a11.08,11.08,0,0,0,10.34,6.65"/><path class="cls-6" d="M136.87,208.22a1.89,1.89,0,0,1,.53.26,16.08,16.08,0,0,1,1.36.87,14.67,14.67,0,0,1,3.81,3.73,9.18,9.18,0,0,1,1.21,2.7,9,9,0,0,1,.27,2.4,9.86,9.86,0,0,1-.19,1.61,1.63,1.63,0,0,1-.17.58c-.07,0,.1-.85.09-2.19a9.55,9.55,0,0,0-.34-2.31,9.44,9.44,0,0,0-1.19-2.58,16.63,16.63,0,0,0-3.65-3.73A17.7,17.7,0,0,1,136.87,208.22Z"/><path class="cls-6" d="M143.09,246.31h0a12.51,12.51,0,0,1-12.5-12.51V221.3h25v12.5A12.51,12.51,0,0,1,143.09,246.31Z"/><path class="cls-2" d="M155.6,227.45a2.19,2.19,0,0,1-.35.35l-1,.93L150.45,232l-.09.07-.11-.06L143,227.63h.2L136.46,232l-.1.07-.1-.08-4.15-3.25-1.14-.92a2.1,2.1,0,0,1-.38-.36s.16.08.44.27l1.2.85,4.24,3.14h-.2l6.71-4.42.11-.07.11.06h0l7.22,4.42h-.2l3.86-3.13,1.1-.86C155.44,227.53,155.59,227.43,155.6,227.45Z"/><path class="cls-2" d="M155.6,225a2.19,2.19,0,0,1-.35.35l-1,.93-3.77,3.25-.09.07-.11-.06L143,225.13h.2l-6.74,4.37-.1.07-.1-.08-4.15-3.25-1.14-.92a2.1,2.1,0,0,1-.38-.36s.16.08.44.27l1.2.85,4.24,3.14h-.2l6.71-4.42.11-.07.11.06h0l7.22,4.42h-.2l3.86-3.13,1.1-.86C155.44,225,155.59,224.93,155.6,225Z"/><path class="cls-2" d="M155.6,230s-.11.14-.35.36l-1,.92-3.77,3.25-.09.08-.11-.07L143,230.18h.2l-6.74,4.37-.1.07-.1-.07c-1.67-1.32-3.09-2.42-4.15-3.25l-1.14-.93c-.26-.22-.39-.34-.38-.36a2.33,2.33,0,0,1,.44.27l1.2.86,4.24,3.13h-.2l6.71-4.42.11-.07.11.07h0l7.22,4.41-.2,0,3.86-3.14,1.1-.85A1.68,1.68,0,0,1,155.6,230Z"/><path class="cls-8" d="M479.6,275.67c-5.18.84-7.5,7.2-7.05,12.43s2.61,10.35,2,15.56c-.73,6.63-5.74,12.23-6.32,18.87-.69,7.83,4.85,14.78,6.5,22.46.81,3.74.69,7.7,2.09,11.26A14.07,14.07,0,0,0,504,351.39c.12-6-3.59-11.67-3.14-17.67.33-4.43,2.93-8.63,2.37-13-.66-5.25-5.52-9-7.24-14s-.06-10.52-.66-15.78c-1.06-9.43-6.29-16-15.75-15.25"/><path class="cls-8" d="M453.13,321.34c-.88,8.74,3,19,7.48,26.57a41.66,41.66,0,0,0,19.57,17c.91.38,2.05.7,2.82.08a2.79,2.79,0,0,0,.71-2.24,42.92,42.92,0,0,0-30.58-41.39"/><g class="cls-13"><path d="M453.13,321.34c-.88,8.74,3,19,7.48,26.57a41.66,41.66,0,0,0,19.57,17c.91.38,2.05.7,2.82.08a2.79,2.79,0,0,0,.71-2.24,42.92,42.92,0,0,0-30.58-41.39"/></g><path class="cls-6" d="M491.2,383.16a2.33,2.33,0,0,1-.24-.48c-.17-.38-.38-.85-.63-1.44-.52-1.24-1.31-3-2.31-5.25a186.15,186.15,0,0,0-8.67-16.79A188.79,188.79,0,0,0,469,343.39c-1.43-1.95-2.61-3.52-3.44-4.59-.39-.5-.7-.92-.95-1.25a2.26,2.26,0,0,1-.3-.45s.15.12.38.39l1,1.19c.87,1,2.1,2.57,3.57,4.5a159.38,159.38,0,0,1,19.09,32.67c1,2.23,1.7,4,2.17,5.32l.54,1.47A1.81,1.81,0,0,1,491.2,383.16Z"/><path class="cls-6" d="M485.58,299.85a4.7,4.7,0,0,1,.09.84c.05.59.1,1.39.18,2.41.13,2.13.33,5.15.57,8.85.47,7.48,1.13,17.81,1.93,29.21s1.6,21.73,2.18,29.2c.28,3.7.51,6.71.68,8.85.06,1,.12,1.81.16,2.4a5,5,0,0,1,0,.85,6.48,6.48,0,0,1-.12-.84c-.06-.59-.15-1.39-.26-2.4-.2-2.13-.48-5.14-.83-8.83-.67-7.47-1.52-17.78-2.32-29.19s-1.41-21.74-1.79-29.23c-.18-3.71-.32-6.72-.42-8.86,0-1-.06-1.82-.08-2.42A4.9,4.9,0,0,1,485.58,299.85Z"/><path class="cls-6" d="M477.54,370.7h21.89v16.07a10.51,10.51,0,0,1-10.51,10.5h0a10.5,10.5,0,0,1-10.49-9.94Z"/></g><g id="Lamp"><polyline class="cls-8" points="366.68 158.84 418.88 187.75 416.91 191.43 365.18 161.98 366.68 158.84"/><polygon class="cls-8" points="364.11 156.11 366.51 152.44 367.91 153.3 365.76 157 364.11 156.11"/><polygon class="cls-8" points="412.95 183.18 415.63 184.72 406.89 240.5 402.75 240.55 412.95 183.18"/><path class="cls-8" d="M390.72,246.31s6.37-6.44,14.89-6a18.48,18.48,0,0,1,12.9,5.93Z"/><path class="cls-8" d="M364.16,181.4l-20.67-11.94,6-10.33a11.93,11.93,0,0,1,16.3-4.37h0a11.93,11.93,0,0,1,4.36,16.3Z"/></g></g></svg>