<svg xmlns="http://www.w3.org/2000/svg" xmlns:xlink="http://www.w3.org/1999/xlink" width="118.7" height="112.1" viewBox="0 0 118.678 112.094">
  <defs>
    <linearGradient id="linear-gradient" x1="-0.134" y1="0.531" x2="1.277" y2="0.712" gradientUnits="objectBoundingBox">
      <stop offset="0" stop-color="#171d2d"/>
      <stop offset="0.3" stop-color="#171d2d"/>
      <stop offset="0.4" stop-color="#273047"/>
      <stop offset="0.4" stop-color="#283149"/>
      <stop offset="0.5" stop-color="#2730  47"/>
      <stop offset="0.5" stop-color="#303048"/>
      <stop offset="0.7" stop-color="#f73859"/>
      <stop offset="0.9" stop-color="#dbedf3"/>
      <stop offset="1" stop-color="#fbf9fa"/>
    </linearGradient>
    <linearGradient id="linear-gradient-2" y1="0.434" x2="1.152" y2="0.47" gradientUnits="objectBoundingBox">
      <stop offset="0" stop-color="#171d2d"/>
      <stop offset="0.3" stop-color="#283149"/>
      <stop offset="0.7" stop-color="#f54463"/>
      <stop offset="0.7" stop-color="#f3526f"/>
      <stop offset="0.9" stop-color="#dfeff4"/>
      <stop offset="0.9" stop-color="#f2f6f8"/>
      <stop offset="0.9" stop-color="#dbedf3"/>
      <stop offset="1" stop-color="#fbf9fa"/>
    </linearGradient>
    <linearGradient id="linear-gradient-3" x1="0.203" y1="0.102" x2="1.305" y2="0.609" gradientUnits="objectBoundingBox">
      <stop offset="0" stop-color="#171d2d"/>
      <stop offset="0.3" stop-color="#283149"/>
      <stop offset="0.6" stop-color="#ea3858"/>
      <stop offset="0.6" stop-color="#f73859"/>
      <stop offset="0.9" stop-color="#dce5ec"/>
      <stop offset="0.9" stop-color="#dbedf3"/>
      <stop offset="1" stop-color="#fbf9fa"/>
    </linearGradient>
  </defs>
  <g id="vaultverse2" transform="translate(0)">
    <path id="Path_961" data-name="Path 961" d="M 278.6 314.8 l -6.8 12.2 L 259 349.7 l -12.6 -22.8 l -19 -34.1 L 200.6 244.5 C 202.8 243 205.2 242 207.8 241.5 l -0.9 0.5 s 5.6 -0.5 17.2 17.3 s 28.3 53.9 35.4 57.7 C 263.9 319.3 272.7 316.9 278.6 314.8 Z" transform="translate(-200.6,-237.6)" fill="url(#linear-gradient)"/>
    <path id="Path_962" data-name="Path 962" d="M 602.8 222.9 l -27 48.3 l -8.3 14.9 l -1.8 3.2 h 0 C 563.9 289.6 562 289.9 560.2 290 C 558.6 290.1 557 290.1 555.5 289.9 C 551.1 289.3 547.3 287 544.8 283.4 c -0.3 -0.4 -0.5 -0.8 -0.7 -1.1 l 0.2 -0.3 l 11 -19.6 l 16 -28.6 l 1.8 -3.2 c 4.4 -6.8 11 -11.1 18.5 -11.1 C 595.6 219.5 599.5 220.7 602.8 222.9 Z" transform="translate(-484.1,-219.4)" fill="url(#linear-gradient-2)"/>
    <path id="Path_963" data-name="Path 963" d="M 310.9 309.6 l -2.1 3.7 c -5.9 2.1 -14.6 4.5 -19.1 2.2 c -7.1 -3.8 -23.8 -39.9 -35.4 -57.7 s -17.2 -17.3 -17.2 -17.3 l 0.9 -0.5 C 238.8 239.8 239.6 239.7 240.3 239.7 h 3.2 c 6.9 0.6 12.9 4.8 16.9 11.2 l 1.7 3.1 L 289.3 302.6 c 0 0 0.1 0.1 0.1 0.2 c 0.2 0.3 0.4 0.6 0.7 1.1 C 292.5 307.4 296.4 309.8 300.7 310.4 C 302.3 310.6 303.8 310.6 305.4 310.4 C 307.2 310.3 309.1 310 310.9 309.6 Z" transform="translate(-230.8,-236.1)" fill="url(#linear-gradient-3)"/>
  </g>
</svg>
